<?xml version="1.0" encoding="UTF-8" standalone="no"?>
<!DOCTYPE svg PUBLIC "-//W3C//DTD SVG 1.1//EN"
 "http://www.w3.org/Graphics/SVG/1.1/DTD/svg11.dtd">
<!-- Generated by graphviz version 2.40.1 (20161225.0304)
 -->
<!-- Title: Files Pages: 1 -->
<svg width="1541pt" height="710pt"
 viewBox="0.00 0.00 1541.26 710.00" xmlns="http://www.w3.org/2000/svg" xmlns:xlink="http://www.w3.org/1999/xlink">
<g id="graph0" class="graph" transform="scale(1 1) rotate(0) translate(4 706)">
<title>Files</title>
<polygon fill="#ffffff" stroke="transparent" points="-4,4 -4,-706 1537.2559,-706 1537.2559,4 -4,4"/>
<g id="clust1" class="cluster">
<title>cluster_0</title>
<polygon fill="#ffeedd" stroke="#000000" stroke-width=".5" points="8,-8 8,-694 1525.2559,-694 1525.2559,-8 8,-8"/>
<text text-anchor="middle" x="766.6279" y="-678.8" font-family="Times,serif" font-size="14.00" fill="#000000">/Users/dave/src/dmf/node&#45;trucker/</text>
</g>
<g id="clust2" class="cluster">
<title>cluster_1</title>
<polygon fill="#eeddff" stroke="#000000" stroke-width=".5" points="16,-16 16,-664 1517.2559,-664 1517.2559,-16 16,-16"/>
<text text-anchor="middle" x="766.6279" y="-648.8" font-family="Times,serif" font-size="14.00" fill="#000000">src/</text>
</g>
<g id="clust3" class="cluster">
<title>cluster_2</title>
<polygon fill="#ddffee" stroke="#000000" stroke-width=".5" points="525.8281,-24 525.8281,-288 1380.8799,-288 1380.8799,-24 525.8281,-24"/>
<text text-anchor="middle" x="953.354" y="-272.8" font-family="Times,serif" font-size="14.00" fill="#000000">src/analyzeFiles/</text>
</g>
<g id="clust4" class="cluster">
<title>cluster_3</title>
<polygon fill="#ffddee" stroke="#000000" stroke-width=".5" points="896.9287,-32 896.9287,-214 1372.8799,-214 1372.8799,-32 896.9287,-32"/>
<text text-anchor="middle" x="1134.9043" y="-198.8" font-family="Times,serif" font-size="14.00" fill="#000000">src/analyzeFiles/findRequires/</text>
</g>
<g id="clust5" class="cluster">
<title>cluster_4</title>
<polygon fill="#ddffee" stroke="#000000" stroke-width=".5" points="148.8691,-234 148.8691,-308 413.6626,-308 413.6626,-234 148.8691,-234"/>
<text text-anchor="middle" x="281.2659" y="-292.8" font-family="Times,serif" font-size="14.00" fill="#000000">src/buildJob/</text>
</g>
<g id="clust6" class="cluster">
<title>cluster_5</title>
<polygon fill="#ddffee" stroke="#000000" stroke-width=".5" points="148.8691,-476 148.8691,-624 812.7974,-624 812.7974,-476 148.8691,-476"/>
<text text-anchor="middle" x="480.8333" y="-608.8" font-family="Times,serif" font-size="14.00" fill="#000000">src/findChangedRequires/</text>
</g>
<g id="clust7" class="cluster">
<title>cluster_6</title>
<polygon fill="#ddffee" stroke="#000000" stroke-width=".5" points="320.2349,-328 320.2349,-456 844.6836,-456 844.6836,-328 320.2349,-328"/>
<text text-anchor="middle" x="582.4592" y="-440.8" font-family="Times,serif" font-size="14.00" fill="#000000">src/findSourceFiles/</text>
</g>
<g id="clust8" class="cluster">
<title>cluster_7</title>
<polygon fill="#ddffee" stroke="#000000" stroke-width=".5" points="896.9287,-486 896.9287,-634 1509.2559,-634 1509.2559,-486 896.9287,-486"/>
<text text-anchor="middle" x="1203.0923" y="-618.8" font-family="Times,serif" font-size="14.00" fill="#000000">src/handleFileChanges/</text>
</g>
<!-- src/index.ts -->
<g id="node1" class="node">
<title>src/index.ts</title>
<polygon fill="#ffff99" stroke="#000000" points="83.9121,-322 24.0293,-322 24.0293,-286 83.9121,-286 83.9121,-322"/>
<text text-anchor="middle" x="53.9707" y="-299.8" font-family="Times,serif" font-size="14.00" fill="#000000">index.ts</text>
</g>
<!-- src/printDependencies.ts -->
<g id="node2" class="node">
<title>src/printDependencies.ts</title>
<polygon fill="#ffff99" stroke="#000000" points="253.6369,-170 120.0428,-170 120.0428,-134 253.6369,-134 253.6369,-170"/>
<text text-anchor="middle" x="186.8398" y="-147.8" font-family="Times,serif" font-size="14.00" fill="#000000">printDependencies.ts</text>
</g>
<!-- src/index.ts&#45;&gt;src/printDependencies.ts -->
<g id="edge6" class="edge">
<title>src/index.ts&#45;&gt;src/printDependencies.ts</title>
<path fill="none" stroke="#888888" d="M59.1514,-285.7638C67.6471,-258.9263 86.9755,-208.7637 119.9414,-179 121.2196,-177.8459 122.5535,-176.738 123.9335,-175.6744"/>
<polygon fill="#888888" stroke="#888888" points="125.9334,-178.5473 132.2725,-170.0582 122.023,-172.7413 125.9334,-178.5473"/>
</g>
<!-- src/printUnused.ts -->
<g id="node3" class="node">
<title>src/printUnused.ts</title>
<polygon fill="#ffff99" stroke="#000000" points="235.8916,-224 137.7881,-224 137.7881,-188 235.8916,-188 235.8916,-224"/>
<text text-anchor="middle" x="186.8398" y="-201.8" font-family="Times,serif" font-size="14.00" fill="#000000">printUnused.ts</text>
</g>
<!-- src/index.ts&#45;&gt;src/printUnused.ts -->
<g id="edge2" class="edge">
<title>src/index.ts&#45;&gt;src/printUnused.ts</title>
<path fill="none" stroke="#888888" d="M66.117,-285.8215C78.0558,-269.2116 97.6845,-245.0177 119.9414,-230 122.6519,-228.1711 125.5182,-226.4636 128.4788,-224.8721"/>
<polygon fill="#888888" stroke="#888888" points="130.1237,-227.9641 137.5826,-220.4397 127.0595,-221.6704 130.1237,-227.9641"/>
</g>
<!-- src/buildJob/index.ts -->
<g id="node14" class="node">
<title>src/buildJob/index.ts</title>
<polygon fill="#ffff99" stroke="#000000" points="216.7813,-278 156.8984,-278 156.8984,-242 216.7813,-242 216.7813,-278"/>
<text text-anchor="middle" x="186.8398" y="-255.8" font-family="Times,serif" font-size="14.00" fill="#000000">index.ts</text>
</g>
<!-- src/index.ts&#45;&gt;src/buildJob/index.ts -->
<g id="edge1" class="edge">
<title>src/index.ts&#45;&gt;src/buildJob/index.ts</title>
<path fill="none" stroke="#888888" d="M84.1766,-293.8975C95.4034,-290.1504 108.251,-285.8715 119.9414,-282 128.8057,-279.0644 138.3353,-275.9223 147.3442,-272.9582"/>
<polygon fill="#888888" stroke="#888888" points="148.4528,-276.2781 156.8593,-269.8298 146.2664,-269.6283 148.4528,-276.2781"/>
</g>
<!-- src/findChangedRequires/index.ts -->
<g id="node20" class="node">
<title>src/findChangedRequires/index.ts</title>
<polygon fill="#ffff99" stroke="#000000" points="216.7813,-520 156.8984,-520 156.8984,-484 216.7813,-484 216.7813,-520"/>
<text text-anchor="middle" x="186.8398" y="-497.8" font-family="Times,serif" font-size="14.00" fill="#000000">index.ts</text>
</g>
<!-- src/index.ts&#45;&gt;src/findChangedRequires/index.ts -->
<g id="edge3" class="edge">
<title>src/index.ts&#45;&gt;src/findChangedRequires/index.ts</title>
<path fill="none" stroke="#888888" d="M55.6687,-322.2554C59.9345,-357.6924 74.2717,-436.1613 119.9414,-480 127.4166,-487.1755 137.2742,-492.0111 147.1177,-495.2698"/>
<polygon fill="#888888" stroke="#888888" points="146.2923,-498.6736 156.8676,-498.031 148.1997,-491.9385 146.2923,-498.6736"/>
</g>
<!-- src/findSourceFiles/index.ts -->
<g id="node25" class="node">
<title>src/findSourceFiles/index.ts</title>
<polygon fill="#ffff99" stroke="#000000" points="388.147,-399 328.2641,-399 328.2641,-363 388.147,-363 388.147,-399"/>
<text text-anchor="middle" x="358.2056" y="-376.8" font-family="Times,serif" font-size="14.00" fill="#000000">index.ts</text>
</g>
<!-- src/index.ts&#45;&gt;src/findSourceFiles/index.ts -->
<g id="edge5" class="edge">
<title>src/index.ts&#45;&gt;src/findSourceFiles/index.ts</title>
<path fill="none" stroke="#888888" d="M83.9745,-311.5938C139.0723,-325.5387 256.3797,-355.2285 318.1901,-370.8723"/>
<polygon fill="#888888" stroke="#888888" points="317.4237,-374.2886 327.9768,-373.3493 319.1412,-367.5026 317.4237,-374.2886"/>
</g>
<!-- src/handleFileChanges/index.ts -->
<g id="node31" class="node">
<title>src/handleFileChanges/index.ts</title>
<polygon fill="#ffff99" stroke="#000000" points="964.8408,-584 904.958,-584 904.958,-548 964.8408,-548 964.8408,-584"/>
<text text-anchor="middle" x="934.8994" y="-561.8" font-family="Times,serif" font-size="14.00" fill="#000000">index.ts</text>
</g>
<!-- src/index.ts&#45;&gt;src/handleFileChanges/index.ts -->
<g id="edge4" class="edge">
<title>src/index.ts&#45;&gt;src/handleFileChanges/index.ts</title>
<path fill="none" stroke="#888888" d="M54.813,-322.3491C58.1014,-384.9263 72.3428,-588.2767 119.9414,-628 201.2616,-695.8657 252.2871,-633 358.2056,-633 358.2056,-633 358.2056,-633 563.7988,-633 688.6563,-633 725.7759,-666.0835 844.6836,-628 868.3254,-620.4281 891.329,-604.4411 908.1904,-590.5981"/>
<polygon fill="#888888" stroke="#888888" points="910.5848,-593.1567 915.9503,-584.021 906.0588,-587.8168 910.5848,-593.1567"/>
</g>
<!-- src/sourceFile.ts -->
<g id="node4" class="node">
<title>src/sourceFile.ts</title>
<polygon fill="#ffff99" stroke="#000000" points="1494.7233,-477 1407.4125,-477 1407.4125,-441 1494.7233,-441 1494.7233,-477"/>
<text text-anchor="middle" x="1451.0679" y="-454.8" font-family="Times,serif" font-size="14.00" fill="#000000">sourceFile.ts</text>
</g>
<!-- src/types.ts -->
<g id="node5" class="node">
<title>src/types.ts</title>
<polygon fill="#ffff99" stroke="#000000" points="1332.8036,-335 1274.0216,-335 1274.0216,-299 1332.8036,-299 1332.8036,-335"/>
<text text-anchor="middle" x="1303.4126" y="-312.8" font-family="Times,serif" font-size="14.00" fill="#000000">types.ts</text>
</g>
<!-- src/analyzeFiles/decorateRequire.ts -->
<g id="node6" class="node">
<title>src/analyzeFiles/decorateRequire.ts</title>
<polygon fill="#ffff99" stroke="#000000" points="994.9627,-258 874.8361,-258 874.8361,-222 994.9627,-222 994.9627,-258"/>
<text text-anchor="middle" x="934.8994" y="-235.8" font-family="Times,serif" font-size="14.00" fill="#000000">decorateRequire.ts</text>
</g>
<!-- src/analyzeFiles/decorateRequire.ts&#45;&gt;src/types.ts -->
<g id="edge7" class="edge">
<title>src/analyzeFiles/decorateRequire.ts&#45;&gt;src/types.ts</title>
<path fill="none" stroke="#888888" d="M995.1371,-243.4281C1050.2098,-251.2819 1133.8233,-266.8483 1205.9453,-283 1225.183,-287.3083 1246.4004,-292.6764 1264.1136,-298.1036"/>
<polygon fill="#888888" stroke="#888888" points="1263.5055,-301.5838 1274.0965,-301.2984 1265.6391,-294.9169 1263.5055,-301.5838"/>
</g>
<!-- src/analyzeFiles/decorateRequire.ts&#45;&gt;src/types.ts -->
<g id="edge8" class="edge">
<title>src/analyzeFiles/decorateRequire.ts&#45;&gt;src/types.ts</title>
<path fill="none" stroke="#888888" d="M995.1371,-257.4906C1050.2098,-269.2819 1133.8233,-284.8483 1205.9453,-301 1225.183,-305.3083 1246.4004,-310.6764 1264.1136,-314.5616"/>
<polygon fill="#888888" stroke="#888888" points="1263.5905,-318.0281 1274.0965,-316.6587 1265.0296,-311.1776 1263.5905,-318.0281"/>
</g>
<!-- src/analyzeFiles/index.ts -->
<g id="node7" class="node">
<title>src/analyzeFiles/index.ts</title>
<polygon fill="#ffff99" stroke="#000000" points="593.7403,-258 533.8574,-258 533.8574,-222 593.7403,-222 593.7403,-258"/>
<text text-anchor="middle" x="563.7988" y="-235.8" font-family="Times,serif" font-size="14.00" fill="#000000">index.ts</text>
</g>
<!-- src/analyzeFiles/index.ts&#45;&gt;src/types.ts -->
<g id="edge10" class="edge">
<title>src/analyzeFiles/index.ts&#45;&gt;src/types.ts</title>
<path fill="none" stroke="#888888" d="M593.9629,-239.2798C621.7034,-243.0103 664.0055,-251.4985 700.9248,-258 846.7582,-283.6812 883.417,-292.3673 1031.1807,-302 1113.8823,-307.3913 1210.9822,-308.2124 1263.9755,-311.0848"/>
<polygon fill="#888888" stroke="#888888" points="1263.7758,-314.579 1273.9687,-311.6885 1264.198,-307.5917 1263.7758,-314.579"/>
</g>
<!-- src/analyzeFiles/index.ts&#45;&gt;src/types.ts -->
<g id="edge11" class="edge">
<title>src/analyzeFiles/index.ts&#45;&gt;src/types.ts</title>
<path fill="none" stroke="#888888" d="M593.9629,-253.3231C621.7034,-261.0103 664.0055,-269.4985 700.9248,-276 846.7582,-301.6812 883.417,-310.3673 1031.1807,-320 1113.8823,-325.3913 1210.9822,-326.2124 1263.9755,-323.3039"/>
<polygon fill="#888888" stroke="#888888" points="1264.2092,-326.7962 1273.9687,-322.6727 1263.7679,-319.8101 1264.2092,-326.7962"/>
</g>
<!-- src/analyzeFiles/sourceFileAnalyzer.ts -->
<g id="node8" class="node">
<title>src/analyzeFiles/sourceFileAnalyzer.ts</title>
<polygon fill="#ffff99" stroke="#000000" points="838.4652,-258 701.0778,-258 701.0778,-222 838.4652,-222 838.4652,-258"/>
<text text-anchor="middle" x="769.7715" y="-235.8" font-family="Times,serif" font-size="14.00" fill="#000000">sourceFileAnalyzer.ts</text>
</g>
<!-- src/analyzeFiles/index.ts&#45;&gt;src/analyzeFiles/sourceFileAnalyzer.ts -->
<g id="edge9" class="edge">
<title>src/analyzeFiles/index.ts&#45;&gt;src/analyzeFiles/sourceFileAnalyzer.ts</title>
<path fill="none" stroke="#888888" d="M593.749,-240C619.1287,-240 656.7006,-240 690.6219,-240"/>
<polygon fill="#888888" stroke="#888888" points="691.0145,-243.5001 701.0145,-240 691.0144,-236.5001 691.0145,-243.5001"/>
</g>
<!-- src/analyzeFiles/sourceFileAnalyzer.ts&#45;&gt;src/sourceFile.ts -->
<g id="edge12" class="edge">
<title>src/analyzeFiles/sourceFileAnalyzer.ts&#45;&gt;src/sourceFile.ts</title>
<path fill="none" stroke="#888888" d="M831.1517,-258.0653C845.3135,-261.6011 860.3976,-264.8694 874.6182,-267 1097.3691,-300.3742 1196.4298,-160.7328 1380.8799,-290 1427.2531,-322.4995 1443.0763,-391.67 1448.4102,-430.6916"/>
<polygon fill="#888888" stroke="#888888" points="1444.9637,-431.3422 1449.6532,-440.8426 1451.9118,-430.4914 1444.9637,-431.3422"/>
</g>
<!-- src/analyzeFiles/sourceFileAnalyzer.ts&#45;&gt;src/types.ts -->
<g id="edge15" class="edge">
<title>src/analyzeFiles/sourceFileAnalyzer.ts&#45;&gt;src/types.ts</title>
<path fill="none" stroke="#888888" d="M838.662,-250.3332C840.7072,-251.1918 842.7189,-252.0815 844.6836,-253 859.1782,-259.7765 859.5083,-267.7361 874.6182,-273 910.8142,-285.6098 1164.6544,-300.5006 1263.836,-310.5469"/>
<polygon fill="#888888" stroke="#888888" points="1263.7313,-314.0552 1274.0437,-311.6254 1264.4668,-307.094 1263.7313,-314.0552"/>
</g>
<!-- src/analyzeFiles/sourceFileAnalyzer.ts&#45;&gt;src/types.ts -->
<g id="edge16" class="edge">
<title>src/analyzeFiles/sourceFileAnalyzer.ts&#45;&gt;src/types.ts</title>
<path fill="none" stroke="#888888" d="M810.2527,-258.0959C821.6493,-261.7698 833.878,-265.9481 844.6836,-271 859.1782,-277.7765 859.5083,-285.7361 874.6182,-291 910.8142,-303.6098 1164.6544,-318.5006 1263.836,-319.2672"/>
<polygon fill="#888888" stroke="#888888" points="1264.0345,-322.7676 1274.0437,-319.294 1264.0529,-315.7677 1264.0345,-322.7676"/>
</g>
<!-- src/analyzeFiles/sourceFileAnalyzer.ts&#45;&gt;src/analyzeFiles/decorateRequire.ts -->
<g id="edge14" class="edge">
<title>src/analyzeFiles/sourceFileAnalyzer.ts&#45;&gt;src/analyzeFiles/decorateRequire.ts</title>
<path fill="none" stroke="#888888" d="M838.8438,-240C847.326,-240 856.0034,-240 864.5049,-240"/>
<polygon fill="#888888" stroke="#888888" points="864.7626,-243.5001 874.7625,-240 864.7625,-236.5001 864.7626,-243.5001"/>
</g>
<!-- src/analyzeFiles/findRequires/index.ts -->
<g id="node10" class="node">
<title>src/analyzeFiles/findRequires/index.ts</title>
<polygon fill="#ffff99" stroke="#000000" points="964.8408,-184 904.958,-184 904.958,-148 964.8408,-148 964.8408,-184"/>
<text text-anchor="middle" x="934.8994" y="-161.8" font-family="Times,serif" font-size="14.00" fill="#000000">index.ts</text>
</g>
<!-- src/analyzeFiles/sourceFileAnalyzer.ts&#45;&gt;src/analyzeFiles/findRequires/index.ts -->
<g id="edge13" class="edge">
<title>src/analyzeFiles/sourceFileAnalyzer.ts&#45;&gt;src/analyzeFiles/findRequires/index.ts</title>
<path fill="none" stroke="#888888" d="M803.7954,-221.9328C824.0951,-211.4549 850.5297,-198.3317 874.6182,-188 881.1533,-185.197 888.177,-182.4242 895.0394,-179.8406"/>
<polygon fill="#888888" stroke="#888888" points="896.7275,-182.9489 904.9025,-176.2095 894.3091,-176.3799 896.7275,-182.9489"/>
</g>
<!-- src/analyzeFiles/findRequires/coffeescriptRequireFinder.ts -->
<g id="node9" class="node">
<title>src/analyzeFiles/findRequires/coffeescriptRequireFinder.ts</title>
<polygon fill="#ffff99" stroke="#000000" points="1205.8278,-184 1031.2982,-184 1031.2982,-148 1205.8278,-148 1205.8278,-184"/>
<text text-anchor="middle" x="1118.563" y="-161.8" font-family="Times,serif" font-size="14.00" fill="#000000">coffeescriptRequireFinder.ts</text>
</g>
<!-- src/analyzeFiles/findRequires/coffeescriptRequireFinder.ts&#45;&gt;src/types.ts -->
<g id="edge18" class="edge">
<title>src/analyzeFiles/findRequires/coffeescriptRequireFinder.ts&#45;&gt;src/types.ts</title>
<path fill="none" stroke="#888888" d="M1199.4623,-184.1075C1201.6917,-185.3217 1203.8588,-186.6174 1205.9453,-188 1244.795,-213.7425 1274.2496,-260.3551 1290.1544,-289.9388"/>
<polygon fill="#888888" stroke="#888888" points="1287.1028,-291.6563 1294.8369,-298.8974 1293.3065,-288.4137 1287.1028,-291.6563"/>
</g>
<!-- src/analyzeFiles/findRequires/requirePathFilter.ts -->
<g id="node12" class="node">
<title>src/analyzeFiles/findRequires/requirePathFilter.ts</title>
<polygon fill="#ffff99" stroke="#000000" points="1364.8472,-130 1241.978,-130 1241.978,-94 1364.8472,-94 1364.8472,-130"/>
<text text-anchor="middle" x="1303.4126" y="-107.8" font-family="Times,serif" font-size="14.00" fill="#000000">requirePathFilter.ts</text>
</g>
<!-- src/analyzeFiles/findRequires/coffeescriptRequireFinder.ts&#45;&gt;src/analyzeFiles/findRequires/requirePathFilter.ts -->
<g id="edge17" class="edge">
<title>src/analyzeFiles/findRequires/coffeescriptRequireFinder.ts&#45;&gt;src/analyzeFiles/findRequires/requirePathFilter.ts</title>
<path fill="none" stroke="#888888" d="M1180.3722,-147.9437C1196.9543,-143.0996 1215.0187,-137.8225 1232.0715,-132.8408"/>
<polygon fill="#888888" stroke="#888888" points="1233.3589,-136.1111 1241.9762,-129.9474 1231.396,-129.3919 1233.3589,-136.1111"/>
</g>
<!-- src/analyzeFiles/findRequires/index.ts&#45;&gt;src/types.ts -->
<g id="edge22" class="edge">
<title>src/analyzeFiles/findRequires/index.ts&#45;&gt;src/types.ts</title>
<path fill="none" stroke="#888888" d="M965.0696,-175.2334C983.9537,-180.82 1008.8542,-187.8371 1031.1807,-193 1108.1149,-210.7908 1135.501,-189.3209 1205.9453,-225 1237.0989,-240.7789 1265.223,-269.6759 1283.1627,-290.8873"/>
<polygon fill="#888888" stroke="#888888" points="1280.6899,-293.39 1289.7518,-298.8794 1286.091,-288.937 1280.6899,-293.39"/>
</g>
<!-- src/analyzeFiles/findRequires/index.ts&#45;&gt;src/analyzeFiles/findRequires/coffeescriptRequireFinder.ts -->
<g id="edge21" class="edge">
<title>src/analyzeFiles/findRequires/index.ts&#45;&gt;src/analyzeFiles/findRequires/coffeescriptRequireFinder.ts</title>
<path fill="none" stroke="#888888" d="M965.2277,-166C980.7422,-166 1000.5913,-166 1020.8243,-166"/>
<polygon fill="#888888" stroke="#888888" points="1021.0932,-169.5001 1031.0932,-166 1021.0932,-162.5001 1021.0932,-169.5001"/>
</g>
<!-- src/analyzeFiles/findRequires/javascriptRequireFinder.ts -->
<g id="node11" class="node">
<title>src/analyzeFiles/findRequires/javascriptRequireFinder.ts</title>
<polygon fill="#ffff99" stroke="#000000" points="1200.4257,-76 1036.7003,-76 1036.7003,-40 1200.4257,-40 1200.4257,-76"/>
<text text-anchor="middle" x="1118.563" y="-53.8" font-family="Times,serif" font-size="14.00" fill="#000000">javascriptRequireFinder.ts</text>
</g>
<!-- src/analyzeFiles/findRequires/index.ts&#45;&gt;src/analyzeFiles/findRequires/javascriptRequireFinder.ts -->
<g id="edge19" class="edge">
<title>src/analyzeFiles/findRequires/index.ts&#45;&gt;src/analyzeFiles/findRequires/javascriptRequireFinder.ts</title>
<path fill="none" stroke="#888888" d="M952.0817,-147.7751C970.187,-129.5409 1000.3094,-101.8469 1031.1807,-85 1034.271,-83.3136 1037.4814,-81.7168 1040.7681,-80.2066"/>
<polygon fill="#888888" stroke="#888888" points="1042.3753,-83.3261 1050.1956,-76.1781 1039.6246,-76.8891 1042.3753,-83.3261"/>
</g>
<!-- src/analyzeFiles/findRequires/typescriptRequireFinder.ts -->
<g id="node13" class="node">
<title>src/analyzeFiles/findRequires/typescriptRequireFinder.ts</title>
<polygon fill="#ffff99" stroke="#000000" points="1200.7115,-130 1036.4145,-130 1036.4145,-94 1200.7115,-94 1200.7115,-130"/>
<text text-anchor="middle" x="1118.563" y="-107.8" font-family="Times,serif" font-size="14.00" fill="#000000">typescriptRequireFinder.ts</text>
</g>
<!-- src/analyzeFiles/findRequires/index.ts&#45;&gt;src/analyzeFiles/findRequires/typescriptRequireFinder.ts -->
<g id="edge20" class="edge">
<title>src/analyzeFiles/findRequires/index.ts&#45;&gt;src/analyzeFiles/findRequires/typescriptRequireFinder.ts</title>
<path fill="none" stroke="#888888" d="M965.2277,-157.083C987.5571,-150.5178 1018.8651,-141.3127 1047.374,-132.9307"/>
<polygon fill="#888888" stroke="#888888" points="1048.7153,-136.1846 1057.3219,-130.0058 1046.7407,-129.4688 1048.7153,-136.1846"/>
</g>
<!-- src/analyzeFiles/findRequires/javascriptRequireFinder.ts&#45;&gt;src/types.ts -->
<g id="edge24" class="edge">
<title>src/analyzeFiles/findRequires/javascriptRequireFinder.ts&#45;&gt;src/types.ts</title>
<path fill="none" stroke="#888888" d="M1195.2919,-76.2243C1199.1526,-78.7781 1202.7473,-81.687 1205.9453,-85 1248.4755,-129.0603 1217.5359,-161.8368 1241.9453,-218 1253.274,-244.0659 1270.6796,-271.3369 1284.081,-290.6408"/>
<polygon fill="#888888" stroke="#888888" points="1281.2953,-292.7637 1289.9204,-298.9166 1287.0148,-288.728 1281.2953,-292.7637"/>
</g>
<!-- src/analyzeFiles/findRequires/javascriptRequireFinder.ts&#45;&gt;src/analyzeFiles/findRequires/requirePathFilter.ts -->
<g id="edge23" class="edge">
<title>src/analyzeFiles/findRequires/javascriptRequireFinder.ts&#45;&gt;src/analyzeFiles/findRequires/requirePathFilter.ts</title>
<path fill="none" stroke="#888888" d="M1180.3722,-76.0563C1196.9543,-80.9004 1215.0187,-86.1775 1232.0715,-91.1592"/>
<polygon fill="#888888" stroke="#888888" points="1231.396,-94.6081 1241.9762,-94.0526 1233.3589,-87.8889 1231.396,-94.6081"/>
</g>
<!-- src/analyzeFiles/findRequires/typescriptRequireFinder.ts&#45;&gt;src/types.ts -->
<g id="edge26" class="edge">
<title>src/analyzeFiles/findRequires/typescriptRequireFinder.ts&#45;&gt;src/types.ts</title>
<path fill="none" stroke="#888888" d="M1193.4278,-130.1318C1197.9036,-132.7053 1202.1302,-135.6441 1205.9453,-139 1234.9167,-164.4842 1223.7316,-183.9845 1241.9453,-218 1255.4442,-243.2101 1272.7759,-270.7631 1285.5924,-290.3857"/>
<polygon fill="#888888" stroke="#888888" points="1282.7127,-292.3767 1291.1334,-298.8066 1288.5604,-288.5289 1282.7127,-292.3767"/>
</g>
<!-- src/analyzeFiles/findRequires/typescriptRequireFinder.ts&#45;&gt;src/analyzeFiles/findRequires/requirePathFilter.ts -->
<g id="edge25" class="edge">
<title>src/analyzeFiles/findRequires/typescriptRequireFinder.ts&#45;&gt;src/analyzeFiles/findRequires/requirePathFilter.ts</title>
<path fill="none" stroke="#888888" d="M1200.7172,-112C1211.0586,-112 1221.5737,-112 1231.7359,-112"/>
<polygon fill="#888888" stroke="#888888" points="1231.761,-115.5001 1241.761,-112 1231.761,-108.5001 1231.761,-115.5001"/>
</g>
<!-- src/buildJob/index.ts&#45;&gt;src/types.ts -->
<g id="edge28" class="edge">
<title>src/buildJob/index.ts&#45;&gt;src/types.ts</title>
<path fill="none" stroke="#888888" d="M217.0987,-269.7749C237.4112,-275.8796 264.8994,-283.2663 289.7383,-287 371.2767,-299.2564 948.7442,-316.2774 1031.1807,-318 1113.8476,-319.7274 1210.6648,-318.6268 1263.6851,-317.7567"/>
<polygon fill="#888888" stroke="#888888" points="1264.0618,-321.2509 1274.0007,-317.5812 1263.9426,-314.2519 1264.0618,-321.2509"/>
</g>
<!-- src/buildJob/readIgnores.ts -->
<g id="node15" class="node">
<title>src/buildJob/readIgnores.ts</title>
<polygon fill="#ffff99" stroke="#000000" points="405.6197,-278 310.7915,-278 310.7915,-242 405.6197,-242 405.6197,-278"/>
<text text-anchor="middle" x="358.2056" y="-255.8" font-family="Times,serif" font-size="14.00" fill="#000000">readIgnores.ts</text>
</g>
<!-- src/buildJob/index.ts&#45;&gt;src/buildJob/readIgnores.ts -->
<g id="edge27" class="edge">
<title>src/buildJob/index.ts&#45;&gt;src/buildJob/readIgnores.ts</title>
<path fill="none" stroke="#888888" d="M217.0821,-260C240.1021,-260 272.4784,-260 300.4146,-260"/>
<polygon fill="#888888" stroke="#888888" points="300.4805,-263.5001 310.4804,-260 300.4804,-256.5001 300.4805,-263.5001"/>
</g>
<!-- src/findChangedRequires/changedRequiresForSingleFile.ts -->
<g id="node16" class="node">
<title>src/findChangedRequires/changedRequiresForSingleFile.ts</title>
<polygon fill="#ffff99" stroke="#000000" points="665.0509,-520 462.5467,-520 462.5467,-484 665.0509,-484 665.0509,-520"/>
<text text-anchor="middle" x="563.7988" y="-497.8" font-family="Times,serif" font-size="14.00" fill="#000000">changedRequiresForSingleFile.ts</text>
</g>
<!-- src/findChangedRequires/changedRequiresForSingleFile.ts&#45;&gt;src/types.ts -->
<g id="edge31" class="edge">
<title>src/findChangedRequires/changedRequiresForSingleFile.ts&#45;&gt;src/types.ts</title>
<path fill="none" stroke="#888888" d="M665.1305,-492.7216C844.5802,-476.2219 1200.066,-443.2003 1205.9453,-440 1245.5052,-418.4666 1274.6167,-373.4532 1290.2777,-344.2637"/>
<polygon fill="#888888" stroke="#888888" points="1293.5708,-345.5164 1295.0689,-335.028 1287.3571,-342.293 1293.5708,-345.5164"/>
</g>
<!-- src/findChangedRequires/fileInfo.ts -->
<g id="node17" class="node">
<title>src/findChangedRequires/fileInfo.ts</title>
<polygon fill="#ffff99" stroke="#000000" points="804.8233,-540 734.7197,-540 734.7197,-504 804.8233,-504 804.8233,-540"/>
<text text-anchor="middle" x="769.7715" y="-517.8" font-family="Times,serif" font-size="14.00" fill="#000000">fileInfo.ts</text>
</g>
<!-- src/findChangedRequires/changedRequiresForSingleFile.ts&#45;&gt;src/findChangedRequires/fileInfo.ts -->
<g id="edge29" class="edge">
<title>src/findChangedRequires/changedRequiresForSingleFile.ts&#45;&gt;src/findChangedRequires/fileInfo.ts</title>
<path fill="none" stroke="#888888" d="M664.9749,-511.8242C685.8962,-513.8557 706.9172,-515.8968 724.5828,-517.6122"/>
<polygon fill="#888888" stroke="#888888" points="724.2787,-521.099 734.5702,-518.5819 724.9553,-514.1318 724.2787,-521.099"/>
</g>
<!-- src/findChangedRequires/types.ts -->
<g id="node21" class="node">
<title>src/findChangedRequires/types.ts</title>
<polygon fill="#ffff99" stroke="#000000" points="799.1624,-594 740.3805,-594 740.3805,-558 799.1624,-558 799.1624,-594"/>
<text text-anchor="middle" x="769.7715" y="-571.8" font-family="Times,serif" font-size="14.00" fill="#000000">types.ts</text>
</g>
<!-- src/findChangedRequires/changedRequiresForSingleFile.ts&#45;&gt;src/findChangedRequires/types.ts -->
<g id="edge30" class="edge">
<title>src/findChangedRequires/changedRequiresForSingleFile.ts&#45;&gt;src/findChangedRequires/types.ts</title>
<path fill="none" stroke="#888888" d="M639.5761,-520.0367C648.228,-522.7408 656.8377,-525.7323 664.9248,-529 681.8952,-535.8571 684.3681,-541.1969 700.9248,-549 710.419,-553.4746 720.8702,-557.8447 730.699,-561.7208"/>
<polygon fill="#888888" stroke="#888888" points="729.6725,-565.0763 740.2618,-565.4177 732.1966,-558.5472 729.6725,-565.0763"/>
</g>
<!-- src/findChangedRequires/fileLocationCalculator.ts -->
<g id="node18" class="node">
<title>src/findChangedRequires/fileLocationCalculator.ts</title>
<polygon fill="#ffff99" stroke="#000000" points="640.8301,-574 486.7676,-574 486.7676,-538 640.8301,-538 640.8301,-574"/>
<text text-anchor="middle" x="563.7988" y="-551.8" font-family="Times,serif" font-size="14.00" fill="#000000">fileLocationCalculator.ts</text>
</g>
<!-- src/findChangedRequires/fileLocationCalculator.ts&#45;&gt;src/findChangedRequires/fileInfo.ts -->
<g id="edge32" class="edge">
<title>src/findChangedRequires/fileLocationCalculator.ts&#45;&gt;src/findChangedRequires/fileInfo.ts</title>
<path fill="none" stroke="#888888" d="M641.0815,-543.2429C669.2483,-538.5934 700.1556,-533.4915 724.6199,-529.4532"/>
<polygon fill="#888888" stroke="#888888" points="725.3869,-532.874 734.6834,-527.792 724.2468,-525.9675 725.3869,-532.874"/>
</g>
<!-- src/findChangedRequires/fileLocationCalculator.ts&#45;&gt;src/findChangedRequires/types.ts -->
<g id="edge33" class="edge">
<title>src/findChangedRequires/fileLocationCalculator.ts&#45;&gt;src/findChangedRequires/types.ts</title>
<path fill="none" stroke="#888888" d="M641.0815,-563.5042C671.4458,-566.4525 704.9947,-569.7102 730.2236,-572.1599"/>
<polygon fill="#888888" stroke="#888888" points="730.2015,-575.6741 740.493,-573.1571 730.8781,-568.7069 730.2015,-575.6741"/>
</g>
<!-- src/findChangedRequires/fileMoveCalculator.ts -->
<g id="node19" class="node">
<title>src/findChangedRequires/fileMoveCalculator.ts</title>
<polygon fill="#ffff99" stroke="#000000" points="426.6402,-520 289.771,-520 289.771,-484 426.6402,-484 426.6402,-520"/>
<text text-anchor="middle" x="358.2056" y="-497.8" font-family="Times,serif" font-size="14.00" fill="#000000">fileMoveCalculator.ts</text>
</g>
<!-- src/findChangedRequires/fileMoveCalculator.ts&#45;&gt;src/types.ts -->
<g id="edge36" class="edge">
<title>src/findChangedRequires/fileMoveCalculator.ts&#45;&gt;src/types.ts</title>
<path fill="none" stroke="#888888" d="M390.7726,-483.8998C411.199,-476.6654 438.2091,-469.5994 462.6729,-466 630.7765,-441.2668 675.5833,-467.6026 844.6836,-451 885.1259,-447.0293 1169.1745,-411.299 1205.9453,-394 1232.389,-381.5595 1257.0203,-359.6984 1274.9062,-342.2962"/>
<polygon fill="#888888" stroke="#888888" points="1277.4861,-344.6675 1282.1442,-335.1516 1272.5686,-339.6857 1277.4861,-344.6675"/>
</g>
<!-- src/findChangedRequires/fileMoveCalculator.ts&#45;&gt;src/types.ts -->
<g id="edge37" class="edge">
<title>src/findChangedRequires/fileMoveCalculator.ts&#45;&gt;src/types.ts</title>
<path fill="none" stroke="#888888" d="M426.8977,-490.8958C438.7411,-488.2254 450.997,-485.7179 462.6729,-484 630.7765,-459.2668 675.5833,-485.6026 844.6836,-469 885.1259,-465.0293 1169.1745,-429.299 1205.9453,-412 1239.2615,-396.3262 1269.701,-365.699 1287.398,-343.2154"/>
<polygon fill="#888888" stroke="#888888" points="1290.3278,-345.1427 1293.536,-335.0453 1284.7312,-340.9381 1290.3278,-345.1427"/>
</g>
<!-- src/findChangedRequires/fileMoveCalculator.ts&#45;&gt;src/findChangedRequires/changedRequiresForSingleFile.ts -->
<g id="edge34" class="edge">
<title>src/findChangedRequires/fileMoveCalculator.ts&#45;&gt;src/findChangedRequires/changedRequiresForSingleFile.ts</title>
<path fill="none" stroke="#888888" d="M426.6651,-502C434.977,-502 443.6272,-502 452.3612,-502"/>
<polygon fill="#888888" stroke="#888888" points="452.6374,-505.5001 462.6374,-502 452.6373,-498.5001 452.6374,-505.5001"/>
</g>
<!-- src/findChangedRequires/fileMoveCalculator.ts&#45;&gt;src/findChangedRequires/types.ts -->
<g id="edge35" class="edge">
<title>src/findChangedRequires/fileMoveCalculator.ts&#45;&gt;src/findChangedRequires/types.ts</title>
<path fill="none" stroke="#888888" d="M421.1263,-520.0844C423.0511,-521.3065 424.907,-522.6099 426.6729,-524 450.8091,-543.0012 435.8858,-567.9648 462.6729,-583 507.3857,-608.0966 658.1975,-591.5414 730.4892,-581.7474"/>
<polygon fill="#888888" stroke="#888888" points="731.1358,-585.1914 740.5634,-580.3572 730.1788,-578.2571 731.1358,-585.1914"/>
</g>
<!-- src/findChangedRequires/index.ts&#45;&gt;src/types.ts -->
<g id="edge41" class="edge">
<title>src/findChangedRequires/index.ts&#45;&gt;src/types.ts</title>
<path fill="none" stroke="#888888" d="M190.9411,-483.8875C200.5959,-446.0608 228.6956,-359.2652 289.7383,-324 291.1156,-323.2043 1204.3555,-323.0498 1205.9453,-323 1225.0682,-322.4015 1246.2719,-321.1647 1264.0058,-319.9687"/>
<polygon fill="#888888" stroke="#888888" points="1264.2709,-323.4588 1274.0044,-319.2743 1263.7859,-316.4756 1264.2709,-323.4588"/>
</g>
<!-- src/findChangedRequires/index.ts&#45;&gt;src/findChangedRequires/fileLocationCalculator.ts -->
<g id="edge38" class="edge">
<title>src/findChangedRequires/index.ts&#45;&gt;src/findChangedRequires/fileLocationCalculator.ts</title>
<path fill="none" stroke="#888888" d="M217.1746,-511.3141C237.5191,-517.2242 265.0146,-524.5673 289.7383,-529 351.6331,-540.0972 422.2684,-546.9184 476.3258,-550.9282"/>
<polygon fill="#888888" stroke="#888888" points="476.3378,-554.4382 486.5643,-551.6689 476.8429,-547.4564 476.3378,-554.4382"/>
</g>
<!-- src/findChangedRequires/index.ts&#45;&gt;src/findChangedRequires/fileMoveCalculator.ts -->
<g id="edge40" class="edge">
<title>src/findChangedRequires/index.ts&#45;&gt;src/findChangedRequires/fileMoveCalculator.ts</title>
<path fill="none" stroke="#888888" d="M217.0821,-502C234.4968,-502 257.2662,-502 279.4171,-502"/>
<polygon fill="#888888" stroke="#888888" points="279.5296,-505.5001 289.5295,-502 279.5295,-498.5001 279.5296,-505.5001"/>
</g>
<!-- src/findChangedRequires/index.ts&#45;&gt;src/findSourceFiles/index.ts -->
<g id="edge39" class="edge">
<title>src/findChangedRequires/index.ts&#45;&gt;src/findSourceFiles/index.ts</title>
<path fill="none" stroke="#888888" d="M217.0308,-495.1313C228.9751,-491.6483 242.5051,-486.7049 253.7383,-480 286.4145,-460.4961 317.1847,-429.1605 336.7521,-406.9735"/>
<polygon fill="#888888" stroke="#888888" points="339.5376,-409.1033 343.437,-399.2522 334.2454,-404.5215 339.5376,-409.1033"/>
</g>
<!-- src/findSourceFiles/excludedPathFilter.ts -->
<g id="node22" class="node">
<title>src/findSourceFiles/excludedPathFilter.ts</title>
<polygon fill="#ffff99" stroke="#000000" points="836.5958,-376 702.9472,-376 702.9472,-340 836.5958,-340 836.5958,-376"/>
<text text-anchor="middle" x="769.7715" y="-353.8" font-family="Times,serif" font-size="14.00" fill="#000000">excludedPathFilter.ts</text>
</g>
<!-- src/findSourceFiles/filterExcludedFiles.ts -->
<g id="node23" class="node">
<title>src/findSourceFiles/filterExcludedFiles.ts</title>
<polygon fill="#ffff99" stroke="#000000" points="631.6753,-426 495.9223,-426 495.9223,-390 631.6753,-390 631.6753,-426"/>
<text text-anchor="middle" x="563.7988" y="-403.8" font-family="Times,serif" font-size="14.00" fill="#000000">filterExcludedFiles.ts</text>
</g>
<!-- src/findSourceFiles/filterExcludedFiles.ts&#45;&gt;src/types.ts -->
<g id="edge43" class="edge">
<title>src/findSourceFiles/filterExcludedFiles.ts&#45;&gt;src/types.ts</title>
<path fill="none" stroke="#888888" d="M631.6335,-411.05C750.1931,-414.6455 1001.9155,-414.5375 1205.9453,-362 1226.1997,-356.7845 1247.4257,-347.4945 1264.8795,-338.7044"/>
<polygon fill="#888888" stroke="#888888" points="1266.8861,-341.6068 1274.1578,-333.9014 1263.6681,-335.3903 1266.8861,-341.6068"/>
</g>
<!-- src/findSourceFiles/filterExcludedFiles.ts&#45;&gt;src/findSourceFiles/excludedPathFilter.ts -->
<g id="edge42" class="edge">
<title>src/findSourceFiles/filterExcludedFiles.ts&#45;&gt;src/findSourceFiles/excludedPathFilter.ts</title>
<path fill="none" stroke="#888888" d="M631.5273,-391.5589C651.1762,-386.7891 672.7724,-381.5466 692.9363,-376.6518"/>
<polygon fill="#888888" stroke="#888888" points="693.813,-380.0407 702.7051,-374.2804 692.1617,-373.2383 693.813,-380.0407"/>
</g>
<!-- src/findSourceFiles/findFiles.ts -->
<g id="node24" class="node">
<title>src/findSourceFiles/findFiles.ts</title>
<polygon fill="#ffff99" stroke="#000000" points="602.6505,-372 524.9471,-372 524.9471,-336 602.6505,-336 602.6505,-372"/>
<text text-anchor="middle" x="563.7988" y="-349.8" font-family="Times,serif" font-size="14.00" fill="#000000">findFiles.ts</text>
</g>
<!-- src/findSourceFiles/index.ts&#45;&gt;src/types.ts -->
<g id="edge47" class="edge">
<title>src/findSourceFiles/index.ts&#45;&gt;src/types.ts</title>
<path fill="none" stroke="#888888" d="M384.7175,-399.2434C405.0319,-412.0605 434.3041,-428.1015 462.6729,-435 550.0173,-456.2396 575.1098,-438.6653 664.9248,-435 785.6052,-430.0751 1092.7648,-425.1685 1205.9453,-383 1231.3534,-373.5335 1256.6056,-356.1511 1275.0385,-341.6009"/>
<polygon fill="#888888" stroke="#888888" points="1277.433,-344.1656 1283.0039,-335.1536 1273.029,-338.7246 1277.433,-344.1656"/>
</g>
<!-- src/findSourceFiles/index.ts&#45;&gt;src/analyzeFiles/index.ts -->
<g id="edge44" class="edge">
<title>src/findSourceFiles/index.ts&#45;&gt;src/analyzeFiles/index.ts</title>
<path fill="none" stroke="#888888" d="M384.6624,-362.8554C421.5175,-337.5794 488.3647,-291.7342 529.155,-263.7594"/>
<polygon fill="#888888" stroke="#888888" points="531.1762,-266.6173 537.4435,-258.075 527.2171,-260.8445 531.1762,-266.6173"/>
</g>
<!-- src/findSourceFiles/index.ts&#45;&gt;src/findSourceFiles/filterExcludedFiles.ts -->
<g id="edge46" class="edge">
<title>src/findSourceFiles/index.ts&#45;&gt;src/findSourceFiles/filterExcludedFiles.ts</title>
<path fill="none" stroke="#888888" d="M388.5416,-384.9839C414.1605,-388.3484 451.9962,-393.3173 485.9623,-397.7779"/>
<polygon fill="#888888" stroke="#888888" points="485.5217,-401.25 495.8923,-399.082 486.4332,-394.3096 485.5217,-401.25"/>
</g>
<!-- src/findSourceFiles/index.ts&#45;&gt;src/findSourceFiles/findFiles.ts -->
<g id="edge45" class="edge">
<title>src/findSourceFiles/index.ts&#45;&gt;src/findSourceFiles/findFiles.ts</title>
<path fill="none" stroke="#888888" d="M388.5416,-377.0161C421.7629,-372.6532 475.5276,-365.5924 514.7579,-360.4404"/>
<polygon fill="#888888" stroke="#888888" points="515.4426,-363.8806 524.9017,-359.1082 514.5311,-356.9402 515.4426,-363.8806"/>
</g>
<!-- src/handleFileChanges/applyChanges.ts -->
<g id="node26" class="node">
<title>src/handleFileChanges/applyChanges.ts</title>
<polygon fill="#ffff99" stroke="#000000" points="1172.7184,-584 1064.4076,-584 1064.4076,-548 1172.7184,-548 1172.7184,-584"/>
<text text-anchor="middle" x="1118.563" y="-561.8" font-family="Times,serif" font-size="14.00" fill="#000000">applyChanges.ts</text>
</g>
<!-- src/handleFileChanges/applyChanges.ts&#45;&gt;src/types.ts -->
<g id="edge50" class="edge">
<title>src/handleFileChanges/applyChanges.ts&#45;&gt;src/types.ts</title>
<path fill="none" stroke="#888888" d="M1172.6923,-557.1017C1184.6797,-553.1177 1196.5845,-547.35 1205.9453,-539 1236.4244,-511.8121 1276.7033,-398.2719 1294.4096,-344.9227"/>
<polygon fill="#888888" stroke="#888888" points="1297.841,-345.6918 1297.6403,-335.0989 1291.1914,-343.505 1297.841,-345.6918"/>
</g>
<!-- src/handleFileChanges/applyToFile.ts -->
<g id="node27" class="node">
<title>src/handleFileChanges/applyToFile.ts</title>
<polygon fill="#ffff99" stroke="#000000" points="1351.708,-531 1255.1172,-531 1255.1172,-495 1351.708,-495 1351.708,-531"/>
<text text-anchor="middle" x="1303.4126" y="-508.8" font-family="Times,serif" font-size="14.00" fill="#000000">applyToFile.ts</text>
</g>
<!-- src/handleFileChanges/applyChanges.ts&#45;&gt;src/handleFileChanges/applyToFile.ts -->
<g id="edge48" class="edge">
<title>src/handleFileChanges/applyChanges.ts&#45;&gt;src/handleFileChanges/applyToFile.ts</title>
<path fill="none" stroke="#888888" d="M1173.0242,-550.3849C1195.7611,-543.8658 1222.2081,-536.2829 1245.3174,-529.657"/>
<polygon fill="#888888" stroke="#888888" points="1246.3485,-533.0025 1254.9965,-526.8818 1244.4191,-526.2736 1246.3485,-533.0025"/>
</g>
<!-- src/handleFileChanges/printChanges.ts -->
<g id="node32" class="node">
<title>src/handleFileChanges/printChanges.ts</title>
<polygon fill="#ffff99" stroke="#000000" points="1355.4069,-585 1251.4183,-585 1251.4183,-549 1355.4069,-549 1355.4069,-585"/>
<text text-anchor="middle" x="1303.4126" y="-562.8" font-family="Times,serif" font-size="14.00" fill="#000000">printChanges.ts</text>
</g>
<!-- src/handleFileChanges/applyChanges.ts&#45;&gt;src/handleFileChanges/printChanges.ts -->
<g id="edge49" class="edge">
<title>src/handleFileChanges/applyChanges.ts&#45;&gt;src/handleFileChanges/printChanges.ts</title>
<path fill="none" stroke="#888888" d="M1173.0242,-566.2946C1194.4453,-566.4105 1219.1595,-566.5442 1241.2731,-566.6638"/>
<polygon fill="#888888" stroke="#888888" points="1241.5417,-570.1652 1251.5605,-566.7195 1241.5797,-563.1653 1241.5417,-570.1652"/>
</g>
<!-- src/handleFileChanges/applyToFile.ts&#45;&gt;src/sourceFile.ts -->
<g id="edge53" class="edge">
<title>src/handleFileChanges/applyToFile.ts&#45;&gt;src/sourceFile.ts</title>
<path fill="none" stroke="#888888" d="M1351.7119,-500.5034C1361.4551,-497.6419 1371.5628,-494.4246 1380.8799,-491 1381.5998,-490.7354 1390.7985,-486.5596 1402.3133,-481.3068"/>
<polygon fill="#888888" stroke="#888888" points="1403.8251,-484.4641 1411.4681,-477.1269 1400.9177,-478.0964 1403.8251,-484.4641"/>
</g>
<!-- src/handleFileChanges/editLine.ts -->
<g id="node29" class="node">
<title>src/handleFileChanges/editLine.ts</title>
<polygon fill="#ffff99" stroke="#000000" points="1489.0558,-585 1413.08,-585 1413.08,-549 1489.0558,-549 1489.0558,-585"/>
<text text-anchor="middle" x="1451.0679" y="-562.8" font-family="Times,serif" font-size="14.00" fill="#000000">editLine.ts</text>
</g>
<!-- src/handleFileChanges/applyToFile.ts&#45;&gt;src/handleFileChanges/editLine.ts -->
<g id="edge52" class="edge">
<title>src/handleFileChanges/applyToFile.ts&#45;&gt;src/handleFileChanges/editLine.ts</title>
<path fill="none" stroke="#888888" d="M1351.8464,-529.6145C1361.4852,-532.9959 1371.5189,-536.5692 1380.8799,-540 1388.2925,-542.7167 1396.1193,-545.6565 1403.7511,-548.5623"/>
<polygon fill="#888888" stroke="#888888" points="1402.6774,-551.8989 1413.2678,-552.2055 1405.1801,-545.3616 1402.6774,-551.8989"/>
</g>
<!-- src/handleFileChanges/getLineEdits.ts -->
<g id="node30" class="node">
<title>src/handleFileChanges/getLineEdits.ts</title>
<polygon fill="#ffff99" stroke="#000000" points="1501.4446,-531 1400.6912,-531 1400.6912,-495 1501.4446,-495 1501.4446,-531"/>
<text text-anchor="middle" x="1451.0679" y="-508.8" font-family="Times,serif" font-size="14.00" fill="#000000">getLineEdits.ts</text>
</g>
<!-- src/handleFileChanges/applyToFile.ts&#45;&gt;src/handleFileChanges/getLineEdits.ts -->
<g id="edge51" class="edge">
<title>src/handleFileChanges/applyToFile.ts&#45;&gt;src/handleFileChanges/getLineEdits.ts</title>
<path fill="none" stroke="#888888" d="M1351.7605,-513C1364.1708,-513 1377.6759,-513 1390.6142,-513"/>
<polygon fill="#888888" stroke="#888888" points="1390.8371,-516.5001 1400.8371,-513 1390.837,-509.5001 1390.8371,-516.5001"/>
</g>
<!-- src/handleFileChanges/checkForErrors.ts -->
<g id="node28" class="node">
<title>src/handleFileChanges/checkForErrors.ts</title>
<polygon fill="#ffff99" stroke="#000000" points="1176.4771,-530 1060.6489,-530 1060.6489,-494 1176.4771,-494 1176.4771,-530"/>
<text text-anchor="middle" x="1118.563" y="-507.8" font-family="Times,serif" font-size="14.00" fill="#000000">checkForErrors.ts</text>
</g>
<!-- src/handleFileChanges/checkForErrors.ts&#45;&gt;src/types.ts -->
<g id="edge54" class="edge">
<title>src/handleFileChanges/checkForErrors.ts&#45;&gt;src/types.ts</title>
<path fill="none" stroke="#888888" d="M1176.5904,-504.4202C1187.064,-501.1693 1197.3664,-496.5513 1205.9453,-490 1254.8633,-452.6435 1282.9569,-383.2435 1295.4788,-344.6681"/>
<polygon fill="#888888" stroke="#888888" points="1298.8236,-345.6987 1298.4664,-335.1099 1292.1423,-343.6103 1298.8236,-345.6987"/>
</g>
<!-- src/handleFileChanges/index.ts&#45;&gt;src/types.ts -->
<g id="edge58" class="edge">
<title>src/handleFileChanges/index.ts&#45;&gt;src/types.ts</title>
<path fill="none" stroke="#888888" d="M964.8632,-559.4141C975.2581,-556.0601 986.4771,-551.1314 995.1807,-544 1018.9415,-524.5314 1005.5284,-501.8987 1031.1807,-485 1096.7047,-441.8354 1139.3545,-501.4999 1205.9453,-460 1249.6192,-432.7821 1278.4829,-377.9713 1292.8038,-344.6747"/>
<polygon fill="#888888" stroke="#888888" points="1296.1824,-345.6643 1296.7816,-335.0864 1289.7167,-342.9819 1296.1824,-345.6643"/>
</g>
<!-- src/handleFileChanges/index.ts&#45;&gt;src/handleFileChanges/applyChanges.ts -->
<g id="edge57" class="edge">
<title>src/handleFileChanges/index.ts&#45;&gt;src/handleFileChanges/applyChanges.ts</title>
<path fill="none" stroke="#888888" d="M965.2277,-566C989.3938,-566 1024.0765,-566 1054.3458,-566"/>
<polygon fill="#888888" stroke="#888888" points="1054.4203,-569.5001 1064.4203,-566 1054.4202,-562.5001 1054.4203,-569.5001"/>
</g>
<!-- src/handleFileChanges/index.ts&#45;&gt;src/handleFileChanges/checkForErrors.ts -->
<g id="edge55" class="edge">
<title>src/handleFileChanges/index.ts&#45;&gt;src/handleFileChanges/checkForErrors.ts</title>
<path fill="none" stroke="#888888" d="M965.2277,-557.083C988.3869,-550.2738 1021.2045,-540.6249 1050.5402,-531.9998"/>
<polygon fill="#888888" stroke="#888888" points="1051.7297,-535.2983 1060.3364,-529.1195 1049.7552,-528.5825 1051.7297,-535.2983"/>
</g>
<!-- src/handleFileChanges/index.ts&#45;&gt;src/handleFileChanges/printChanges.ts -->
<g id="edge56" class="edge">
<title>src/handleFileChanges/index.ts&#45;&gt;src/handleFileChanges/printChanges.ts</title>
<path fill="none" stroke="#888888" d="M965.2333,-576.8087C983.967,-582.9033 1008.6508,-589.9008 1031.1807,-593 1108.1292,-603.5851 1128.931,-603.0955 1205.9453,-593 1217.68,-591.4618 1230.0111,-588.9238 1241.8062,-586.0212"/>
<polygon fill="#888888" stroke="#888888" points="1242.7505,-589.3924 1251.5631,-583.5112 1241.0064,-582.6131 1242.7505,-589.3924"/>
</g>
<!-- src/handleFileChanges/printChanges.ts&#45;&gt;src/sourceFile.ts -->
<g id="edge59" class="edge">
<title>src/handleFileChanges/printChanges.ts&#45;&gt;src/sourceFile.ts</title>
<path fill="none" stroke="#888888" d="M1355.5251,-556.1352C1364.8606,-552.2798 1373.8418,-547.0614 1380.8799,-540 1398.0987,-522.7241 1385.8588,-506.108 1400.7934,-484.147"/>
<polygon fill="#888888" stroke="#888888" points="1403.7064,-486.1124 1407.3021,-476.1463 1398.2763,-481.6949 1403.7064,-486.1124"/>
</g>
<!-- src/handleFileChanges/printChanges.ts&#45;&gt;src/handleFileChanges/editLine.ts -->
<g id="edge60" class="edge">
<title>src/handleFileChanges/printChanges.ts&#45;&gt;src/handleFileChanges/editLine.ts</title>
<path fill="none" stroke="#888888" d="M1355.4703,-567C1370.8514,-567 1387.6171,-567 1402.7517,-567"/>
<polygon fill="#888888" stroke="#888888" points="1402.932,-570.5001 1412.932,-567 1402.932,-563.5001 1402.932,-570.5001"/>
</g>
<!-- src/handleFileChanges/printChanges.ts&#45;&gt;src/handleFileChanges/getLineEdits.ts -->
<g id="edge61" class="edge">
<title>src/handleFileChanges/printChanges.ts&#45;&gt;src/handleFileChanges/getLineEdits.ts</title>
<path fill="none" stroke="#888888" d="M1355.165,-549.2192C1363.7698,-546.1892 1372.5887,-543.0387 1380.8799,-540 1385.586,-538.2752 1390.4591,-536.4605 1395.3433,-534.6217"/>
<polygon fill="#888888" stroke="#888888" points="1396.5974,-537.8894 1404.7084,-531.073 1394.117,-531.3435 1396.5974,-537.8894"/>
</g>
</g>
</svg>
