<?xml version="1.0" encoding="UTF-8" standalone="no"?>
<!DOCTYPE svg PUBLIC "-//W3C//DTD SVG 1.1//EN"
 "http://www.w3.org/Graphics/SVG/1.1/DTD/svg11.dtd">
<!-- Generated by graphviz version 2.44.1 (20200629.0846)
 -->
<!-- Title: Files Pages: 1 -->
<svg width="1608pt" height="867pt"
 viewBox="0.00 0.00 1608.00 866.89" xmlns="http://www.w3.org/2000/svg" xmlns:xlink="http://www.w3.org/1999/xlink">
<g id="graph0" class="graph" transform="scale(1 1) rotate(0) translate(4 862.89)">
<title>Files</title>
<polygon fill="white" stroke="transparent" points="-4,4 -4,-862.89 1604,-862.89 1604,4 -4,4"/>
<g id="clust1" class="cluster">
<title>cluster_0</title>
<polygon fill="#ffeedd" stroke="black" stroke-width="0.5" points="8,-43.89 8,-850.89 1592,-850.89 1592,-43.89 8,-43.89"/>
<text text-anchor="middle" x="800" y="-835.69" font-family="Times,serif" font-size="14.00">/Users/dave/src/dmf/node&#45;trucker/</text>
</g>
<g id="clust2" class="cluster">
<title>cluster_1</title>
<polygon fill="#eeddff" stroke="black" stroke-width="0.5" points="16,-51.89 16,-819.89 1584,-819.89 1584,-51.89 16,-51.89"/>
<text text-anchor="middle" x="800" y="-804.69" font-family="Times,serif" font-size="14.00">src/</text>
</g>
<g id="clust3" class="cluster">
<title>cluster_2</title>
<polygon fill="#ddffee" stroke="black" stroke-width="0.5" points="517,-89.89 517,-440.89 1301,-440.89 1301,-89.89 517,-89.89"/>
<text text-anchor="middle" x="909" y="-425.69" font-family="Times,serif" font-size="14.00">src/analyzeFiles/</text>
</g>
<g id="clust4" class="cluster">
<title>cluster_3</title>
<polygon fill="#ffddee" stroke="black" stroke-width="0.5" points="880.5,-97.89 880.5,-365.89 1293,-365.89 1293,-97.89 880.5,-97.89"/>
<text text-anchor="middle" x="1086.75" y="-350.69" font-family="Times,serif" font-size="14.00">src/analyzeFiles/findRequires/</text>
</g>
<g id="clust5" class="cluster">
<title>cluster_4</title>
<polygon fill="#ddeeff" stroke="black" stroke-width="0.5" points="1045,-205.89 1045,-334.89 1281.5,-334.89 1281.5,-205.89 1045,-205.89"/>
<text text-anchor="middle" x="1163.25" y="-319.69" font-family="Times,serif" font-size="14.00">src/analyzeFiles/findRequires/typescript/</text>
</g>
<g id="clust6" class="cluster">
<title>cluster_5</title>
<polygon fill="#ddffee" stroke="black" stroke-width="0.5" points="147,-159.89 147,-234.89 407.5,-234.89 407.5,-159.89 147,-159.89"/>
<text text-anchor="middle" x="277.25" y="-219.69" font-family="Times,serif" font-size="14.00">src/buildJob/</text>
</g>
<g id="clust7" class="cluster">
<title>cluster_6</title>
<polygon fill="#ddffee" stroke="black" stroke-width="0.5" points="147,-629.89 147,-778.89 798.5,-778.89 798.5,-629.89 147,-629.89"/>
<text text-anchor="middle" x="472.75" y="-763.69" font-family="Times,serif" font-size="14.00">src/findChangedRequires/</text>
</g>
<g id="clust8" class="cluster">
<title>cluster_7</title>
<polygon fill="#ddffee" stroke="black" stroke-width="0.5" points="315.5,-460.89 315.5,-589.89 829.5,-589.89 829.5,-460.89 315.5,-460.89"/>
<text text-anchor="middle" x="572.5" y="-574.69" font-family="Times,serif" font-size="14.00">src/findSourceFiles/</text>
</g>
<g id="clust9" class="cluster">
<title>cluster_8</title>
<polygon fill="#ddffee" stroke="black" stroke-width="0.5" points="1045,-639.89 1045,-788.89 1576,-788.89 1576,-639.89 1045,-639.89"/>
<text text-anchor="middle" x="1310.5" y="-773.69" font-family="Times,serif" font-size="14.00">src/handleFileChanges/</text>
</g>
<!-- src/index.ts -->
<g id="node1" class="node">
<title>src/index.ts</title>
<polygon fill="#ffff99" stroke="black" points="83,-292.89 24,-292.89 24,-256.89 83,-256.89 83,-292.89"/>
<text text-anchor="middle" x="53.5" y="-271.19" font-family="Times,serif" font-size="14.00">index.ts</text>
</g>
<!-- src/printDependencies.ts -->
<g id="node2" class="node">
<title>src/printDependencies.ts</title>
<polygon fill="#ffff99" stroke="black" points="250,-95.89 119,-95.89 119,-59.89 250,-59.89 250,-95.89"/>
<text text-anchor="middle" x="184.5" y="-74.19" font-family="Times,serif" font-size="14.00">printDependencies.ts</text>
</g>
<!-- src/index.ts&#45;&gt;src/printDependencies.ts -->
<g id="edge6" class="edge">
<title>src/index.ts&#45;&gt;src/printDependencies.ts</title>
<path fill="none" stroke="#888888" d="M56.64,-256.77C61.58,-222.69 76.76,-148.58 119,-104.89 119.9,-103.96 120.84,-103.06 121.81,-102.18"/>
<polygon fill="#888888" stroke="#888888" points="124,-104.92 129.82,-96.07 119.75,-99.36 124,-104.92"/>
</g>
<!-- src/printUnused.ts -->
<g id="node3" class="node">
<title>src/printUnused.ts</title>
<polygon fill="#ffff99" stroke="black" points="232.5,-149.89 136.5,-149.89 136.5,-113.89 232.5,-113.89 232.5,-149.89"/>
<text text-anchor="middle" x="184.5" y="-128.19" font-family="Times,serif" font-size="14.00">printUnused.ts</text>
</g>
<!-- src/index.ts&#45;&gt;src/printUnused.ts -->
<g id="edge2" class="edge">
<title>src/index.ts&#45;&gt;src/printUnused.ts</title>
<path fill="none" stroke="#888888" d="M59.88,-256.56C68.36,-230.66 87.24,-183.47 119,-155.89 121.65,-153.59 124.54,-151.5 127.59,-149.6"/>
<polygon fill="#888888" stroke="#888888" points="129.38,-152.61 136.49,-144.76 126.03,-146.46 129.38,-152.61"/>
</g>
<!-- src/buildJob/index.ts -->
<g id="node18" class="node">
<title>src/buildJob/index.ts</title>
<polygon fill="#ffff99" stroke="black" points="214,-203.89 155,-203.89 155,-167.89 214,-167.89 214,-203.89"/>
<text text-anchor="middle" x="184.5" y="-182.19" font-family="Times,serif" font-size="14.00">index.ts</text>
</g>
<!-- src/index.ts&#45;&gt;src/buildJob/index.ts -->
<g id="edge1" class="edge">
<title>src/index.ts&#45;&gt;src/buildJob/index.ts</title>
<path fill="none" stroke="#888888" d="M68.01,-256.63C79.93,-241.66 98.57,-220.89 119,-207.89 126.99,-202.81 136.29,-198.75 145.3,-195.58"/>
<polygon fill="#888888" stroke="#888888" points="146.45,-198.89 154.89,-192.48 144.29,-192.23 146.45,-198.89"/>
</g>
<!-- src/findChangedRequires/index.ts -->
<g id="node24" class="node">
<title>src/findChangedRequires/index.ts</title>
<polygon fill="#ffff99" stroke="black" points="214,-673.89 155,-673.89 155,-637.89 214,-637.89 214,-673.89"/>
<text text-anchor="middle" x="184.5" y="-652.19" font-family="Times,serif" font-size="14.00">index.ts</text>
</g>
<!-- src/index.ts&#45;&gt;src/findChangedRequires/index.ts -->
<g id="edge3" class="edge">
<title>src/index.ts&#45;&gt;src/findChangedRequires/index.ts</title>
<path fill="none" stroke="#888888" d="M55.39,-293.26C58.94,-359.04 74.12,-581.66 119,-633.89 125.71,-641.7 135.31,-646.74 145.06,-649.99"/>
<polygon fill="#888888" stroke="#888888" points="144.18,-653.38 154.75,-652.69 146.06,-646.64 144.18,-653.38"/>
</g>
<!-- src/findSourceFiles/index.ts -->
<g id="node29" class="node">
<title>src/findSourceFiles/index.ts</title>
<polygon fill="#ffff99" stroke="black" points="382.5,-504.89 323.5,-504.89 323.5,-468.89 382.5,-468.89 382.5,-504.89"/>
<text text-anchor="middle" x="353" y="-483.19" font-family="Times,serif" font-size="14.00">index.ts</text>
</g>
<!-- src/index.ts&#45;&gt;src/findSourceFiles/index.ts -->
<g id="edge5" class="edge">
<title>src/index.ts&#45;&gt;src/findSourceFiles/index.ts</title>
<path fill="none" stroke="#888888" d="M79.86,-292.97C133.44,-331.14 258.12,-419.99 318.3,-462.88"/>
<polygon fill="#888888" stroke="#888888" points="316.52,-465.91 326.7,-468.86 320.59,-460.21 316.52,-465.91"/>
</g>
<!-- src/handleFileChanges/index.ts -->
<g id="node35" class="node">
<title>src/handleFileChanges/index.ts</title>
<polygon fill="#ffff99" stroke="black" points="1112,-737.89 1053,-737.89 1053,-701.89 1112,-701.89 1112,-737.89"/>
<text text-anchor="middle" x="1082.5" y="-716.19" font-family="Times,serif" font-size="14.00">index.ts</text>
</g>
<!-- src/index.ts&#45;&gt;src/handleFileChanges/index.ts -->
<g id="edge4" class="edge">
<title>src/index.ts&#45;&gt;src/handleFileChanges/index.ts</title>
<path fill="none" stroke="#888888" d="M55.43,-293.09C60.03,-379.92 81.71,-749.32 119,-782.89 195.98,-852.2 248.42,-787.89 352,-787.89 352,-787.89 352,-787.89 757,-787.89 862.29,-787.89 982.79,-753.17 1043,-733.35"/>
<polygon fill="#888888" stroke="#888888" points="1044.46,-736.56 1052.84,-730.07 1042.24,-729.92 1044.46,-736.56"/>
</g>
<!-- src/sourceFile.ts -->
<g id="node4" class="node">
<title>src/sourceFile.ts</title>
<polygon fill="#ffff99" stroke="black" points="1562,-630.89 1476,-630.89 1476,-594.89 1562,-594.89 1562,-630.89"/>
<text text-anchor="middle" x="1519" y="-609.19" font-family="Times,serif" font-size="14.00">sourceFile.ts</text>
</g>
<!-- src/types.ts -->
<g id="node5" class="node">
<title>src/types.ts</title>
<polygon fill="#ffff99" stroke="black" points="1412.5,-486.89 1354.5,-486.89 1354.5,-450.89 1412.5,-450.89 1412.5,-486.89"/>
<text text-anchor="middle" x="1383.5" y="-465.19" font-family="Times,serif" font-size="14.00">types.ts</text>
</g>
<!-- src/analyzeFiles/decorateRequire.ts -->
<g id="node6" class="node">
<title>src/analyzeFiles/decorateRequire.ts</title>
<polygon fill="#ffff99" stroke="black" points="977,-409.89 859,-409.89 859,-373.89 977,-373.89 977,-409.89"/>
<text text-anchor="middle" x="918" y="-388.19" font-family="Times,serif" font-size="14.00">decorateRequire.ts</text>
</g>
<!-- src/analyzeFiles/decorateRequire.ts&#45;&gt;src/types.ts -->
<g id="edge7" class="edge">
<title>src/analyzeFiles/decorateRequire.ts&#45;&gt;src/types.ts</title>
<path fill="none" stroke="#888888" d="M977.31,-405.47C1003.36,-414.07 1029.66,-423.46 1036,-424.89 1093.87,-437.99 1266.67,-451.58 1344.16,-461.26"/>
<polygon fill="#888888" stroke="#888888" points="1344.07,-464.78 1354.44,-462.6 1344.98,-457.84 1344.07,-464.78"/>
</g>
<!-- src/analyzeFiles/decorateRequire.ts&#45;&gt;src/types.ts -->
<g id="edge8" class="edge">
<title>src/analyzeFiles/decorateRequire.ts&#45;&gt;src/types.ts</title>
<path fill="none" stroke="#888888" d="M949.84,-410.01C981.5,-424.15 1027.34,-440.93 1036,-442.89 1093.87,-455.99 1266.67,-469.58 1344.16,-471.15"/>
<polygon fill="#888888" stroke="#888888" points="1344.4,-474.65 1354.44,-471.29 1344.49,-467.65 1344.4,-474.65"/>
</g>
<!-- src/analyzeFiles/index.ts -->
<g id="node7" class="node">
<title>src/analyzeFiles/index.ts</title>
<polygon fill="#ffff99" stroke="black" points="584,-409.89 525,-409.89 525,-373.89 584,-373.89 584,-409.89"/>
<text text-anchor="middle" x="554.5" y="-388.19" font-family="Times,serif" font-size="14.00">index.ts</text>
</g>
<!-- src/analyzeFiles/index.ts&#45;&gt;src/types.ts -->
<g id="edge10" class="edge">
<title>src/analyzeFiles/index.ts&#45;&gt;src/types.ts</title>
<path fill="none" stroke="#888888" d="M584.02,-398.39C610.96,-404.36 652.57,-413.12 689,-418.89 899.14,-452.19 952.43,-460.84 1165,-469.89 1227.74,-472.56 1300.74,-471.34 1344.2,-470.16"/>
<polygon fill="#888888" stroke="#888888" points="1344.43,-473.65 1354.33,-469.87 1344.23,-466.66 1344.43,-473.65"/>
</g>
<!-- src/analyzeFiles/sourceFileAnalyzer.ts -->
<g id="node9" class="node">
<title>src/analyzeFiles/sourceFileAnalyzer.ts</title>
<polygon fill="#ffff99" stroke="black" points="823,-409.89 689,-409.89 689,-373.89 823,-373.89 823,-409.89"/>
<text text-anchor="middle" x="756" y="-388.19" font-family="Times,serif" font-size="14.00">sourceFileAnalyzer.ts</text>
</g>
<!-- src/analyzeFiles/index.ts&#45;&gt;src/analyzeFiles/sourceFileAnalyzer.ts -->
<g id="edge9" class="edge">
<title>src/analyzeFiles/index.ts&#45;&gt;src/analyzeFiles/sourceFileAnalyzer.ts</title>
<path fill="none" stroke="#888888" d="M584.08,-391.89C608.79,-391.89 645.64,-391.89 678.81,-391.89"/>
<polygon fill="#888888" stroke="#888888" points="678.97,-395.39 688.97,-391.89 678.97,-388.39 678.97,-395.39"/>
</g>
<!-- src/analyzeFiles/requireInfo.ts -->
<g id="node8" class="node">
<title>src/analyzeFiles/requireInfo.ts</title>
<polygon fill="#ffff99" stroke="black" points="1270,-409.89 1180,-409.89 1180,-373.89 1270,-373.89 1270,-409.89"/>
<text text-anchor="middle" x="1225" y="-388.19" font-family="Times,serif" font-size="14.00">requireInfo.ts</text>
</g>
<!-- src/analyzeFiles/requireInfo.ts&#45;&gt;src/types.ts -->
<g id="edge11" class="edge">
<title>src/analyzeFiles/requireInfo.ts&#45;&gt;src/types.ts</title>
<path fill="none" stroke="#888888" d="M1270.07,-402.36C1280.44,-405.49 1291.3,-409.33 1301,-413.89 1318.69,-422.21 1336.86,-434.09 1351.55,-444.69"/>
<polygon fill="#888888" stroke="#888888" points="1349.63,-447.62 1359.76,-450.74 1353.79,-441.99 1349.63,-447.62"/>
</g>
<!-- src/analyzeFiles/sourceFileAnalyzer.ts&#45;&gt;src/sourceFile.ts -->
<g id="edge12" class="edge">
<title>src/analyzeFiles/sourceFileAnalyzer.ts&#45;&gt;src/sourceFile.ts</title>
<path fill="none" stroke="#888888" d="M823.06,-376.18C825.4,-374.31 827.57,-372.22 829.5,-369.89 868.83,-322.37 814.35,-136.45 859,-93.89 894.85,-59.72 1031.97,-80.89 1081.5,-80.89 1081.5,-80.89 1081.5,-80.89 1226,-80.89 1259.83,-80.89 1274.55,-72.8 1301,-93.89 1463.54,-223.51 1505.81,-496.42 1515.44,-584.7"/>
<polygon fill="#888888" stroke="#888888" points="1511.97,-585.17 1516.48,-594.76 1518.93,-584.45 1511.97,-585.17"/>
</g>
<!-- src/analyzeFiles/sourceFileAnalyzer.ts&#45;&gt;src/types.ts -->
<g id="edge15" class="edge">
<title>src/analyzeFiles/sourceFileAnalyzer.ts&#45;&gt;src/types.ts</title>
<path fill="none" stroke="#888888" d="M823.13,-401.71C835.02,-404.58 847.34,-407.5 859,-409.89 993.54,-437.49 1028.12,-441.7 1165,-452.89 1227.61,-458.01 1300.66,-459.43 1344.16,-462.27"/>
<polygon fill="#888888" stroke="#888888" points="1344.07,-465.77 1354.29,-463 1344.57,-458.79 1344.07,-465.77"/>
</g>
<!-- src/analyzeFiles/sourceFileAnalyzer.ts&#45;&gt;src/types.ts -->
<g id="edge16" class="edge">
<title>src/analyzeFiles/sourceFileAnalyzer.ts&#45;&gt;src/types.ts</title>
<path fill="none" stroke="#888888" d="M791.7,-410.05C811.33,-416.64 836.39,-423.25 859,-427.89 993.54,-455.49 1028.12,-459.7 1165,-470.89 1227.61,-476.01 1300.66,-477.43 1344.16,-475.34"/>
<polygon fill="#888888" stroke="#888888" points="1344.52,-478.82 1354.29,-474.74 1344.11,-471.83 1344.52,-478.82"/>
</g>
<!-- src/analyzeFiles/sourceFileAnalyzer.ts&#45;&gt;src/analyzeFiles/decorateRequire.ts -->
<g id="edge14" class="edge">
<title>src/analyzeFiles/sourceFileAnalyzer.ts&#45;&gt;src/analyzeFiles/decorateRequire.ts</title>
<path fill="none" stroke="#888888" d="M823,-391.89C831.45,-391.89 840.11,-391.89 848.59,-391.89"/>
<polygon fill="#888888" stroke="#888888" points="848.82,-395.39 858.82,-391.89 848.82,-388.39 848.82,-395.39"/>
</g>
<!-- src/analyzeFiles/findRequires/index.ts -->
<g id="node11" class="node">
<title>src/analyzeFiles/findRequires/index.ts</title>
<polygon fill="#ffff99" stroke="black" points="947.5,-303.89 888.5,-303.89 888.5,-267.89 947.5,-267.89 947.5,-303.89"/>
<text text-anchor="middle" x="918" y="-282.19" font-family="Times,serif" font-size="14.00">index.ts</text>
</g>
<!-- src/analyzeFiles/sourceFileAnalyzer.ts&#45;&gt;src/analyzeFiles/findRequires/index.ts -->
<g id="edge13" class="edge">
<title>src/analyzeFiles/sourceFileAnalyzer.ts&#45;&gt;src/analyzeFiles/findRequires/index.ts</title>
<path fill="none" stroke="#888888" d="M823.16,-374.65C825.38,-373.19 827.51,-371.61 829.5,-369.89 852.63,-349.99 836.56,-328.57 859,-307.89 864.61,-302.72 871.55,-298.73 878.66,-295.66"/>
<polygon fill="#888888" stroke="#888888" points="880.22,-298.81 888.35,-292.02 877.76,-292.26 880.22,-298.81"/>
</g>
<!-- src/analyzeFiles/findRequires/coffeescript.ts -->
<g id="node10" class="node">
<title>src/analyzeFiles/findRequires/coffeescript.ts</title>
<polygon fill="#ffff99" stroke="black" points="1129,-141.89 1036,-141.89 1036,-105.89 1129,-105.89 1129,-141.89"/>
<text text-anchor="middle" x="1082.5" y="-120.19" font-family="Times,serif" font-size="14.00">coffeescript.ts</text>
</g>
<!-- src/analyzeFiles/findRequires/coffeescript.ts&#45;&gt;src/types.ts -->
<g id="edge18" class="edge">
<title>src/analyzeFiles/findRequires/coffeescript.ts&#45;&gt;src/types.ts</title>
<path fill="none" stroke="#888888" d="M1125.75,-105.85C1173.64,-88.54 1251.47,-70.35 1301,-109.89 1353.01,-151.42 1374.33,-362.96 1380.48,-440.42"/>
<polygon fill="#888888" stroke="#888888" points="1377.02,-441.14 1381.28,-450.84 1384,-440.6 1377.02,-441.14"/>
</g>
<!-- src/analyzeFiles/findRequires/coffeescript.ts&#45;&gt;src/analyzeFiles/requireInfo.ts -->
<g id="edge19" class="edge">
<title>src/analyzeFiles/findRequires/coffeescript.ts&#45;&gt;src/analyzeFiles/requireInfo.ts</title>
<path fill="none" stroke="#888888" d="M1120.65,-141.97C1123.81,-144.62 1126.68,-147.58 1129,-150.89 1177.89,-220.51 1123.17,-264.81 1165,-338.89 1170.97,-349.46 1179.83,-359.04 1188.87,-367.05"/>
<polygon fill="#888888" stroke="#888888" points="1186.89,-369.95 1196.8,-373.68 1191.37,-364.58 1186.89,-369.95"/>
</g>
<!-- src/analyzeFiles/findRequires/requirePathFilter.ts -->
<g id="node13" class="node">
<title>src/analyzeFiles/findRequires/requirePathFilter.ts</title>
<polygon fill="#ffff99" stroke="black" points="1285,-195.89 1165,-195.89 1165,-159.89 1285,-159.89 1285,-195.89"/>
<text text-anchor="middle" x="1225" y="-174.19" font-family="Times,serif" font-size="14.00">requirePathFilter.ts</text>
</g>
<!-- src/analyzeFiles/findRequires/coffeescript.ts&#45;&gt;src/analyzeFiles/findRequires/requirePathFilter.ts -->
<g id="edge17" class="edge">
<title>src/analyzeFiles/findRequires/coffeescript.ts&#45;&gt;src/analyzeFiles/findRequires/requirePathFilter.ts</title>
<path fill="none" stroke="#888888" d="M1129.14,-141.97C1140.81,-146.55 1153.36,-151.44 1165,-155.89 1165.32,-156.01 1165.63,-156.13 1165.95,-156.26"/>
<polygon fill="#888888" stroke="#888888" points="1164.77,-159.55 1175.36,-159.83 1167.25,-153.01 1164.77,-159.55"/>
</g>
<!-- src/analyzeFiles/findRequires/index.ts&#45;&gt;src/types.ts -->
<g id="edge23" class="edge">
<title>src/analyzeFiles/findRequires/index.ts&#45;&gt;src/types.ts</title>
<path fill="none" stroke="#888888" d="M947.78,-295.58C957.25,-299.09 967.73,-303.32 977,-307.89 1065.08,-351.28 1073.12,-389.29 1165,-423.89 1222.37,-445.5 1241.12,-433.78 1301,-446.89 1315.26,-450.01 1330.76,-454.04 1344.38,-457.79"/>
<polygon fill="#888888" stroke="#888888" points="1343.8,-461.26 1354.38,-460.58 1345.69,-454.52 1343.8,-461.26"/>
</g>
<!-- src/analyzeFiles/findRequires/index.ts&#45;&gt;src/analyzeFiles/findRequires/coffeescript.ts -->
<g id="edge22" class="edge">
<title>src/analyzeFiles/findRequires/index.ts&#45;&gt;src/analyzeFiles/findRequires/coffeescript.ts</title>
<path fill="none" stroke="#888888" d="M947.8,-279.5C957.91,-276.16 968.79,-271.19 977,-263.89 1019.37,-226.28 997.04,-192.03 1036,-150.89 1036.76,-150.09 1037.54,-149.31 1038.36,-148.54"/>
<polygon fill="#888888" stroke="#888888" points="1040.72,-151.13 1046.2,-142.06 1036.26,-145.73 1040.72,-151.13"/>
</g>
<!-- src/analyzeFiles/findRequires/javascript.ts -->
<g id="node12" class="node">
<title>src/analyzeFiles/findRequires/javascript.ts</title>
<polygon fill="#ffff99" stroke="black" points="1123.5,-195.89 1041.5,-195.89 1041.5,-159.89 1123.5,-159.89 1123.5,-195.89"/>
<text text-anchor="middle" x="1082.5" y="-174.19" font-family="Times,serif" font-size="14.00">javascript.ts</text>
</g>
<!-- src/analyzeFiles/findRequires/index.ts&#45;&gt;src/analyzeFiles/findRequires/javascript.ts -->
<g id="edge20" class="edge">
<title>src/analyzeFiles/findRequires/index.ts&#45;&gt;src/analyzeFiles/findRequires/javascript.ts</title>
<path fill="none" stroke="#888888" d="M947.67,-277.87C957.43,-274.42 968.12,-269.79 977,-263.89 1008.68,-242.84 1005.67,-224.84 1036,-201.89 1036.08,-201.83 1036.17,-201.76 1036.25,-201.7"/>
<polygon fill="#888888" stroke="#888888" points="1038.31,-204.53 1044.6,-196.01 1034.36,-198.75 1038.31,-204.53"/>
</g>
<!-- src/analyzeFiles/findRequires/typescript/index.ts -->
<g id="node14" class="node">
<title>src/analyzeFiles/findRequires/typescript/index.ts</title>
<polygon fill="#ffff99" stroke="black" points="1112,-303.89 1053,-303.89 1053,-267.89 1112,-267.89 1112,-303.89"/>
<text text-anchor="middle" x="1082.5" y="-282.19" font-family="Times,serif" font-size="14.00">index.ts</text>
</g>
<!-- src/analyzeFiles/findRequires/index.ts&#45;&gt;src/analyzeFiles/findRequires/typescript/index.ts -->
<g id="edge21" class="edge">
<title>src/analyzeFiles/findRequires/index.ts&#45;&gt;src/analyzeFiles/findRequires/typescript/index.ts</title>
<path fill="none" stroke="#888888" d="M947.68,-285.89C974.05,-285.89 1013.38,-285.89 1042.58,-285.89"/>
<polygon fill="#888888" stroke="#888888" points="1042.84,-289.39 1052.84,-285.89 1042.84,-282.39 1042.84,-289.39"/>
</g>
<!-- src/analyzeFiles/findRequires/javascript.ts&#45;&gt;src/types.ts -->
<g id="edge25" class="edge">
<title>src/analyzeFiles/findRequires/javascript.ts&#45;&gt;src/types.ts</title>
<path fill="none" stroke="#888888" d="M1114.3,-159.66C1132.75,-149.13 1154.6,-137.47 1165,-134.89 1223.67,-120.36 1253.46,-97.56 1301,-134.89 1349.45,-172.94 1372.75,-366.76 1379.96,-440.43"/>
<polygon fill="#888888" stroke="#888888" points="1376.52,-441.16 1380.95,-450.78 1383.49,-440.5 1376.52,-441.16"/>
</g>
<!-- src/analyzeFiles/findRequires/javascript.ts&#45;&gt;src/analyzeFiles/requireInfo.ts -->
<g id="edge26" class="edge">
<title>src/analyzeFiles/findRequires/javascript.ts&#45;&gt;src/analyzeFiles/requireInfo.ts</title>
<path fill="none" stroke="#888888" d="M1123.38,-196.07C1125.43,-197.86 1127.33,-199.79 1129,-201.89 1168.15,-251.19 1132.2,-285.15 1165,-338.89 1171.44,-349.45 1180.63,-359.13 1189.84,-367.24"/>
<polygon fill="#888888" stroke="#888888" points="1187.61,-369.94 1197.53,-373.67 1192.11,-364.57 1187.61,-369.94"/>
</g>
<!-- src/analyzeFiles/findRequires/javascript.ts&#45;&gt;src/analyzeFiles/findRequires/requirePathFilter.ts -->
<g id="edge24" class="edge">
<title>src/analyzeFiles/findRequires/javascript.ts&#45;&gt;src/analyzeFiles/findRequires/requirePathFilter.ts</title>
<path fill="none" stroke="#888888" d="M1123.76,-177.89C1133.47,-177.89 1144.12,-177.89 1154.74,-177.89"/>
<polygon fill="#888888" stroke="#888888" points="1154.88,-181.39 1164.88,-177.89 1154.88,-174.39 1154.88,-181.39"/>
</g>
<!-- src/analyzeFiles/findRequires/typescript/index.ts&#45;&gt;src/types.ts -->
<g id="edge28" class="edge">
<title>src/analyzeFiles/findRequires/typescript/index.ts&#45;&gt;src/types.ts</title>
<path fill="none" stroke="#888888" d="M1112.43,-273.02C1118.57,-269.2 1124.54,-264.5 1129,-258.89 1161.81,-217.64 1122.45,-177 1165,-145.89 1177.2,-136.97 1289.08,-136.61 1301,-145.89 1347.87,-182.4 1372,-368.35 1379.7,-440.36"/>
<polygon fill="#888888" stroke="#888888" points="1376.24,-440.93 1380.76,-450.51 1383.21,-440.2 1376.24,-440.93"/>
</g>
<!-- src/analyzeFiles/findRequires/typescript/index.ts&#45;&gt;src/analyzeFiles/findRequires/requirePathFilter.ts -->
<g id="edge27" class="edge">
<title>src/analyzeFiles/findRequires/typescript/index.ts&#45;&gt;src/analyzeFiles/findRequires/requirePathFilter.ts</title>
<path fill="none" stroke="#888888" d="M1112.4,-271.54C1118.27,-267.89 1124.13,-263.63 1129,-258.89 1150.48,-238 1142.02,-221.12 1165,-201.89 1165.16,-201.76 1165.32,-201.63 1165.48,-201.49"/>
<polygon fill="#888888" stroke="#888888" points="1167.08,-204.66 1173.19,-196 1163.01,-198.95 1167.08,-204.66"/>
</g>
<!-- src/analyzeFiles/findRequires/typescript/pathMapper.ts -->
<g id="node15" class="node">
<title>src/analyzeFiles/findRequires/typescript/pathMapper.ts</title>
<polygon fill="#ffff99" stroke="black" points="1272.5,-249.89 1177.5,-249.89 1177.5,-213.89 1272.5,-213.89 1272.5,-249.89"/>
<text text-anchor="middle" x="1225" y="-228.19" font-family="Times,serif" font-size="14.00">pathMapper.ts</text>
</g>
<!-- src/analyzeFiles/findRequires/typescript/index.ts&#45;&gt;src/analyzeFiles/findRequires/typescript/pathMapper.ts -->
<g id="edge30" class="edge">
<title>src/analyzeFiles/findRequires/typescript/index.ts&#45;&gt;src/analyzeFiles/findRequires/typescript/pathMapper.ts</title>
<path fill="none" stroke="#888888" d="M1112.27,-274.83C1128.27,-268.68 1148.75,-260.81 1167.79,-253.5"/>
<polygon fill="#888888" stroke="#888888" points="1169.21,-256.7 1177.29,-249.84 1166.7,-250.16 1169.21,-256.7"/>
</g>
<!-- src/analyzeFiles/findRequires/typescript/tsConfig.ts -->
<g id="node16" class="node">
<title>src/analyzeFiles/findRequires/typescript/tsConfig.ts</title>
<polygon fill="#ffff99" stroke="black" points="1262.5,-303.89 1187.5,-303.89 1187.5,-267.89 1262.5,-267.89 1262.5,-303.89"/>
<text text-anchor="middle" x="1225" y="-282.19" font-family="Times,serif" font-size="14.00">tsConfig.ts</text>
</g>
<!-- src/analyzeFiles/findRequires/typescript/index.ts&#45;&gt;src/analyzeFiles/findRequires/typescript/tsConfig.ts -->
<g id="edge29" class="edge">
<title>src/analyzeFiles/findRequires/typescript/index.ts&#45;&gt;src/analyzeFiles/findRequires/typescript/tsConfig.ts</title>
<path fill="none" stroke="#888888" d="M1112.27,-285.89C1130.9,-285.89 1155.59,-285.89 1177.02,-285.89"/>
<polygon fill="#888888" stroke="#888888" points="1177.24,-289.39 1187.24,-285.89 1177.24,-282.39 1177.24,-289.39"/>
</g>
<!-- src/analyzeFiles/findRequires/typescript/pathMapper.ts&#45;&gt;src/types.ts -->
<g id="edge31" class="edge">
<title>src/analyzeFiles/findRequires/typescript/pathMapper.ts&#45;&gt;src/types.ts</title>
<path fill="none" stroke="#888888" d="M1272.76,-241.82C1283.04,-245.76 1293.17,-251.26 1301,-258.89 1352.59,-309.23 1372.14,-395.93 1379.04,-440.55"/>
<polygon fill="#888888" stroke="#888888" points="1375.61,-441.28 1380.5,-450.68 1382.54,-440.28 1375.61,-441.28"/>
</g>
<!-- src/analyzeFiles/findRequires/typescript/tsConfig.ts&#45;&gt;src/types.ts -->
<g id="edge32" class="edge">
<title>src/analyzeFiles/findRequires/typescript/tsConfig.ts&#45;&gt;src/types.ts</title>
<path fill="none" stroke="#888888" d="M1262.83,-290.5C1276.01,-293.65 1290.25,-298.95 1301,-307.89 1342.98,-342.81 1365.58,-404.81 1375.72,-440.83"/>
<polygon fill="#888888" stroke="#888888" points="1372.4,-441.94 1378.37,-450.69 1379.16,-440.12 1372.4,-441.94"/>
</g>
<!-- src/analyzeFiles/findRequires/typescript/types.ts -->
<g id="node17" class="node">
<title>src/analyzeFiles/findRequires/typescript/types.ts</title>
<polygon fill="#ffff99" stroke="black" points="1111.5,-249.89 1053.5,-249.89 1053.5,-213.89 1111.5,-213.89 1111.5,-249.89"/>
<text text-anchor="middle" x="1082.5" y="-228.19" font-family="Times,serif" font-size="14.00">types.ts</text>
</g>
<!-- src/buildJob/index.ts&#45;&gt;src/types.ts -->
<g id="edge34" class="edge">
<title>src/buildJob/index.ts&#45;&gt;src/types.ts</title>
<path fill="none" stroke="#888888" d="M214.12,-195.73C234.01,-202.04 261.28,-209.63 286,-212.89 345.04,-220.68 372.49,-248.81 420,-212.89 466.8,-177.51 409.87,-122.13 456,-85.89 603.67,30.11 1159.06,29.06 1301,-93.89 1353.67,-139.51 1374.68,-360.92 1380.6,-440.41"/>
<polygon fill="#888888" stroke="#888888" points="1377.13,-440.93 1381.34,-450.65 1384.11,-440.42 1377.13,-440.93"/>
</g>
<!-- src/buildJob/readIgnores.ts -->
<g id="node19" class="node">
<title>src/buildJob/readIgnores.ts</title>
<polygon fill="#ffff99" stroke="black" points="399.5,-203.89 306.5,-203.89 306.5,-167.89 399.5,-167.89 399.5,-203.89"/>
<text text-anchor="middle" x="353" y="-182.19" font-family="Times,serif" font-size="14.00">readIgnores.ts</text>
</g>
<!-- src/buildJob/index.ts&#45;&gt;src/buildJob/readIgnores.ts -->
<g id="edge33" class="edge">
<title>src/buildJob/index.ts&#45;&gt;src/buildJob/readIgnores.ts</title>
<path fill="none" stroke="#888888" d="M214.12,-185.89C236.55,-185.89 268.44,-185.89 295.91,-185.89"/>
<polygon fill="#888888" stroke="#888888" points="296.19,-189.39 306.19,-185.89 296.19,-182.39 296.19,-189.39"/>
</g>
<!-- src/findChangedRequires/changedRequiresForSingleFile.ts -->
<g id="node20" class="node">
<title>src/findChangedRequires/changedRequiresForSingleFile.ts</title>
<polygon fill="#ffff99" stroke="black" points="653,-673.89 456,-673.89 456,-637.89 653,-637.89 653,-673.89"/>
<text text-anchor="middle" x="554.5" y="-652.19" font-family="Times,serif" font-size="14.00">changedRequiresForSingleFile.ts</text>
</g>
<!-- src/findChangedRequires/changedRequiresForSingleFile.ts&#45;&gt;src/types.ts -->
<g id="edge37" class="edge">
<title>src/findChangedRequires/changedRequiresForSingleFile.ts&#45;&gt;src/types.ts</title>
<path fill="none" stroke="#888888" d="M653.16,-650.06C849.05,-638.04 1273.63,-610.28 1301,-593.89 1337.74,-571.89 1361.02,-526.18 1372.9,-496.55"/>
<polygon fill="#888888" stroke="#888888" points="1376.18,-497.77 1376.49,-487.18 1369.64,-495.26 1376.18,-497.77"/>
</g>
<!-- src/findChangedRequires/fileInfo.ts -->
<g id="node21" class="node">
<title>src/findChangedRequires/fileInfo.ts</title>
<polygon fill="#ffff99" stroke="black" points="790.5,-693.89 721.5,-693.89 721.5,-657.89 790.5,-657.89 790.5,-693.89"/>
<text text-anchor="middle" x="756" y="-672.19" font-family="Times,serif" font-size="14.00">fileInfo.ts</text>
</g>
<!-- src/findChangedRequires/changedRequiresForSingleFile.ts&#45;&gt;src/findChangedRequires/fileInfo.ts -->
<g id="edge35" class="edge">
<title>src/findChangedRequires/changedRequiresForSingleFile.ts&#45;&gt;src/findChangedRequires/fileInfo.ts</title>
<path fill="none" stroke="#888888" d="M653.2,-665.69C673.48,-667.72 693.87,-669.76 711.02,-671.48"/>
<polygon fill="#888888" stroke="#888888" points="710.95,-674.99 721.25,-672.51 711.64,-668.03 710.95,-674.99"/>
</g>
<!-- src/findChangedRequires/types.ts -->
<g id="node25" class="node">
<title>src/findChangedRequires/types.ts</title>
<polygon fill="#ffff99" stroke="black" points="785,-747.89 727,-747.89 727,-711.89 785,-711.89 785,-747.89"/>
<text text-anchor="middle" x="756" y="-726.19" font-family="Times,serif" font-size="14.00">types.ts</text>
</g>
<!-- src/findChangedRequires/changedRequiresForSingleFile.ts&#45;&gt;src/findChangedRequires/types.ts -->
<g id="edge36" class="edge">
<title>src/findChangedRequires/changedRequiresForSingleFile.ts&#45;&gt;src/findChangedRequires/types.ts</title>
<path fill="none" stroke="#888888" d="M628.03,-673.91C636.55,-676.63 645.04,-679.63 653,-682.89 669.94,-689.83 672.5,-694.97 689,-702.89 698.03,-707.23 707.94,-711.52 717.28,-715.36"/>
<polygon fill="#888888" stroke="#888888" points="716.16,-718.68 726.74,-719.19 718.78,-712.19 716.16,-718.68"/>
</g>
<!-- src/findChangedRequires/fileLocationCalculator.ts -->
<g id="node22" class="node">
<title>src/findChangedRequires/fileLocationCalculator.ts</title>
<polygon fill="#ffff99" stroke="black" points="629.5,-727.89 479.5,-727.89 479.5,-691.89 629.5,-691.89 629.5,-727.89"/>
<text text-anchor="middle" x="554.5" y="-706.19" font-family="Times,serif" font-size="14.00">fileLocationCalculator.ts</text>
</g>
<!-- src/findChangedRequires/fileLocationCalculator.ts&#45;&gt;src/findChangedRequires/fileInfo.ts -->
<g id="edge38" class="edge">
<title>src/findChangedRequires/fileLocationCalculator.ts&#45;&gt;src/findChangedRequires/fileInfo.ts</title>
<path fill="none" stroke="#888888" d="M629.5,-697.28C656.94,-692.6 687.16,-687.45 711.07,-683.38"/>
<polygon fill="#888888" stroke="#888888" points="711.97,-686.78 721.24,-681.65 710.79,-679.88 711.97,-686.78"/>
</g>
<!-- src/findChangedRequires/fileLocationCalculator.ts&#45;&gt;src/findChangedRequires/types.ts -->
<g id="edge39" class="edge">
<title>src/findChangedRequires/fileLocationCalculator.ts&#45;&gt;src/findChangedRequires/types.ts</title>
<path fill="none" stroke="#888888" d="M629.5,-717.31C659.19,-720.29 692.15,-723.59 716.84,-726.07"/>
<polygon fill="#888888" stroke="#888888" points="716.58,-729.56 726.88,-727.07 717.28,-722.59 716.58,-729.56"/>
</g>
<!-- src/findChangedRequires/fileMoveCalculator.ts -->
<g id="node23" class="node">
<title>src/findChangedRequires/fileMoveCalculator.ts</title>
<polygon fill="#ffff99" stroke="black" points="420,-673.89 286,-673.89 286,-637.89 420,-637.89 420,-673.89"/>
<text text-anchor="middle" x="353" y="-652.19" font-family="Times,serif" font-size="14.00">fileMoveCalculator.ts</text>
</g>
<!-- src/findChangedRequires/fileMoveCalculator.ts&#45;&gt;src/types.ts -->
<g id="edge42" class="edge">
<title>src/findChangedRequires/fileMoveCalculator.ts&#45;&gt;src/types.ts</title>
<path fill="none" stroke="#888888" d="M385.8,-637.89C405.74,-630.69 432.11,-623.63 456,-619.89 502.48,-612.62 1259.68,-587.38 1301,-564.89 1329.86,-549.18 1351.83,-518.47 1365.64,-495.85"/>
<polygon fill="#888888" stroke="#888888" points="1368.79,-497.4 1370.89,-487.02 1362.77,-493.83 1368.79,-497.4"/>
</g>
<!-- src/findChangedRequires/fileMoveCalculator.ts&#45;&gt;src/types.ts -->
<g id="edge43" class="edge">
<title>src/findChangedRequires/fileMoveCalculator.ts&#45;&gt;src/types.ts</title>
<path fill="none" stroke="#888888" d="M420.24,-645.09C432.06,-642.34 444.33,-639.72 456,-637.89 502.48,-630.62 1259.68,-605.38 1301,-582.89 1335.48,-564.12 1360.12,-523.94 1372.78,-496.44"/>
<polygon fill="#888888" stroke="#888888" points="1376.13,-497.52 1376.89,-486.95 1369.7,-494.73 1376.13,-497.52"/>
</g>
<!-- src/findChangedRequires/fileMoveCalculator.ts&#45;&gt;src/findChangedRequires/changedRequiresForSingleFile.ts -->
<g id="edge40" class="edge">
<title>src/findChangedRequires/fileMoveCalculator.ts&#45;&gt;src/findChangedRequires/changedRequiresForSingleFile.ts</title>
<path fill="none" stroke="#888888" d="M420.15,-655.89C428.39,-655.89 436.97,-655.89 445.63,-655.89"/>
<polygon fill="#888888" stroke="#888888" points="445.82,-659.39 455.82,-655.89 445.82,-652.39 445.82,-659.39"/>
</g>
<!-- src/findChangedRequires/fileMoveCalculator.ts&#45;&gt;src/findChangedRequires/types.ts -->
<g id="edge41" class="edge">
<title>src/findChangedRequires/fileMoveCalculator.ts&#45;&gt;src/findChangedRequires/types.ts</title>
<path fill="none" stroke="#888888" d="M414.66,-674.07C416.51,-675.27 418.3,-676.54 420,-677.89 444.03,-697.02 429.21,-721.86 456,-736.89 499.5,-761.31 646.13,-745.13 716.58,-735.54"/>
<polygon fill="#888888" stroke="#888888" points="717.38,-738.96 726.81,-734.12 716.42,-732.03 717.38,-738.96"/>
</g>
<!-- src/findChangedRequires/index.ts&#45;&gt;src/types.ts -->
<g id="edge47" class="edge">
<title>src/findChangedRequires/index.ts&#45;&gt;src/types.ts</title>
<path fill="none" stroke="#888888" d="M214.23,-646.74C234.16,-640.74 261.45,-633.24 286,-628.89 360.69,-615.67 380.34,-619.25 456,-613.89 644.15,-600.56 1127.27,-607.33 1301,-533.89 1322.58,-524.77 1343.17,-508.26 1358.26,-494.16"/>
<polygon fill="#888888" stroke="#888888" points="1360.85,-496.52 1365.62,-487.06 1355.99,-491.48 1360.85,-496.52"/>
</g>
<!-- src/findChangedRequires/index.ts&#45;&gt;src/findChangedRequires/fileLocationCalculator.ts -->
<g id="edge44" class="edge">
<title>src/findChangedRequires/index.ts&#45;&gt;src/findChangedRequires/fileLocationCalculator.ts</title>
<path fill="none" stroke="#888888" d="M214.24,-664.94C234.19,-670.9 261.48,-678.39 286,-682.89 346.81,-694.05 416.31,-700.89 469.23,-704.9"/>
<polygon fill="#888888" stroke="#888888" points="469.01,-708.39 479.24,-705.63 469.53,-701.41 469.01,-708.39"/>
</g>
<!-- src/findChangedRequires/index.ts&#45;&gt;src/findChangedRequires/fileMoveCalculator.ts -->
<g id="edge46" class="edge">
<title>src/findChangedRequires/index.ts&#45;&gt;src/findChangedRequires/fileMoveCalculator.ts</title>
<path fill="none" stroke="#888888" d="M214.12,-655.89C231.22,-655.89 253.81,-655.89 275.75,-655.89"/>
<polygon fill="#888888" stroke="#888888" points="275.77,-659.39 285.76,-655.89 275.76,-652.39 275.77,-659.39"/>
</g>
<!-- src/findChangedRequires/index.ts&#45;&gt;src/findSourceFiles/index.ts -->
<g id="edge45" class="edge">
<title>src/findChangedRequires/index.ts&#45;&gt;src/findSourceFiles/index.ts</title>
<path fill="none" stroke="#888888" d="M214.1,-652.19C226.64,-649.18 240.61,-643.74 250,-633.89 289.88,-592.04 245.97,-550.61 286,-508.89 293.34,-501.24 303.4,-496.25 313.46,-493"/>
<polygon fill="#888888" stroke="#888888" points="314.68,-496.29 323.41,-490.29 312.84,-489.54 314.68,-496.29"/>
</g>
<!-- src/findSourceFiles/excludedPathFilter.ts -->
<g id="node26" class="node">
<title>src/findSourceFiles/excludedPathFilter.ts</title>
<polygon fill="#ffff99" stroke="black" points="821.5,-526.89 690.5,-526.89 690.5,-490.89 821.5,-490.89 821.5,-526.89"/>
<text text-anchor="middle" x="756" y="-505.19" font-family="Times,serif" font-size="14.00">excludedPathFilter.ts</text>
</g>
<!-- src/findSourceFiles/filterExcludedFiles.ts -->
<g id="node27" class="node">
<title>src/findSourceFiles/filterExcludedFiles.ts</title>
<polygon fill="#ffff99" stroke="black" points="620.5,-558.89 488.5,-558.89 488.5,-522.89 620.5,-522.89 620.5,-558.89"/>
<text text-anchor="middle" x="554.5" y="-537.19" font-family="Times,serif" font-size="14.00">filterExcludedFiles.ts</text>
</g>
<!-- src/findSourceFiles/filterExcludedFiles.ts&#45;&gt;src/types.ts -->
<g id="edge49" class="edge">
<title>src/findSourceFiles/filterExcludedFiles.ts&#45;&gt;src/types.ts</title>
<path fill="none" stroke="#888888" d="M620.8,-542.34C693.2,-543.81 813.44,-545.89 917,-545.89 917,-545.89 917,-545.89 1083.5,-545.89 1181.21,-545.89 1208.42,-545.12 1301,-513.89 1316.7,-508.6 1332.9,-500.32 1346.68,-492.31"/>
<polygon fill="#888888" stroke="#888888" points="1348.58,-495.25 1355.36,-487.11 1344.98,-489.25 1348.58,-495.25"/>
</g>
<!-- src/findSourceFiles/filterExcludedFiles.ts&#45;&gt;src/findSourceFiles/excludedPathFilter.ts -->
<g id="edge48" class="edge">
<title>src/findSourceFiles/filterExcludedFiles.ts&#45;&gt;src/findSourceFiles/excludedPathFilter.ts</title>
<path fill="none" stroke="#888888" d="M620.55,-530.46C639.62,-527.4 660.63,-524.03 680.26,-520.88"/>
<polygon fill="#888888" stroke="#888888" points="681.06,-524.3 690.38,-519.26 679.95,-517.38 681.06,-524.3"/>
</g>
<!-- src/findSourceFiles/findFiles.ts -->
<g id="node28" class="node">
<title>src/findSourceFiles/findFiles.ts</title>
<polygon fill="#ffff99" stroke="black" points="593,-504.89 516,-504.89 516,-468.89 593,-468.89 593,-504.89"/>
<text text-anchor="middle" x="554.5" y="-483.19" font-family="Times,serif" font-size="14.00">findFiles.ts</text>
</g>
<!-- src/findSourceFiles/index.ts&#45;&gt;src/types.ts -->
<g id="edge53" class="edge">
<title>src/findSourceFiles/index.ts&#45;&gt;src/types.ts</title>
<path fill="none" stroke="#888888" d="M382.62,-477.19C402.85,-470.85 430.75,-463.18 456,-459.89 542.82,-448.59 565.45,-458.61 653,-459.89 880.63,-463.23 937.37,-471.56 1165,-474.89 1225.44,-475.78 1240.6,-477.11 1301,-474.89 1315.12,-474.37 1330.59,-473.35 1344.23,-472.29"/>
<polygon fill="#888888" stroke="#888888" points="1344.55,-475.78 1354.24,-471.49 1343.99,-468.8 1344.55,-475.78"/>
</g>
<!-- src/findSourceFiles/index.ts&#45;&gt;src/analyzeFiles/index.ts -->
<g id="edge50" class="edge">
<title>src/findSourceFiles/index.ts&#45;&gt;src/analyzeFiles/index.ts</title>
<path fill="none" stroke="#888888" d="M373.97,-468.86C393.51,-452.17 424.8,-427.88 456,-413.89 474.48,-405.6 496.38,-400.3 514.74,-396.98"/>
<polygon fill="#888888" stroke="#888888" points="515.53,-400.4 524.81,-395.29 514.37,-393.5 515.53,-400.4"/>
</g>
<!-- src/findSourceFiles/index.ts&#45;&gt;src/findSourceFiles/filterExcludedFiles.ts -->
<g id="edge52" class="edge">
<title>src/findSourceFiles/index.ts&#45;&gt;src/findSourceFiles/filterExcludedFiles.ts</title>
<path fill="none" stroke="#888888" d="M382.58,-494.63C407.59,-501.4 445.04,-511.54 478.53,-520.6"/>
<polygon fill="#888888" stroke="#888888" points="477.74,-524.01 488.31,-523.25 479.57,-517.25 477.74,-524.01"/>
</g>
<!-- src/findSourceFiles/index.ts&#45;&gt;src/findSourceFiles/findFiles.ts -->
<g id="edge51" class="edge">
<title>src/findSourceFiles/index.ts&#45;&gt;src/findSourceFiles/findFiles.ts</title>
<path fill="none" stroke="#888888" d="M382.58,-486.89C414.59,-486.89 466.99,-486.89 505.35,-486.89"/>
<polygon fill="#888888" stroke="#888888" points="505.77,-490.39 515.77,-486.89 505.77,-483.39 505.77,-490.39"/>
</g>
<!-- src/handleFileChanges/applyChanges.ts -->
<g id="node30" class="node">
<title>src/handleFileChanges/applyChanges.ts</title>
<polygon fill="#ffff99" stroke="black" points="1278,-737.89 1172,-737.89 1172,-701.89 1278,-701.89 1278,-737.89"/>
<text text-anchor="middle" x="1225" y="-716.19" font-family="Times,serif" font-size="14.00">applyChanges.ts</text>
</g>
<!-- src/handleFileChanges/applyChanges.ts&#45;&gt;src/types.ts -->
<g id="edge56" class="edge">
<title>src/handleFileChanges/applyChanges.ts&#45;&gt;src/types.ts</title>
<path fill="none" stroke="#888888" d="M1278.31,-707.83C1286.66,-704.11 1294.63,-699.24 1301,-692.89 1329.44,-664.55 1361.6,-550.45 1375.49,-496.91"/>
<polygon fill="#888888" stroke="#888888" points="1378.93,-497.6 1378.02,-487.05 1372.14,-495.86 1378.93,-497.6"/>
</g>
<!-- src/handleFileChanges/applyToFile.ts -->
<g id="node31" class="node">
<title>src/handleFileChanges/applyToFile.ts</title>
<polygon fill="#ffff99" stroke="black" points="1431,-684.89 1336,-684.89 1336,-648.89 1431,-648.89 1431,-684.89"/>
<text text-anchor="middle" x="1383.5" y="-663.19" font-family="Times,serif" font-size="14.00">applyToFile.ts</text>
</g>
<!-- src/handleFileChanges/applyChanges.ts&#45;&gt;src/handleFileChanges/applyToFile.ts -->
<g id="edge54" class="edge">
<title>src/handleFileChanges/applyChanges.ts&#45;&gt;src/handleFileChanges/applyToFile.ts</title>
<path fill="none" stroke="#888888" d="M1278.11,-702.24C1293.58,-697.01 1310.58,-691.25 1326.29,-685.93"/>
<polygon fill="#888888" stroke="#888888" points="1327.53,-689.2 1335.88,-682.68 1325.28,-682.57 1327.53,-689.2"/>
</g>
<!-- src/handleFileChanges/printChanges.ts -->
<g id="node36" class="node">
<title>src/handleFileChanges/printChanges.ts</title>
<polygon fill="#ffff99" stroke="black" points="1434,-738.89 1333,-738.89 1333,-702.89 1434,-702.89 1434,-738.89"/>
<text text-anchor="middle" x="1383.5" y="-717.19" font-family="Times,serif" font-size="14.00">printChanges.ts</text>
</g>
<!-- src/handleFileChanges/applyChanges.ts&#45;&gt;src/handleFileChanges/printChanges.ts -->
<g id="edge55" class="edge">
<title>src/handleFileChanges/applyChanges.ts&#45;&gt;src/handleFileChanges/printChanges.ts</title>
<path fill="none" stroke="#888888" d="M1278.11,-720.22C1292.42,-720.32 1308.04,-720.42 1322.74,-720.51"/>
<polygon fill="#888888" stroke="#888888" points="1322.71,-724.01 1332.74,-720.57 1322.76,-717.01 1322.71,-724.01"/>
</g>
<!-- src/handleFileChanges/applyToFile.ts&#45;&gt;src/sourceFile.ts -->
<g id="edge59" class="edge">
<title>src/handleFileChanges/applyToFile.ts&#45;&gt;src/sourceFile.ts</title>
<path fill="none" stroke="#888888" d="M1429.32,-648.76C1441.16,-643.97 1454.03,-638.77 1466.2,-633.85"/>
<polygon fill="#888888" stroke="#888888" points="1467.82,-636.97 1475.78,-629.97 1465.19,-630.48 1467.82,-636.97"/>
</g>
<!-- src/handleFileChanges/editLine.ts -->
<g id="node33" class="node">
<title>src/handleFileChanges/editLine.ts</title>
<polygon fill="#ffff99" stroke="black" points="1556,-684.89 1482,-684.89 1482,-648.89 1556,-648.89 1556,-684.89"/>
<text text-anchor="middle" x="1519" y="-663.19" font-family="Times,serif" font-size="14.00">editLine.ts</text>
</g>
<!-- src/handleFileChanges/applyToFile.ts&#45;&gt;src/handleFileChanges/editLine.ts -->
<g id="edge58" class="edge">
<title>src/handleFileChanges/applyToFile.ts&#45;&gt;src/handleFileChanges/editLine.ts</title>
<path fill="none" stroke="#888888" d="M1431.19,-666.89C1444.24,-666.89 1458.43,-666.89 1471.47,-666.89"/>
<polygon fill="#888888" stroke="#888888" points="1471.64,-670.39 1481.64,-666.89 1471.64,-663.39 1471.64,-670.39"/>
</g>
<!-- src/handleFileChanges/getLineEdits.ts -->
<g id="node34" class="node">
<title>src/handleFileChanges/getLineEdits.ts</title>
<polygon fill="#ffff99" stroke="black" points="1568,-738.89 1470,-738.89 1470,-702.89 1568,-702.89 1568,-738.89"/>
<text text-anchor="middle" x="1519" y="-717.19" font-family="Times,serif" font-size="14.00">getLineEdits.ts</text>
</g>
<!-- src/handleFileChanges/applyToFile.ts&#45;&gt;src/handleFileChanges/getLineEdits.ts -->
<g id="edge57" class="edge">
<title>src/handleFileChanges/applyToFile.ts&#45;&gt;src/handleFileChanges/getLineEdits.ts</title>
<path fill="none" stroke="#888888" d="M1429.32,-685.02C1440.33,-689.48 1452.23,-694.29 1463.64,-698.9"/>
<polygon fill="#888888" stroke="#888888" points="1462.48,-702.21 1473.07,-702.72 1465.11,-695.72 1462.48,-702.21"/>
</g>
<!-- src/handleFileChanges/checkForErrors.ts -->
<g id="node32" class="node">
<title>src/handleFileChanges/checkForErrors.ts</title>
<polygon fill="#ffff99" stroke="black" points="1281.5,-683.89 1168.5,-683.89 1168.5,-647.89 1281.5,-647.89 1281.5,-683.89"/>
<text text-anchor="middle" x="1225" y="-662.19" font-family="Times,serif" font-size="14.00">checkForErrors.ts</text>
</g>
<!-- src/handleFileChanges/checkForErrors.ts&#45;&gt;src/types.ts -->
<g id="edge60" class="edge">
<title>src/handleFileChanges/checkForErrors.ts&#45;&gt;src/types.ts</title>
<path fill="none" stroke="#888888" d="M1281.64,-655.5C1288.65,-652.55 1295.34,-648.76 1301,-643.89 1346.18,-605.05 1367.92,-535.75 1376.98,-497.04"/>
<polygon fill="#888888" stroke="#888888" points="1380.46,-497.5 1379.21,-486.98 1373.63,-495.99 1380.46,-497.5"/>
</g>
<!-- src/handleFileChanges/index.ts&#45;&gt;src/types.ts -->
<g id="edge64" class="edge">
<title>src/handleFileChanges/index.ts&#45;&gt;src/types.ts</title>
<path fill="none" stroke="#888888" d="M1112.02,-709.2C1118.04,-706.13 1124.06,-702.37 1129,-697.89 1151.75,-677.25 1139.69,-656.3 1165,-638.89 1215.64,-604.07 1250.99,-649.61 1301,-613.89 1341.25,-585.14 1364.12,-529.95 1374.85,-496.58"/>
<polygon fill="#888888" stroke="#888888" points="1378.21,-497.56 1377.8,-486.97 1371.52,-495.5 1378.21,-497.56"/>
</g>
<!-- src/handleFileChanges/index.ts&#45;&gt;src/handleFileChanges/applyChanges.ts -->
<g id="edge63" class="edge">
<title>src/handleFileChanges/index.ts&#45;&gt;src/handleFileChanges/applyChanges.ts</title>
<path fill="none" stroke="#888888" d="M1112.27,-719.89C1126.63,-719.89 1144.6,-719.89 1161.9,-719.89"/>
<polygon fill="#888888" stroke="#888888" points="1161.97,-723.39 1171.97,-719.89 1161.97,-716.39 1161.97,-723.39"/>
</g>
<!-- src/handleFileChanges/index.ts&#45;&gt;src/handleFileChanges/checkForErrors.ts -->
<g id="edge61" class="edge">
<title>src/handleFileChanges/index.ts&#45;&gt;src/handleFileChanges/checkForErrors.ts</title>
<path fill="none" stroke="#888888" d="M1112.27,-708.83C1128.21,-702.71 1148.57,-694.88 1167.55,-687.59"/>
<polygon fill="#888888" stroke="#888888" points="1168.94,-690.81 1177.01,-683.95 1166.42,-684.27 1168.94,-690.81"/>
</g>
<!-- src/handleFileChanges/index.ts&#45;&gt;src/handleFileChanges/printChanges.ts -->
<g id="edge62" class="edge">
<title>src/handleFileChanges/index.ts&#45;&gt;src/handleFileChanges/printChanges.ts</title>
<path fill="none" stroke="#888888" d="M1112.36,-731.96C1127.7,-737.73 1147.05,-744 1165,-746.89 1224.67,-756.52 1241.27,-756.19 1301,-746.89 1308.74,-745.69 1316.75,-743.88 1324.59,-741.76"/>
<polygon fill="#888888" stroke="#888888" points="1325.75,-745.07 1334.39,-738.94 1323.81,-738.34 1325.75,-745.07"/>
</g>
<!-- src/handleFileChanges/printChanges.ts&#45;&gt;src/sourceFile.ts -->
<g id="edge65" class="edge">
<title>src/handleFileChanges/printChanges.ts&#45;&gt;src/sourceFile.ts</title>
<path fill="none" stroke="#888888" d="M1422.67,-702.78C1426.71,-700.09 1430.59,-697.12 1434,-693.89 1453.89,-675.08 1448.81,-659.49 1468.76,-638.15"/>
<polygon fill="#888888" stroke="#888888" points="1471.4,-640.47 1476.18,-631.02 1466.55,-635.43 1471.4,-640.47"/>
</g>
<!-- src/handleFileChanges/printChanges.ts&#45;&gt;src/handleFileChanges/editLine.ts -->
<g id="edge66" class="edge">
<title>src/handleFileChanges/printChanges.ts&#45;&gt;src/handleFileChanges/editLine.ts</title>
<path fill="none" stroke="#888888" d="M1429.32,-702.76C1443.23,-697.13 1458.57,-690.93 1472.53,-685.29"/>
<polygon fill="#888888" stroke="#888888" points="1473.97,-688.48 1481.93,-681.48 1471.35,-681.99 1473.97,-688.48"/>
</g>
<!-- src/handleFileChanges/printChanges.ts&#45;&gt;src/handleFileChanges/getLineEdits.ts -->
<g id="edge67" class="edge">
<title>src/handleFileChanges/printChanges.ts&#45;&gt;src/handleFileChanges/getLineEdits.ts</title>
<path fill="none" stroke="#888888" d="M1434.21,-720.89C1442.43,-720.89 1451.02,-720.89 1459.44,-720.89"/>
<polygon fill="#888888" stroke="#888888" points="1459.58,-724.39 1469.58,-720.89 1459.58,-717.39 1459.58,-724.39"/>
</g>
</g>
</svg>
