<?xml version="1.0" encoding="UTF-8" standalone="no"?>
<!DOCTYPE svg PUBLIC "-//W3C//DTD SVG 1.1//EN"
 "http://www.w3.org/Graphics/SVG/1.1/DTD/svg11.dtd">
<!-- Generated by graphviz version 2.40.1 (20161225.0304)
 -->
<!-- Title: Files Pages: 1 -->
<svg width="1422pt" height="940pt"
 viewBox="0.00 0.00 1421.98 940.00" xmlns="http://www.w3.org/2000/svg" xmlns:xlink="http://www.w3.org/1999/xlink">
<g id="graph0" class="graph" transform="scale(1 1) rotate(0) translate(4 936)">
<title>Files</title>
<polygon fill="#ffffff" stroke="transparent" points="-4,4 -4,-936 1417.9766,-936 1417.9766,4 -4,4"/>
<g id="clust1" class="cluster">
<title>cluster_0</title>
<polygon fill="#ffeedd" stroke="#000000" stroke-width=".5" points="8,-8 8,-924 1405.9766,-924 1405.9766,-8 8,-8"/>
<text text-anchor="middle" x="706.9883" y="-908.8" font-family="Times,serif" font-size="14.00" fill="#000000">/Users/dave/src/dmf/node&#45;trucker/</text>
</g>
<g id="clust2" class="cluster">
<title>cluster_1</title>
<polygon fill="#eeddff" stroke="#000000" stroke-width=".5" points="103.9414,-16 103.9414,-894 1397.9766,-894 1397.9766,-16 103.9414,-16"/>
<text text-anchor="middle" x="750.959" y="-878.8" font-family="Times,serif" font-size="14.00" fill="#000000">lib/</text>
</g>
<g id="clust3" class="cluster">
<title>cluster_2</title>
<polygon fill="#ddffee" stroke="#000000" stroke-width=".5" points="534.9248,-312 534.9248,-576 1389.9766,-576 1389.9766,-312 534.9248,-312"/>
<text text-anchor="middle" x="962.4507" y="-560.8" font-family="Times,serif" font-size="14.00" fill="#000000">lib/analyzeFiles/</text>
</g>
<g id="clust4" class="cluster">
<title>cluster_3</title>
<polygon fill="#ffddee" stroke="#000000" stroke-width=".5" points="906.0254,-364 906.0254,-546 1381.9766,-546 1381.9766,-364 906.0254,-364"/>
<text text-anchor="middle" x="1144.001" y="-530.8" font-family="Times,serif" font-size="14.00" fill="#000000">lib/analyzeFiles/findRequires/</text>
</g>
<g id="clust5" class="cluster">
<title>cluster_4</title>
<polygon fill="#ddffee" stroke="#000000" stroke-width=".5" points="140.8691,-176 140.8691,-304 682.0215,-304 682.0215,-176 140.8691,-176"/>
<text text-anchor="middle" x="411.4453" y="-288.8" font-family="Times,serif" font-size="14.00" fill="#000000">lib/findChangedRequires/</text>
</g>
<g id="clust6" class="cluster">
<title>cluster_5</title>
<polygon fill="#ddffee" stroke="#000000" stroke-width=".5" points="320.7832,-682 320.7832,-864 1002.1841,-864 1002.1841,-682 320.7832,-682"/>
<text text-anchor="middle" x="661.4836" y="-848.8" font-family="Times,serif" font-size="14.00" fill="#000000">lib/handleFileChanges/</text>
</g>
<!-- index.js -->
<g id="node1" class="node">
<title>index.js</title>
<polygon fill="#ffff99" stroke="#000000" points="75.9121,-208 16.0293,-208 16.0293,-172 75.9121,-172 75.9121,-208"/>
<text text-anchor="middle" x="45.9707" y="-185.8" font-family="Times,serif" font-size="14.00" fill="#000000">index.js</text>
</g>
<!-- lib/buildJob.js -->
<g id="node2" class="node">
<title>lib/buildJob.js</title>
<polygon fill="#ffff99" stroke="#000000" points="217.4053,-168 140.2744,-168 140.2744,-132 217.4053,-132 217.4053,-168"/>
<text text-anchor="middle" x="178.8398" y="-145.8" font-family="Times,serif" font-size="14.00" fill="#000000">buildJob.js</text>
</g>
<!-- index.js&#45;&gt;lib/buildJob.js -->
<g id="edge1" class="edge">
<title>index.js&#45;&gt;lib/buildJob.js</title>
<path fill="none" stroke="#888888" d="M76.0317,-180.5698C85.0018,-177.7818 94.8621,-174.7428 103.9414,-172 112.4248,-169.4372 121.4612,-166.7482 130.2145,-164.1648"/>
<polygon fill="#888888" stroke="#888888" points="131.3272,-167.4858 139.9324,-161.3051 129.351,-160.7705 131.3272,-167.4858"/>
</g>
<!-- lib/findSourceFiles.js -->
<g id="node5" class="node">
<title>lib/findSourceFiles.js</title>
<polygon fill="#ffff99" stroke="#000000" points="416.9818,-462 300.526,-462 300.526,-426 416.9818,-426 416.9818,-462"/>
<text text-anchor="middle" x="358.7539" y="-439.8" font-family="Times,serif" font-size="14.00" fill="#000000">findSourceFiles.js</text>
</g>
<!-- index.js&#45;&gt;lib/findSourceFiles.js -->
<g id="edge5" class="edge">
<title>index.js&#45;&gt;lib/findSourceFiles.js</title>
<path fill="none" stroke="#888888" d="M50.9709,-208.0537C58.7052,-233.1536 75.6999,-278.7927 103.9414,-308 157.239,-363.1201 237.7725,-400.9132 293.9932,-422.4136"/>
<polygon fill="#888888" stroke="#888888" points="292.9043,-425.7432 303.4965,-425.9817 295.3649,-419.1899 292.9043,-425.7432"/>
</g>
<!-- lib/printDependencies.js -->
<g id="node7" class="node">
<title>lib/printDependencies.js</title>
<polygon fill="#ffff99" stroke="#000000" points="245.6369,-114 112.0428,-114 112.0428,-78 245.6369,-78 245.6369,-114"/>
<text text-anchor="middle" x="178.8398" y="-91.8" font-family="Times,serif" font-size="14.00" fill="#000000">printDependencies.js</text>
</g>
<!-- index.js&#45;&gt;lib/printDependencies.js -->
<g id="edge6" class="edge">
<title>index.js&#45;&gt;lib/printDependencies.js</title>
<path fill="none" stroke="#888888" d="M57.7743,-171.7695C68.2882,-156.8188 84.9218,-136.0611 103.9414,-123 106.0351,-121.5622 108.2141,-120.1917 110.4554,-118.8863"/>
<polygon fill="#888888" stroke="#888888" points="112.1622,-121.943 119.3604,-114.1688 108.8853,-115.7573 112.1622,-121.943"/>
</g>
<!-- lib/printUnused.js -->
<g id="node8" class="node">
<title>lib/printUnused.js</title>
<polygon fill="#ffff99" stroke="#000000" points="227.8916,-60 129.7881,-60 129.7881,-24 227.8916,-24 227.8916,-60"/>
<text text-anchor="middle" x="178.8398" y="-37.8" font-family="Times,serif" font-size="14.00" fill="#000000">printUnused.js</text>
</g>
<!-- index.js&#45;&gt;lib/printUnused.js -->
<g id="edge2" class="edge">
<title>index.js&#45;&gt;lib/printUnused.js</title>
<path fill="none" stroke="#888888" d="M50.0409,-171.7731C56.8138,-145.5147 72.8378,-97.1164 103.9414,-69 108.719,-64.6812 114.2387,-61.0401 120.0719,-57.973"/>
<polygon fill="#888888" stroke="#888888" points="121.8485,-61.0066 129.4351,-53.611 118.8925,-54.6614 121.8485,-61.0066"/>
</g>
<!-- lib/findChangedRequires/index.js -->
<g id="node21" class="node">
<title>lib/findChangedRequires/index.js</title>
<polygon fill="#ffff99" stroke="#000000" points="208.7813,-248 148.8984,-248 148.8984,-212 208.7813,-212 208.7813,-248"/>
<text text-anchor="middle" x="178.8398" y="-225.8" font-family="Times,serif" font-size="14.00" fill="#000000">index.js</text>
</g>
<!-- index.js&#45;&gt;lib/findChangedRequires/index.js -->
<g id="edge3" class="edge">
<title>index.js&#45;&gt;lib/findChangedRequires/index.js</title>
<path fill="none" stroke="#888888" d="M76.0317,-199.4302C85.0018,-202.2182 94.8621,-205.2572 103.9414,-208 115.28,-211.4254 127.6063,-215.0761 138.9244,-218.399"/>
<polygon fill="#888888" stroke="#888888" points="137.9802,-221.7695 148.5609,-221.2209 139.9475,-215.0516 137.9802,-221.7695"/>
</g>
<!-- lib/handleFileChanges/index.js -->
<g id="node27" class="node">
<title>lib/handleFileChanges/index.js</title>
<polygon fill="#ffff99" stroke="#000000" points="388.6953,-746 328.8125,-746 328.8125,-710 388.6953,-710 388.6953,-746"/>
<text text-anchor="middle" x="358.7539" y="-723.8" font-family="Times,serif" font-size="14.00" fill="#000000">index.js</text>
</g>
<!-- index.js&#45;&gt;lib/handleFileChanges/index.js -->
<g id="edge4" class="edge">
<title>index.js&#45;&gt;lib/handleFileChanges/index.js</title>
<path fill="none" stroke="#888888" d="M47.2947,-208.2802C52.2132,-272.7726 70.8745,-489.0096 103.9414,-549 154.8302,-641.3231 189.2648,-655.385 281.7383,-706 293.0786,-712.2071 306.3394,-716.8073 318.6302,-720.1491"/>
<polygon fill="#888888" stroke="#888888" points="318.1116,-723.6275 328.6628,-722.6679 319.8161,-716.8382 318.1116,-723.6275"/>
</g>
<!-- lib/readIgnores.js -->
<g id="node9" class="node">
<title>lib/readIgnores.js</title>
<polygon fill="#ffff99" stroke="#000000" points="406.168,-166 311.3398,-166 311.3398,-130 406.168,-130 406.168,-166"/>
<text text-anchor="middle" x="358.7539" y="-143.8" font-family="Times,serif" font-size="14.00" fill="#000000">readIgnores.js</text>
</g>
<!-- lib/buildJob.js&#45;&gt;lib/readIgnores.js -->
<g id="edge7" class="edge">
<title>lib/buildJob.js&#45;&gt;lib/readIgnores.js</title>
<path fill="none" stroke="#888888" d="M217.4359,-149.5709C241.7895,-149.3002 273.6959,-148.9455 301.0278,-148.6417"/>
<polygon fill="#888888" stroke="#888888" points="301.2933,-152.1391 311.2538,-148.528 301.2155,-145.1395 301.2933,-152.1391"/>
</g>
<!-- lib/fileInfo.js -->
<g id="node3" class="node">
<title>lib/fileInfo.js</title>
<polygon fill="#ffff99" stroke="#000000" points="813.9199,-242 743.8164,-242 743.8164,-206 813.9199,-206 813.9199,-242"/>
<text text-anchor="middle" x="778.8682" y="-219.8" font-family="Times,serif" font-size="14.00" fill="#000000">fileInfo.js</text>
</g>
<!-- lib/findFiles.js -->
<g id="node4" class="node">
<title>lib/findFiles.js</title>
<polygon fill="#ffff99" stroke="#000000" points="611.7472,-620 534.0438,-620 534.0438,-584 611.7472,-584 611.7472,-620"/>
<text text-anchor="middle" x="572.8955" y="-597.8" font-family="Times,serif" font-size="14.00" fill="#000000">findFiles.js</text>
</g>
<!-- lib/findSourceFiles.js&#45;&gt;lib/findFiles.js -->
<g id="edge9" class="edge">
<title>lib/findSourceFiles.js&#45;&gt;lib/findFiles.js</title>
<path fill="none" stroke="#888888" d="M368.5357,-462.2956C385.4196,-491.9958 422.9653,-550.3575 471.7695,-580 487.3025,-589.4343 506.348,-594.8479 523.7055,-597.9453"/>
<polygon fill="#888888" stroke="#888888" points="523.2689,-601.4195 533.691,-599.5141 524.3554,-594.5043 523.2689,-601.4195"/>
</g>
<!-- lib/ignoreFilter.js -->
<g id="node6" class="node">
<title>lib/ignoreFilter.js</title>
<polygon fill="#ffff99" stroke="#000000" points="620.0646,-674 525.7264,-674 525.7264,-638 620.0646,-638 620.0646,-674"/>
<text text-anchor="middle" x="572.8955" y="-651.8" font-family="Times,serif" font-size="14.00" fill="#000000">ignoreFilter.js</text>
</g>
<!-- lib/findSourceFiles.js&#45;&gt;lib/ignoreFilter.js -->
<g id="edge10" class="edge">
<title>lib/findSourceFiles.js&#45;&gt;lib/ignoreFilter.js</title>
<path fill="none" stroke="#888888" d="M364.6297,-462.162C377.6428,-499.4262 412.5224,-584.7352 471.7695,-629 484.4873,-638.5017 500.3021,-644.6627 515.6189,-648.6565"/>
<polygon fill="#888888" stroke="#888888" points="515.0408,-652.1156 525.5748,-650.9814 516.6327,-645.299 515.0408,-652.1156"/>
</g>
<!-- lib/analyzeFiles/index.js -->
<g id="node11" class="node">
<title>lib/analyzeFiles/index.js</title>
<polygon fill="#ffff99" stroke="#000000" points="602.8369,-462 542.9541,-462 542.9541,-426 602.8369,-426 602.8369,-462"/>
<text text-anchor="middle" x="572.8955" y="-439.8" font-family="Times,serif" font-size="14.00" fill="#000000">index.js</text>
</g>
<!-- lib/findSourceFiles.js&#45;&gt;lib/analyzeFiles/index.js -->
<g id="edge8" class="edge">
<title>lib/findSourceFiles.js&#45;&gt;lib/analyzeFiles/index.js</title>
<path fill="none" stroke="#888888" d="M416.9862,-444C453.6421,-444 500.0174,-444 532.6264,-444"/>
<polygon fill="#888888" stroke="#888888" points="532.7003,-447.5001 542.7003,-444 532.7002,-440.5001 532.7003,-447.5001"/>
</g>
<!-- lib/analyzeFiles/decorateRequire.js -->
<g id="node10" class="node">
<title>lib/analyzeFiles/decorateRequire.js</title>
<polygon fill="#ffff99" stroke="#000000" points="1004.0594,-356 883.9328,-356 883.9328,-320 1004.0594,-320 1004.0594,-356"/>
<text text-anchor="middle" x="943.9961" y="-333.8" font-family="Times,serif" font-size="14.00" fill="#000000">decorateRequire.js</text>
</g>
<!-- lib/analyzeFiles/sourceFileAnalyzer.js -->
<g id="node12" class="node">
<title>lib/analyzeFiles/sourceFileAnalyzer.js</title>
<polygon fill="#ffff99" stroke="#000000" points="847.5619,-462 710.1745,-462 710.1745,-426 847.5619,-426 847.5619,-462"/>
<text text-anchor="middle" x="778.8682" y="-439.8" font-family="Times,serif" font-size="14.00" fill="#000000">sourceFileAnalyzer.js</text>
</g>
<!-- lib/analyzeFiles/index.js&#45;&gt;lib/analyzeFiles/sourceFileAnalyzer.js -->
<g id="edge11" class="edge">
<title>lib/analyzeFiles/index.js&#45;&gt;lib/analyzeFiles/sourceFileAnalyzer.js</title>
<path fill="none" stroke="#888888" d="M602.8457,-444C628.2254,-444 665.7973,-444 699.7186,-444"/>
<polygon fill="#888888" stroke="#888888" points="700.1112,-447.5001 710.1111,-444 700.1111,-440.5001 700.1112,-447.5001"/>
</g>
<!-- lib/analyzeFiles/sourceFileAnalyzer.js&#45;&gt;lib/analyzeFiles/decorateRequire.js -->
<g id="edge14" class="edge">
<title>lib/analyzeFiles/sourceFileAnalyzer.js&#45;&gt;lib/analyzeFiles/decorateRequire.js</title>
<path fill="none" stroke="#888888" d="M842.1767,-425.9799C844.1011,-424.7397 845.9544,-423.415 847.7148,-422 870.1257,-403.9877 861.5162,-384.6609 881.3275,-363.2024"/>
<polygon fill="#888888" stroke="#888888" points="883.9361,-365.5542 888.8338,-356.1594 879.1463,-360.4495 883.9361,-365.5542"/>
</g>
<!-- lib/analyzeFiles/findRequires/index.js -->
<g id="node14" class="node">
<title>lib/analyzeFiles/findRequires/index.js</title>
<polygon fill="#ffff99" stroke="#000000" points="973.9375,-462 914.0547,-462 914.0547,-426 973.9375,-426 973.9375,-462"/>
<text text-anchor="middle" x="943.9961" y="-439.8" font-family="Times,serif" font-size="14.00" fill="#000000">index.js</text>
</g>
<!-- lib/analyzeFiles/sourceFileAnalyzer.js&#45;&gt;lib/analyzeFiles/findRequires/index.js -->
<g id="edge13" class="edge">
<title>lib/analyzeFiles/sourceFileAnalyzer.js&#45;&gt;lib/analyzeFiles/findRequires/index.js</title>
<path fill="none" stroke="#888888" d="M847.9405,-444C866.9693,-444 886.9808,-444 903.7834,-444"/>
<polygon fill="#888888" stroke="#888888" points="903.7932,-447.5001 913.7931,-444 903.7931,-440.5001 903.7932,-447.5001"/>
</g>
<!-- lib/handleFileChanges/sourceFile.js -->
<g id="node29" class="node">
<title>lib/handleFileChanges/sourceFile.js</title>
<polygon fill="#ffff99" stroke="#000000" points="987.6515,-726 900.3407,-726 900.3407,-690 987.6515,-690 987.6515,-726"/>
<text text-anchor="middle" x="943.9961" y="-703.8" font-family="Times,serif" font-size="14.00" fill="#000000">sourceFile.js</text>
</g>
<!-- lib/analyzeFiles/sourceFileAnalyzer.js&#45;&gt;lib/handleFileChanges/sourceFile.js -->
<g id="edge12" class="edge">
<title>lib/analyzeFiles/sourceFileAnalyzer.js&#45;&gt;lib/handleFileChanges/sourceFile.js</title>
<path fill="none" stroke="#888888" d="M790.2181,-462.1458C818.7346,-507.7369 893.504,-627.2753 927.1561,-681.0768"/>
<polygon fill="#888888" stroke="#888888" points="924.2964,-683.1051 932.5668,-689.7272 930.2311,-679.393 924.2964,-683.1051"/>
</g>
<!-- lib/analyzeFiles/findRequires/coffeescriptRequireFinder.js -->
<g id="node13" class="node">
<title>lib/analyzeFiles/findRequires/coffeescriptRequireFinder.js</title>
<polygon fill="#ffff99" stroke="#000000" points="1214.9245,-408 1040.3949,-408 1040.3949,-372 1214.9245,-372 1214.9245,-408"/>
<text text-anchor="middle" x="1127.6597" y="-385.8" font-family="Times,serif" font-size="14.00" fill="#000000">coffeescriptRequireFinder.js</text>
</g>
<!-- lib/analyzeFiles/findRequires/requirePathFilter.js -->
<g id="node16" class="node">
<title>lib/analyzeFiles/findRequires/requirePathFilter.js</title>
<polygon fill="#ffff99" stroke="#000000" points="1373.9439,-462 1251.0747,-462 1251.0747,-426 1373.9439,-426 1373.9439,-462"/>
<text text-anchor="middle" x="1312.5093" y="-439.8" font-family="Times,serif" font-size="14.00" fill="#000000">requirePathFilter.js</text>
</g>
<!-- lib/analyzeFiles/findRequires/coffeescriptRequireFinder.js&#45;&gt;lib/analyzeFiles/findRequires/requirePathFilter.js -->
<g id="edge15" class="edge">
<title>lib/analyzeFiles/findRequires/coffeescriptRequireFinder.js&#45;&gt;lib/analyzeFiles/findRequires/requirePathFilter.js</title>
<path fill="none" stroke="#888888" d="M1189.4689,-408.0563C1206.051,-412.9004 1224.1154,-418.1775 1241.1682,-423.1592"/>
<polygon fill="#888888" stroke="#888888" points="1240.4926,-426.6081 1251.0729,-426.0526 1242.4556,-419.8889 1240.4926,-426.6081"/>
</g>
<!-- lib/analyzeFiles/findRequires/index.js&#45;&gt;lib/analyzeFiles/findRequires/coffeescriptRequireFinder.js -->
<g id="edge18" class="edge">
<title>lib/analyzeFiles/findRequires/index.js&#45;&gt;lib/analyzeFiles/findRequires/coffeescriptRequireFinder.js</title>
<path fill="none" stroke="#888888" d="M974.3244,-435.083C996.6537,-428.5178 1027.9618,-419.3127 1056.4707,-410.9307"/>
<polygon fill="#888888" stroke="#888888" points="1057.812,-414.1846 1066.4186,-408.0058 1055.8374,-407.4688 1057.812,-414.1846"/>
</g>
<!-- lib/analyzeFiles/findRequires/javascriptRequireFinder.js -->
<g id="node15" class="node">
<title>lib/analyzeFiles/findRequires/javascriptRequireFinder.js</title>
<polygon fill="#ffff99" stroke="#000000" points="1209.5224,-462 1045.797,-462 1045.797,-426 1209.5224,-426 1209.5224,-462"/>
<text text-anchor="middle" x="1127.6597" y="-439.8" font-family="Times,serif" font-size="14.00" fill="#000000">javascriptRequireFinder.js</text>
</g>
<!-- lib/analyzeFiles/findRequires/index.js&#45;&gt;lib/analyzeFiles/findRequires/javascriptRequireFinder.js -->
<g id="edge16" class="edge">
<title>lib/analyzeFiles/findRequires/index.js&#45;&gt;lib/analyzeFiles/findRequires/javascriptRequireFinder.js</title>
<path fill="none" stroke="#888888" d="M974.3244,-444C991.2884,-444 1013.4347,-444 1035.5988,-444"/>
<polygon fill="#888888" stroke="#888888" points="1035.765,-447.5001 1045.765,-444 1035.7649,-440.5001 1035.765,-447.5001"/>
</g>
<!-- lib/analyzeFiles/findRequires/typescriptRequireFinder.js -->
<g id="node17" class="node">
<title>lib/analyzeFiles/findRequires/typescriptRequireFinder.js</title>
<polygon fill="#ffff99" stroke="#000000" points="1209.8082,-516 1045.5112,-516 1045.5112,-480 1209.8082,-480 1209.8082,-516"/>
<text text-anchor="middle" x="1127.6597" y="-493.8" font-family="Times,serif" font-size="14.00" fill="#000000">typescriptRequireFinder.js</text>
</g>
<!-- lib/analyzeFiles/findRequires/index.js&#45;&gt;lib/analyzeFiles/findRequires/typescriptRequireFinder.js -->
<g id="edge17" class="edge">
<title>lib/analyzeFiles/findRequires/index.js&#45;&gt;lib/analyzeFiles/findRequires/typescriptRequireFinder.js</title>
<path fill="none" stroke="#888888" d="M974.3244,-452.917C996.6537,-459.4822 1027.9618,-468.6873 1056.4707,-477.0693"/>
<polygon fill="#888888" stroke="#888888" points="1055.8374,-480.5312 1066.4186,-479.9942 1057.812,-473.8154 1055.8374,-480.5312"/>
</g>
<!-- lib/analyzeFiles/findRequires/javascriptRequireFinder.js&#45;&gt;lib/analyzeFiles/findRequires/requirePathFilter.js -->
<g id="edge19" class="edge">
<title>lib/analyzeFiles/findRequires/javascriptRequireFinder.js&#45;&gt;lib/analyzeFiles/findRequires/requirePathFilter.js</title>
<path fill="none" stroke="#888888" d="M1209.5446,-444C1219.9742,-444 1230.5852,-444 1240.837,-444"/>
<polygon fill="#888888" stroke="#888888" points="1240.949,-447.5001 1250.949,-444 1240.949,-440.5001 1240.949,-447.5001"/>
</g>
<!-- lib/analyzeFiles/findRequires/typescriptRequireFinder.js&#45;&gt;lib/analyzeFiles/findRequires/requirePathFilter.js -->
<g id="edge20" class="edge">
<title>lib/analyzeFiles/findRequires/typescriptRequireFinder.js&#45;&gt;lib/analyzeFiles/findRequires/requirePathFilter.js</title>
<path fill="none" stroke="#888888" d="M1189.4689,-479.9437C1206.051,-475.0996 1224.1154,-469.8225 1241.1682,-464.8408"/>
<polygon fill="#888888" stroke="#888888" points="1242.4556,-468.1111 1251.0729,-461.9474 1240.4926,-461.3919 1242.4556,-468.1111"/>
</g>
<!-- lib/findChangedRequires/changedRequiresForSingleFile.js -->
<g id="node18" class="node">
<title>lib/findChangedRequires/changedRequiresForSingleFile.js</title>
<polygon fill="#ffff99" stroke="#000000" points="674.1476,-269 471.6434,-269 471.6434,-233 674.1476,-233 674.1476,-269"/>
<text text-anchor="middle" x="572.8955" y="-246.8" font-family="Times,serif" font-size="14.00" fill="#000000">changedRequiresForSingleFile.js</text>
</g>
<!-- lib/findChangedRequires/changedRequiresForSingleFile.js&#45;&gt;lib/fileInfo.js -->
<g id="edge21" class="edge">
<title>lib/findChangedRequires/changedRequiresForSingleFile.js&#45;&gt;lib/fileInfo.js</title>
<path fill="none" stroke="#888888" d="M674.0716,-237.7373C694.9929,-234.9948 716.0139,-232.2393 733.6794,-229.9236"/>
<polygon fill="#888888" stroke="#888888" points="734.2066,-233.3845 743.6668,-228.6144 733.2967,-226.4439 734.2066,-233.3845"/>
</g>
<!-- lib/findChangedRequires/fileLocationCalculator.js -->
<g id="node19" class="node">
<title>lib/findChangedRequires/fileLocationCalculator.js</title>
<polygon fill="#ffff99" stroke="#000000" points="435.7852,-220 281.7227,-220 281.7227,-184 435.7852,-184 435.7852,-220"/>
<text text-anchor="middle" x="358.7539" y="-197.8" font-family="Times,serif" font-size="14.00" fill="#000000">fileLocationCalculator.js</text>
</g>
<!-- lib/findChangedRequires/fileLocationCalculator.js&#45;&gt;lib/fileInfo.js -->
<g id="edge22" class="edge">
<title>lib/findChangedRequires/fileLocationCalculator.js&#45;&gt;lib/fileInfo.js</title>
<path fill="none" stroke="#888888" d="M435.8093,-206.0351C523.0725,-210.6048 662.358,-217.8987 733.6318,-221.6311"/>
<polygon fill="#888888" stroke="#888888" points="733.4705,-225.1274 743.6399,-222.1552 733.8366,-218.137 733.4705,-225.1274"/>
</g>
<!-- lib/findChangedRequires/fileMoveCalculator.js -->
<g id="node20" class="node">
<title>lib/findChangedRequires/fileMoveCalculator.js</title>
<polygon fill="#ffff99" stroke="#000000" points="427.1885,-274 290.3193,-274 290.3193,-238 427.1885,-238 427.1885,-274"/>
<text text-anchor="middle" x="358.7539" y="-251.8" font-family="Times,serif" font-size="14.00" fill="#000000">fileMoveCalculator.js</text>
</g>
<!-- lib/findChangedRequires/fileMoveCalculator.js&#45;&gt;lib/findChangedRequires/changedRequiresForSingleFile.js -->
<g id="edge23" class="edge">
<title>lib/findChangedRequires/fileMoveCalculator.js&#45;&gt;lib/findChangedRequires/changedRequiresForSingleFile.js</title>
<path fill="none" stroke="#888888" d="M427.3933,-254.3973C438.2744,-254.1433 449.7661,-253.875 461.3278,-253.605"/>
<polygon fill="#888888" stroke="#888888" points="461.577,-257.1002 471.4926,-253.3677 461.4135,-250.1021 461.577,-257.1002"/>
</g>
<!-- lib/findChangedRequires/index.js&#45;&gt;lib/findSourceFiles.js -->
<g id="edge25" class="edge">
<title>lib/findChangedRequires/index.js&#45;&gt;lib/findSourceFiles.js</title>
<path fill="none" stroke="#888888" d="M209.0798,-235.0713C221.4418,-238.3133 235.266,-243.5618 245.7383,-252 253.0571,-257.8973 314.4312,-365.5554 343.5435,-417.024"/>
<polygon fill="#888888" stroke="#888888" points="340.6168,-418.9591 348.5837,-425.9433 346.7111,-415.5152 340.6168,-418.9591"/>
</g>
<!-- lib/findChangedRequires/index.js&#45;&gt;lib/findChangedRequires/fileLocationCalculator.js -->
<g id="edge24" class="edge">
<title>lib/findChangedRequires/index.js&#45;&gt;lib/findChangedRequires/fileLocationCalculator.js</title>
<path fill="none" stroke="#888888" d="M208.9534,-225.3134C226.294,-222.6147 249.0641,-219.071 271.5995,-215.5638"/>
<polygon fill="#888888" stroke="#888888" points="272.2274,-219.0083 281.5702,-214.0121 271.1509,-212.0916 272.2274,-219.0083"/>
</g>
<!-- lib/findChangedRequires/index.js&#45;&gt;lib/findChangedRequires/fileMoveCalculator.js -->
<g id="edge26" class="edge">
<title>lib/findChangedRequires/index.js&#45;&gt;lib/findChangedRequires/fileMoveCalculator.js</title>
<path fill="none" stroke="#888888" d="M208.9534,-234.3518C228.4701,-237.1722 254.8646,-240.9866 280.0613,-244.6279"/>
<polygon fill="#888888" stroke="#888888" points="279.6154,-248.0997 290.0132,-246.066 280.6166,-241.1717 279.6154,-248.0997"/>
</g>
<!-- lib/handleFileChanges/applyChanges.js -->
<g id="node22" class="node">
<title>lib/handleFileChanges/applyChanges.js</title>
<polygon fill="#ffff99" stroke="#000000" points="627.0509,-802 518.7401,-802 518.7401,-766 627.0509,-766 627.0509,-802"/>
<text text-anchor="middle" x="572.8955" y="-779.8" font-family="Times,serif" font-size="14.00" fill="#000000">applyChanges.js</text>
</g>
<!-- lib/handleFileChanges/applyToFile.js -->
<g id="node23" class="node">
<title>lib/handleFileChanges/applyToFile.js</title>
<polygon fill="#ffff99" stroke="#000000" points="827.1635,-819 730.5728,-819 730.5728,-783 827.1635,-783 827.1635,-819"/>
<text text-anchor="middle" x="778.8682" y="-796.8" font-family="Times,serif" font-size="14.00" fill="#000000">applyToFile.js</text>
</g>
<!-- lib/handleFileChanges/applyChanges.js&#45;&gt;lib/handleFileChanges/applyToFile.js -->
<g id="edge27" class="edge">
<title>lib/handleFileChanges/applyChanges.js&#45;&gt;lib/handleFileChanges/applyToFile.js</title>
<path fill="none" stroke="#888888" d="M627.0124,-788.4665C655.6934,-790.8337 690.9573,-793.7443 720.2815,-796.1645"/>
<polygon fill="#888888" stroke="#888888" points="720.1315,-799.664 730.3855,-796.9985 720.7074,-792.6877 720.1315,-799.664"/>
</g>
<!-- lib/handleFileChanges/printChanges.js -->
<g id="node28" class="node">
<title>lib/handleFileChanges/printChanges.js</title>
<polygon fill="#ffff99" stroke="#000000" points="830.8625,-765 726.8738,-765 726.8738,-729 830.8625,-729 830.8625,-765"/>
<text text-anchor="middle" x="778.8682" y="-742.8" font-family="Times,serif" font-size="14.00" fill="#000000">printChanges.js</text>
</g>
<!-- lib/handleFileChanges/applyChanges.js&#45;&gt;lib/handleFileChanges/printChanges.js -->
<g id="edge28" class="edge">
<title>lib/handleFileChanges/applyChanges.js&#45;&gt;lib/handleFileChanges/printChanges.js</title>
<path fill="none" stroke="#888888" d="M627.0124,-774.2787C654.6272,-769.3181 688.3446,-763.2613 716.9871,-758.116"/>
<polygon fill="#888888" stroke="#888888" points="717.6648,-761.5504 726.8884,-756.3374 716.4271,-754.6607 717.6648,-761.5504"/>
</g>
<!-- lib/handleFileChanges/editLine.js -->
<g id="node25" class="node">
<title>lib/handleFileChanges/editLine.js</title>
<polygon fill="#ffff99" stroke="#000000" points="981.984,-834 906.0082,-834 906.0082,-798 981.984,-798 981.984,-834"/>
<text text-anchor="middle" x="943.9961" y="-811.8" font-family="Times,serif" font-size="14.00" fill="#000000">editLine.js</text>
</g>
<!-- lib/handleFileChanges/applyToFile.js&#45;&gt;lib/handleFileChanges/editLine.js -->
<g id="edge30" class="edge">
<title>lib/handleFileChanges/applyToFile.js&#45;&gt;lib/handleFileChanges/editLine.js</title>
<path fill="none" stroke="#888888" d="M827.0739,-805.3789C848.8516,-807.3572 874.5109,-809.6881 896.2353,-811.6615"/>
<polygon fill="#888888" stroke="#888888" points="895.954,-815.1502 906.2297,-812.5694 896.5874,-808.1789 895.954,-815.1502"/>
</g>
<!-- lib/handleFileChanges/getLineEdits.js -->
<g id="node26" class="node">
<title>lib/handleFileChanges/getLineEdits.js</title>
<polygon fill="#ffff99" stroke="#000000" points="994.3728,-780 893.6194,-780 893.6194,-744 994.3728,-744 994.3728,-780"/>
<text text-anchor="middle" x="943.9961" y="-757.8" font-family="Times,serif" font-size="14.00" fill="#000000">getLineEdits.js</text>
</g>
<!-- lib/handleFileChanges/applyToFile.js&#45;&gt;lib/handleFileChanges/getLineEdits.js -->
<g id="edge29" class="edge">
<title>lib/handleFileChanges/applyToFile.js&#45;&gt;lib/handleFileChanges/getLineEdits.js</title>
<path fill="none" stroke="#888888" d="M827.0739,-789.6147C844.8263,-785.422 865.1579,-780.62 883.8349,-776.2089"/>
<polygon fill="#888888" stroke="#888888" points="884.7923,-779.5792 893.7201,-773.8742 883.1833,-772.7666 884.7923,-779.5792"/>
</g>
<!-- lib/handleFileChanges/applyToFile.js&#45;&gt;lib/handleFileChanges/sourceFile.js -->
<g id="edge31" class="edge">
<title>lib/handleFileChanges/applyToFile.js&#45;&gt;lib/handleFileChanges/sourceFile.js</title>
<path fill="none" stroke="#888888" d="M827.3199,-785.2349C834.4331,-782.0127 841.4611,-778.2744 847.7148,-774 867.1896,-760.6892 864.5607,-748.7682 883.7148,-735 886.1954,-733.2169 888.8126,-731.5125 891.511,-729.8898"/>
<polygon fill="#888888" stroke="#888888" points="893.2942,-732.903 900.3379,-724.9886 889.8961,-726.7831 893.2942,-732.903"/>
</g>
<!-- lib/handleFileChanges/checkForErrors.js -->
<g id="node24" class="node">
<title>lib/handleFileChanges/checkForErrors.js</title>
<polygon fill="#ffff99" stroke="#000000" points="630.8096,-728 514.9814,-728 514.9814,-692 630.8096,-692 630.8096,-728"/>
<text text-anchor="middle" x="572.8955" y="-705.8" font-family="Times,serif" font-size="14.00" fill="#000000">checkForErrors.js</text>
</g>
<!-- lib/handleFileChanges/index.js&#45;&gt;lib/handleFileChanges/applyChanges.js -->
<g id="edge34" class="edge">
<title>lib/handleFileChanges/index.js&#45;&gt;lib/handleFileChanges/applyChanges.js</title>
<path fill="none" stroke="#888888" d="M388.981,-735.9047C419.9092,-743.9927 468.9175,-756.8088 508.5687,-767.1779"/>
<polygon fill="#888888" stroke="#888888" points="507.871,-770.6131 518.4312,-769.7571 509.6421,-763.8409 507.871,-770.6131"/>
</g>
<!-- lib/handleFileChanges/index.js&#45;&gt;lib/handleFileChanges/checkForErrors.js -->
<g id="edge32" class="edge">
<title>lib/handleFileChanges/index.js&#45;&gt;lib/handleFileChanges/checkForErrors.js</title>
<path fill="none" stroke="#888888" d="M388.981,-725.4592C418.8257,-722.9506 465.5057,-719.0268 504.368,-715.7602"/>
<polygon fill="#888888" stroke="#888888" points="504.9098,-719.2271 514.5815,-714.9017 504.3235,-712.2517 504.9098,-719.2271"/>
</g>
<!-- lib/handleFileChanges/index.js&#45;&gt;lib/handleFileChanges/printChanges.js -->
<g id="edge33" class="edge">
<title>lib/handleFileChanges/index.js&#45;&gt;lib/handleFileChanges/printChanges.js</title>
<path fill="none" stroke="#888888" d="M388.9478,-730.7916C411.6965,-732.8008 443.6671,-735.4244 471.7695,-737 556.6545,-741.7593 654.8748,-744.4686 716.9255,-745.8357"/>
<polygon fill="#888888" stroke="#888888" points="716.8706,-749.3352 726.9438,-746.0516 717.0215,-742.3368 716.8706,-749.3352"/>
</g>
<!-- lib/handleFileChanges/printChanges.js&#45;&gt;lib/handleFileChanges/editLine.js -->
<g id="edge36" class="edge">
<title>lib/handleFileChanges/printChanges.js&#45;&gt;lib/handleFileChanges/editLine.js</title>
<path fill="none" stroke="#888888" d="M825.6257,-765.0637C833.0345,-768.0046 840.5974,-771.0532 847.7148,-774 863.7615,-780.6437 881.1935,-788.1568 896.7596,-794.973"/>
<polygon fill="#888888" stroke="#888888" points="895.6182,-798.2945 906.1814,-799.113 898.4342,-791.8858 895.6182,-798.2945"/>
</g>
<!-- lib/handleFileChanges/printChanges.js&#45;&gt;lib/handleFileChanges/getLineEdits.js -->
<g id="edge37" class="edge">
<title>lib/handleFileChanges/printChanges.js&#45;&gt;lib/handleFileChanges/getLineEdits.js</title>
<path fill="none" stroke="#888888" d="M830.6626,-751.7049C847.5036,-753.2348 866.3377,-754.9456 883.7419,-756.5266"/>
<polygon fill="#888888" stroke="#888888" points="883.5225,-760.021 893.7981,-757.4401 884.1558,-753.0497 883.5225,-760.021"/>
</g>
<!-- lib/handleFileChanges/printChanges.js&#45;&gt;lib/handleFileChanges/sourceFile.js -->
<g id="edge35" class="edge">
<title>lib/handleFileChanges/printChanges.js&#45;&gt;lib/handleFileChanges/sourceFile.js</title>
<path fill="none" stroke="#888888" d="M830.6626,-734.7672C849.6709,-730.2778 871.2183,-725.1887 890.3829,-720.6624"/>
<polygon fill="#888888" stroke="#888888" points="891.2337,-724.0578 900.1615,-718.3529 889.6247,-717.2452 891.2337,-724.0578"/>
</g>
</g>
</svg>
