<?xml version="1.0" encoding="UTF-8" standalone="no"?>
<!DOCTYPE svg PUBLIC "-//W3C//DTD SVG 1.1//EN"
 "http://www.w3.org/Graphics/SVG/1.1/DTD/svg11.dtd">
<!-- Generated by graphviz version 2.40.1 (20161225.0304)
 -->
<!-- Title: Files Pages: 1 -->
<svg width="1481pt" height="1034pt"
 viewBox="0.00 0.00 1480.63 1034.00" xmlns="http://www.w3.org/2000/svg" xmlns:xlink="http://www.w3.org/1999/xlink">
<g id="graph0" class="graph" transform="scale(1 1) rotate(0) translate(4 1030)">
<title>Files</title>
<polygon fill="#ffffff" stroke="transparent" points="-4,4 -4,-1030 1476.6348,-1030 1476.6348,4 -4,4"/>
<g id="clust1" class="cluster">
<title>cluster_0</title>
<polygon fill="#ffeedd" stroke="#000000" stroke-width=".5" points="8,-8 8,-1018 1464.6348,-1018 1464.6348,-8 8,-8"/>
<text text-anchor="middle" x="736.3174" y="-1002.8" font-family="Times,serif" font-size="14.00" fill="#000000">/Users/dave/src/dmf/node&#45;trucker/</text>
</g>
<g id="clust2" class="cluster">
<title>cluster_1</title>
<polygon fill="#eeddff" stroke="#000000" stroke-width=".5" points="16,-16 16,-988 1456.6348,-988 1456.6348,-16 16,-16"/>
<text text-anchor="middle" x="736.3174" y="-972.8" font-family="Times,serif" font-size="14.00" fill="#000000">src/</text>
</g>
<g id="clust3" class="cluster">
<title>cluster_2</title>
<polygon fill="#ddffee" stroke="#000000" stroke-width=".5" points="525.8281,-342 525.8281,-658 1320.2588,-658 1320.2588,-342 525.8281,-342"/>
<text text-anchor="middle" x="923.0435" y="-642.8" font-family="Times,serif" font-size="14.00" fill="#000000">src/analyzeFiles/</text>
</g>
<g id="clust4" class="cluster">
<title>cluster_3</title>
<polygon fill="#ffddee" stroke="#000000" stroke-width=".5" points="866.6182,-402 866.6182,-584 1312.2588,-584 1312.2588,-402 866.6182,-402"/>
<text text-anchor="middle" x="1089.4385" y="-568.8" font-family="Times,serif" font-size="14.00" fill="#000000">src/analyzeFiles/findRequires/</text>
</g>
<g id="clust5" class="cluster">
<title>cluster_4</title>
<polygon fill="#ddffee" stroke="#000000" stroke-width=".5" points="148.8691,-124 148.8691,-198 413.6626,-198 413.6626,-124 148.8691,-124"/>
<text text-anchor="middle" x="281.2659" y="-182.8" font-family="Times,serif" font-size="14.00" fill="#000000">src/buildJob/</text>
</g>
<g id="clust6" class="cluster">
<title>cluster_5</title>
<polygon fill="#ddffee" stroke="#000000" stroke-width=".5" points="148.8691,-758 148.8691,-906 812.7974,-906 812.7974,-758 148.8691,-758"/>
<text text-anchor="middle" x="480.8333" y="-890.8" font-family="Times,serif" font-size="14.00" fill="#000000">src/findChangedRequires/</text>
</g>
<g id="clust7" class="cluster">
<title>cluster_6</title>
<polygon fill="#ddffee" stroke="#000000" stroke-width=".5" points="320.2349,-206 320.2349,-334 844.6836,-334 844.6836,-206 320.2349,-206"/>
<text text-anchor="middle" x="582.4592" y="-318.8" font-family="Times,serif" font-size="14.00" fill="#000000">src/findSourceFiles/</text>
</g>
<g id="clust8" class="cluster">
<title>cluster_7</title>
<polygon fill="#ddffee" stroke="#000000" stroke-width=".5" points="866.6182,-776 866.6182,-958 1448.6348,-958 1448.6348,-776 866.6182,-776"/>
<text text-anchor="middle" x="1157.6265" y="-942.8" font-family="Times,serif" font-size="14.00" fill="#000000">src/handleFileChanges/</text>
</g>
<!-- src/index.ts -->
<g id="node1" class="node">
<title>src/index.ts</title>
<polygon fill="#ffff99" stroke="#000000" points="83.9121,-216 24.0293,-216 24.0293,-180 83.9121,-180 83.9121,-216"/>
<text text-anchor="middle" x="53.9707" y="-193.8" font-family="Times,serif" font-size="14.00" fill="#000000">index.ts</text>
</g>
<!-- src/printDependencies.ts -->
<g id="node2" class="node">
<title>src/printDependencies.ts</title>
<polygon fill="#ffff99" stroke="#000000" points="253.6369,-60 120.0428,-60 120.0428,-24 253.6369,-24 253.6369,-60"/>
<text text-anchor="middle" x="186.8398" y="-37.8" font-family="Times,serif" font-size="14.00" fill="#000000">printDependencies.ts</text>
</g>
<!-- src/index.ts&#45;&gt;src/printDependencies.ts -->
<g id="edge6" class="edge">
<title>src/index.ts&#45;&gt;src/printDependencies.ts</title>
<path fill="none" stroke="#888888" d="M58.8526,-179.6402C67.0674,-152.0637 86.1592,-99.898 119.9414,-69 121.2122,-67.8377 122.5394,-66.7224 123.9134,-65.6524"/>
<polygon fill="#888888" stroke="#888888" points="125.9198,-68.5207 132.2262,-60.0072 121.9871,-62.7298 125.9198,-68.5207"/>
</g>
<!-- src/printUnused.ts -->
<g id="node3" class="node">
<title>src/printUnused.ts</title>
<polygon fill="#ffff99" stroke="#000000" points="235.8916,-114 137.7881,-114 137.7881,-78 235.8916,-78 235.8916,-114"/>
<text text-anchor="middle" x="186.8398" y="-91.8" font-family="Times,serif" font-size="14.00" fill="#000000">printUnused.ts</text>
</g>
<!-- src/index.ts&#45;&gt;src/printUnused.ts -->
<g id="edge2" class="edge">
<title>src/index.ts&#45;&gt;src/printUnused.ts</title>
<path fill="none" stroke="#888888" d="M65.2285,-179.8151C76.9353,-162.2718 96.7729,-136.0761 119.9414,-120 122.6279,-118.1359 125.475,-116.4006 128.4208,-114.7873"/>
<polygon fill="#888888" stroke="#888888" points="130.0758,-117.8736 137.4919,-110.3071 126.9759,-111.5974 130.0758,-117.8736"/>
</g>
<!-- src/buildJob/index.ts -->
<g id="node14" class="node">
<title>src/buildJob/index.ts</title>
<polygon fill="#ffff99" stroke="#000000" points="216.7813,-168 156.8984,-168 156.8984,-132 216.7813,-132 216.7813,-168"/>
<text text-anchor="middle" x="186.8398" y="-145.8" font-family="Times,serif" font-size="14.00" fill="#000000">index.ts</text>
</g>
<!-- src/index.ts&#45;&gt;src/buildJob/index.ts -->
<g id="edge1" class="edge">
<title>src/index.ts&#45;&gt;src/buildJob/index.ts</title>
<path fill="none" stroke="#888888" d="M84.0464,-185.724C95.2592,-181.2592 108.1311,-176.2652 119.9414,-172 128.724,-168.8282 138.2206,-165.5908 147.2235,-162.6093"/>
<polygon fill="#888888" stroke="#888888" points="148.3291,-165.9302 156.7416,-159.4896 146.1489,-159.2783 148.3291,-165.9302"/>
</g>
<!-- src/findChangedRequires/index.ts -->
<g id="node20" class="node">
<title>src/findChangedRequires/index.ts</title>
<polygon fill="#ffff99" stroke="#000000" points="216.7813,-802 156.8984,-802 156.8984,-766 216.7813,-766 216.7813,-802"/>
<text text-anchor="middle" x="186.8398" y="-779.8" font-family="Times,serif" font-size="14.00" fill="#000000">index.ts</text>
</g>
<!-- src/index.ts&#45;&gt;src/findChangedRequires/index.ts -->
<g id="edge3" class="edge">
<title>src/index.ts&#45;&gt;src/findChangedRequires/index.ts</title>
<path fill="none" stroke="#888888" d="M54.9396,-216.1009C59.9996,-307.8223 84.517,-718.6177 119.9414,-762 126.7391,-770.3248 136.7566,-775.5264 146.981,-778.7683"/>
<polygon fill="#888888" stroke="#888888" points="146.1894,-782.1788 156.7488,-781.3138 147.9547,-775.405 146.1894,-782.1788"/>
</g>
<!-- src/findSourceFiles/index.ts -->
<g id="node25" class="node">
<title>src/findSourceFiles/index.ts</title>
<polygon fill="#ffff99" stroke="#000000" points="388.147,-304 328.2641,-304 328.2641,-268 388.147,-268 388.147,-304"/>
<text text-anchor="middle" x="358.2056" y="-281.8" font-family="Times,serif" font-size="14.00" fill="#000000">index.ts</text>
</g>
<!-- src/index.ts&#45;&gt;src/findSourceFiles/index.ts -->
<g id="edge5" class="edge">
<title>src/index.ts&#45;&gt;src/findSourceFiles/index.ts</title>
<path fill="none" stroke="#888888" d="M83.9745,-206.6786C139.0723,-222.6156 256.3797,-256.5469 318.1901,-274.4255"/>
<polygon fill="#888888" stroke="#888888" points="317.398,-277.8398 327.9768,-277.2563 319.3431,-271.1155 317.398,-277.8398"/>
</g>
<!-- src/handleFileChanges/index.ts -->
<g id="node31" class="node">
<title>src/handleFileChanges/index.ts</title>
<polygon fill="#ffff99" stroke="#000000" points="934.5303,-896 874.6474,-896 874.6474,-860 934.5303,-860 934.5303,-896"/>
<text text-anchor="middle" x="904.5889" y="-873.8" font-family="Times,serif" font-size="14.00" fill="#000000">index.ts</text>
</g>
<!-- src/index.ts&#45;&gt;src/handleFileChanges/index.ts -->
<g id="edge4" class="edge">
<title>src/index.ts&#45;&gt;src/handleFileChanges/index.ts</title>
<path fill="none" stroke="#888888" d="M54.2455,-216.3351C56.0282,-323.0682 67.5844,-861.2543 119.9414,-910 197.4629,-982.1744 252.2871,-915 358.2056,-915 358.2056,-915 358.2056,-915 563.7988,-915 688.6563,-915 723.8387,-941.3988 844.6836,-910 852.7158,-907.913 860.8594,-904.5548 868.4462,-900.7821"/>
<polygon fill="#888888" stroke="#888888" points="870.1929,-903.8173 877.3792,-896.0322 866.9065,-897.6367 870.1929,-903.8173"/>
</g>
<!-- src/types.ts -->
<g id="node4" class="node">
<title>src/types.ts</title>
<polygon fill="#ffff99" stroke="#000000" points="1272.1825,-725 1213.4005,-725 1213.4005,-689 1272.1825,-689 1272.1825,-725"/>
<text text-anchor="middle" x="1242.7915" y="-702.8" font-family="Times,serif" font-size="14.00" fill="#000000">types.ts</text>
</g>
<!-- src/analyzeFiles/decorateRequire.ts -->
<g id="node5" class="node">
<title>src/analyzeFiles/decorateRequire.ts</title>
<polygon fill="#ffff99" stroke="#000000" points="1118.0052,-628 997.8786,-628 997.8786,-592 1118.0052,-592 1118.0052,-628"/>
<text text-anchor="middle" x="1057.9419" y="-605.8" font-family="Times,serif" font-size="14.00" fill="#000000">decorateRequire.ts</text>
</g>
<!-- src/analyzeFiles/decorateRequire.ts&#45;&gt;src/types.ts -->
<g id="edge7" class="edge">
<title>src/analyzeFiles/decorateRequire.ts&#45;&gt;src/types.ts</title>
<path fill="none" stroke="#888888" d="M1118.32,-621.7427C1127.59,-624.5236 1136.8774,-627.9067 1145.3242,-632 1171.8876,-644.8726 1198.1861,-665.7149 1216.7587,-682.1649"/>
<polygon fill="#888888" stroke="#888888" points="1214.4573,-684.8026 1224.2236,-688.9099 1219.1503,-679.6087 1214.4573,-684.8026"/>
</g>
<!-- src/analyzeFiles/types.ts -->
<g id="node8" class="node">
<title>src/analyzeFiles/types.ts</title>
<polygon fill="#ffff99" stroke="#000000" points="1272.1825,-394 1213.4005,-394 1213.4005,-358 1272.1825,-358 1272.1825,-394"/>
<text text-anchor="middle" x="1242.7915" y="-371.8" font-family="Times,serif" font-size="14.00" fill="#000000">types.ts</text>
</g>
<!-- src/analyzeFiles/decorateRequire.ts&#45;&gt;src/analyzeFiles/types.ts -->
<g id="edge8" class="edge">
<title>src/analyzeFiles/decorateRequire.ts&#45;&gt;src/analyzeFiles/types.ts</title>
<path fill="none" stroke="#888888" d="M1118.2999,-604.3583C1128.4436,-600.9235 1138.0287,-595.7421 1145.3242,-588 1204.2667,-525.4489 1125.4857,-463.337 1181.3242,-398 1187.2095,-391.1136 1195.411,-386.3828 1203.9089,-383.1328"/>
<polygon fill="#888888" stroke="#888888" points="1205.0641,-386.438 1213.5216,-380.0567 1202.9306,-379.7711 1205.0641,-386.438"/>
</g>
<!-- src/analyzeFiles/index.ts -->
<g id="node6" class="node">
<title>src/analyzeFiles/index.ts</title>
<polygon fill="#ffff99" stroke="#000000" points="593.7403,-416 533.8574,-416 533.8574,-380 593.7403,-380 593.7403,-416"/>
<text text-anchor="middle" x="563.7988" y="-393.8" font-family="Times,serif" font-size="14.00" fill="#000000">index.ts</text>
</g>
<!-- src/analyzeFiles/index.ts&#45;&gt;src/types.ts -->
<g id="edge10" class="edge">
<title>src/analyzeFiles/index.ts&#45;&gt;src/types.ts</title>
<path fill="none" stroke="#888888" d="M594.1826,-399.9798C615.1603,-402.4197 643.0981,-407.8625 664.9248,-420 777.4643,-482.5813 757.1163,-560.2437 866.6182,-628 907.8344,-653.5033 923.1916,-650.7302 970.5596,-661 1047.0152,-677.5763 1068.4321,-667.5837 1145.3242,-682 1164.7008,-685.6329 1185.9346,-690.921 1203.6228,-695.6991"/>
<polygon fill="#888888" stroke="#888888" points="1203.0167,-699.1622 1213.5867,-698.437 1204.8715,-692.4124 1203.0167,-699.1622"/>
</g>
<!-- src/analyzeFiles/sourceFileAnalyzer.ts -->
<g id="node7" class="node">
<title>src/analyzeFiles/sourceFileAnalyzer.ts</title>
<polygon fill="#ffff99" stroke="#000000" points="838.4652,-431 701.0778,-431 701.0778,-395 838.4652,-395 838.4652,-431"/>
<text text-anchor="middle" x="769.7715" y="-408.8" font-family="Times,serif" font-size="14.00" fill="#000000">sourceFileAnalyzer.ts</text>
</g>
<!-- src/analyzeFiles/index.ts&#45;&gt;src/analyzeFiles/sourceFileAnalyzer.ts -->
<g id="edge9" class="edge">
<title>src/analyzeFiles/index.ts&#45;&gt;src/analyzeFiles/sourceFileAnalyzer.ts</title>
<path fill="none" stroke="#888888" d="M593.749,-400.1811C619.1287,-402.0294 656.7006,-404.7656 690.6219,-407.2359"/>
<polygon fill="#888888" stroke="#888888" points="690.7866,-410.7571 701.0145,-407.9928 691.2951,-403.7756 690.7866,-410.7571"/>
</g>
<!-- src/analyzeFiles/index.ts&#45;&gt;src/analyzeFiles/types.ts -->
<g id="edge11" class="edge">
<title>src/analyzeFiles/index.ts&#45;&gt;src/analyzeFiles/types.ts</title>
<path fill="none" stroke="#888888" d="M593.7466,-395.2322C621.5183,-392.7004 663.9986,-388.9165 700.9248,-386 898.0023,-370.4343 947.8424,-357.9017 1145.3242,-367 1164.4812,-367.8826 1185.689,-369.736 1203.4168,-371.5328"/>
<polygon fill="#888888" stroke="#888888" points="1203.1012,-375.0188 1213.4106,-372.5764 1203.8283,-368.0566 1203.1012,-375.0188"/>
</g>
<!-- src/analyzeFiles/sourceFileAnalyzer.ts&#45;&gt;src/types.ts -->
<g id="edge16" class="edge">
<title>src/analyzeFiles/sourceFileAnalyzer.ts&#45;&gt;src/types.ts</title>
<path fill="none" stroke="#888888" d="M838.5686,-429.1186C840.7768,-430.8855 842.8302,-432.8396 844.6836,-435 892.5653,-490.8137 820.571,-541.6634 866.6182,-599 946.1382,-698.0161 1023.5352,-626.013 1145.3242,-662 1165.382,-667.9268 1186.5838,-677.3045 1204.0724,-685.9688"/>
<polygon fill="#888888" stroke="#888888" points="1202.8731,-689.2847 1213.3754,-690.6824 1206.037,-683.0405 1202.8731,-689.2847"/>
</g>
<!-- src/analyzeFiles/sourceFileAnalyzer.ts&#45;&gt;src/analyzeFiles/decorateRequire.ts -->
<g id="edge14" class="edge">
<title>src/analyzeFiles/sourceFileAnalyzer.ts&#45;&gt;src/analyzeFiles/decorateRequire.ts</title>
<path fill="none" stroke="#888888" d="M838.5429,-429.1407C840.7581,-430.9016 842.82,-432.8483 844.6836,-435 889.6576,-486.9266 817.3702,-540.1076 866.6182,-588 875.3961,-596.5363 936.7713,-602.5068 987.677,-606.0528"/>
<polygon fill="#888888" stroke="#888888" points="987.4867,-609.5479 997.6998,-606.7298 987.9584,-602.5638 987.4867,-609.5479"/>
</g>
<!-- src/analyzeFiles/sourceFileAnalyzer.ts&#45;&gt;src/analyzeFiles/types.ts -->
<g id="edge15" class="edge">
<title>src/analyzeFiles/sourceFileAnalyzer.ts&#45;&gt;src/analyzeFiles/types.ts</title>
<path fill="none" stroke="#888888" d="M838.5707,-397.1135C877.1388,-389.0189 926.2594,-380.0476 970.5596,-376 1053.0729,-368.4609 1150.2424,-371.2476 1203.2983,-373.7532"/>
<polygon fill="#888888" stroke="#888888" points="1203.1433,-377.2497 1213.3038,-374.2474 1203.4887,-370.2582 1203.1433,-377.2497"/>
</g>
<!-- src/analyzeFiles/findRequires/index.ts -->
<g id="node10" class="node">
<title>src/analyzeFiles/findRequires/index.ts</title>
<polygon fill="#ffff99" stroke="#000000" points="934.5303,-446 874.6474,-446 874.6474,-410 934.5303,-410 934.5303,-446"/>
<text text-anchor="middle" x="904.5889" y="-423.8" font-family="Times,serif" font-size="14.00" fill="#000000">index.ts</text>
</g>
<!-- src/analyzeFiles/sourceFileAnalyzer.ts&#45;&gt;src/analyzeFiles/findRequires/index.ts -->
<g id="edge13" class="edge">
<title>src/analyzeFiles/sourceFileAnalyzer.ts&#45;&gt;src/analyzeFiles/findRequires/index.ts</title>
<path fill="none" stroke="#888888" d="M838.7599,-420.6758C847.5969,-421.659 856.3977,-422.6382 864.5543,-423.5457"/>
<polygon fill="#888888" stroke="#888888" points="864.17,-427.0244 874.4958,-424.6518 864.9442,-420.0674 864.17,-427.0244"/>
</g>
<!-- src/handleFileChanges/sourceFile.ts -->
<g id="node33" class="node">
<title>src/handleFileChanges/sourceFile.ts</title>
<polygon fill="#ffff99" stroke="#000000" points="1434.1022,-820 1346.7914,-820 1346.7914,-784 1434.1022,-784 1434.1022,-820"/>
<text text-anchor="middle" x="1390.4468" y="-797.8" font-family="Times,serif" font-size="14.00" fill="#000000">sourceFile.ts</text>
</g>
<!-- src/analyzeFiles/sourceFileAnalyzer.ts&#45;&gt;src/handleFileChanges/sourceFile.ts -->
<g id="edge12" class="edge">
<title>src/analyzeFiles/sourceFileAnalyzer.ts&#45;&gt;src/handleFileChanges/sourceFile.ts</title>
<path fill="none" stroke="#888888" d="M801.5142,-394.9862C894.0457,-345.1195 1166.6567,-217.3642 1320.2588,-349 1352.8434,-376.9248 1380.3444,-679.3593 1388.1976,-773.916"/>
<polygon fill="#888888" stroke="#888888" points="1384.7102,-774.2147 1389.0172,-783.8946 1391.6867,-773.6416 1384.7102,-774.2147"/>
</g>
<!-- src/analyzeFiles/types.ts&#45;&gt;src/types.ts -->
<g id="edge17" class="edge">
<title>src/analyzeFiles/types.ts&#45;&gt;src/types.ts</title>
<path fill="none" stroke="#888888" d="M1213.3583,-378.8319C1195.3591,-382.3029 1173.8347,-389.9937 1163.3242,-407 1143.2296,-439.5138 1152.8421,-542.2432 1163.3242,-579 1174.3609,-617.7015 1200.8361,-656.1185 1220.2057,-680.6134"/>
<polygon fill="#888888" stroke="#888888" points="1217.7145,-683.0991 1226.7237,-688.6745 1223.1578,-678.6978 1217.7145,-683.0991"/>
</g>
<!-- src/analyzeFiles/findRequires/coffeescriptRequireFinder.ts -->
<g id="node9" class="node">
<title>src/analyzeFiles/findRequires/coffeescriptRequireFinder.ts</title>
<polygon fill="#ffff99" stroke="#000000" points="1145.2067,-500 970.6771,-500 970.6771,-464 1145.2067,-464 1145.2067,-500"/>
<text text-anchor="middle" x="1057.9419" y="-477.8" font-family="Times,serif" font-size="14.00" fill="#000000">coffeescriptRequireFinder.ts</text>
</g>
<!-- src/analyzeFiles/findRequires/coffeescriptRequireFinder.ts&#45;&gt;src/analyzeFiles/types.ts -->
<g id="edge19" class="edge">
<title>src/analyzeFiles/findRequires/coffeescriptRequireFinder.ts&#45;&gt;src/analyzeFiles/types.ts</title>
<path fill="none" stroke="#888888" d="M1131.0064,-463.9309C1136.0732,-461.3389 1140.9122,-458.3791 1145.3242,-455 1169.1121,-436.7815 1157.9431,-416.7376 1181.3242,-398 1187.9266,-392.7089 1195.9049,-388.6329 1203.8954,-385.5133"/>
<polygon fill="#888888" stroke="#888888" points="1205.254,-388.7467 1213.5564,-382.1649 1202.9616,-382.1327 1205.254,-388.7467"/>
</g>
<!-- src/analyzeFiles/findRequires/requirePathFilter.ts -->
<g id="node12" class="node">
<title>src/analyzeFiles/findRequires/requirePathFilter.ts</title>
<polygon fill="#ffff99" stroke="#000000" points="1304.2261,-500 1181.3569,-500 1181.3569,-464 1304.2261,-464 1304.2261,-500"/>
<text text-anchor="middle" x="1242.7915" y="-477.8" font-family="Times,serif" font-size="14.00" fill="#000000">requirePathFilter.ts</text>
</g>
<!-- src/analyzeFiles/findRequires/coffeescriptRequireFinder.ts&#45;&gt;src/analyzeFiles/findRequires/requirePathFilter.ts -->
<g id="edge18" class="edge">
<title>src/analyzeFiles/findRequires/coffeescriptRequireFinder.ts&#45;&gt;src/analyzeFiles/findRequires/requirePathFilter.ts</title>
<path fill="none" stroke="#888888" d="M1145.2243,-482C1153.8638,-482 1162.5635,-482 1171.02,-482"/>
<polygon fill="#888888" stroke="#888888" points="1171.1941,-485.5001 1181.1941,-482 1171.1941,-478.5001 1171.1941,-485.5001"/>
</g>
<!-- src/analyzeFiles/findRequires/index.ts&#45;&gt;src/analyzeFiles/types.ts -->
<g id="edge23" class="edge">
<title>src/analyzeFiles/findRequires/index.ts&#45;&gt;src/analyzeFiles/types.ts</title>
<path fill="none" stroke="#888888" d="M934.8338,-413.4184C945.8432,-408.7054 958.539,-403.942 970.5596,-401 1051.596,-381.1668 1149.6983,-376.7833 1203.2228,-375.9836"/>
<polygon fill="#888888" stroke="#888888" points="1203.3559,-379.4824 1213.3151,-375.8679 1203.2756,-372.4828 1203.3559,-379.4824"/>
</g>
<!-- src/analyzeFiles/findRequires/index.ts&#45;&gt;src/analyzeFiles/findRequires/coffeescriptRequireFinder.ts -->
<g id="edge22" class="edge">
<title>src/analyzeFiles/findRequires/index.ts&#45;&gt;src/analyzeFiles/findRequires/coffeescriptRequireFinder.ts</title>
<path fill="none" stroke="#888888" d="M934.5856,-440.934C945.7898,-445.5907 958.6766,-450.7419 970.5596,-455 976.0178,-456.9558 981.6967,-458.9031 987.4224,-460.8043"/>
<polygon fill="#888888" stroke="#888888" points="986.4793,-464.1782 997.0718,-463.9541 988.6515,-457.5237 986.4793,-464.1782"/>
</g>
<!-- src/analyzeFiles/findRequires/javascriptRequireFinder.ts -->
<g id="node11" class="node">
<title>src/analyzeFiles/findRequires/javascriptRequireFinder.ts</title>
<polygon fill="#ffff99" stroke="#000000" points="1139.8046,-554 976.0792,-554 976.0792,-518 1139.8046,-518 1139.8046,-554"/>
<text text-anchor="middle" x="1057.9419" y="-531.8" font-family="Times,serif" font-size="14.00" fill="#000000">javascriptRequireFinder.ts</text>
</g>
<!-- src/analyzeFiles/findRequires/index.ts&#45;&gt;src/analyzeFiles/findRequires/javascriptRequireFinder.ts -->
<g id="edge20" class="edge">
<title>src/analyzeFiles/findRequires/index.ts&#45;&gt;src/analyzeFiles/findRequires/javascriptRequireFinder.ts</title>
<path fill="none" stroke="#888888" d="M930.6538,-446.1C932.0239,-447.3654 933.3373,-448.6687 934.5596,-450 955.3341,-472.6279 946.3171,-490.1345 970.5596,-509 972.1573,-510.2433 973.8126,-511.4298 975.5158,-512.5619"/>
<polygon fill="#888888" stroke="#888888" points="973.9926,-515.7266 984.3861,-517.7823 977.543,-509.6938 973.9926,-515.7266"/>
</g>
<!-- src/analyzeFiles/findRequires/typescriptRequireFinder.ts -->
<g id="node13" class="node">
<title>src/analyzeFiles/findRequires/typescriptRequireFinder.ts</title>
<polygon fill="#ffff99" stroke="#000000" points="1140.0904,-446 975.7934,-446 975.7934,-410 1140.0904,-410 1140.0904,-446"/>
<text text-anchor="middle" x="1057.9419" y="-423.8" font-family="Times,serif" font-size="14.00" fill="#000000">typescriptRequireFinder.ts</text>
</g>
<!-- src/analyzeFiles/findRequires/index.ts&#45;&gt;src/analyzeFiles/findRequires/typescriptRequireFinder.ts -->
<g id="edge21" class="edge">
<title>src/analyzeFiles/findRequires/index.ts&#45;&gt;src/analyzeFiles/findRequires/typescriptRequireFinder.ts</title>
<path fill="none" stroke="#888888" d="M934.8865,-428C944.0422,-428 954.6112,-428 965.63,-428"/>
<polygon fill="#888888" stroke="#888888" points="965.8483,-431.5001 975.8482,-428 965.8482,-424.5001 965.8483,-431.5001"/>
</g>
<!-- src/analyzeFiles/findRequires/javascriptRequireFinder.ts&#45;&gt;src/analyzeFiles/types.ts -->
<g id="edge25" class="edge">
<title>src/analyzeFiles/findRequires/javascriptRequireFinder.ts&#45;&gt;src/analyzeFiles/types.ts</title>
<path fill="none" stroke="#888888" d="M1134.0754,-517.8457C1138.1358,-515.2763 1141.9325,-512.3447 1145.3242,-509 1182.2517,-472.5838 1145.2073,-435.2202 1181.3242,-398 1187.4512,-391.6858 1195.5141,-387.178 1203.7755,-383.9618"/>
<polygon fill="#888888" stroke="#888888" points="1205.0716,-387.2195 1213.4607,-380.7486 1202.8673,-380.5756 1205.0716,-387.2195"/>
</g>
<!-- src/analyzeFiles/findRequires/javascriptRequireFinder.ts&#45;&gt;src/analyzeFiles/findRequires/requirePathFilter.ts -->
<g id="edge24" class="edge">
<title>src/analyzeFiles/findRequires/javascriptRequireFinder.ts&#45;&gt;src/analyzeFiles/findRequires/requirePathFilter.ts</title>
<path fill="none" stroke="#888888" d="M1119.7511,-517.9437C1136.3332,-513.0996 1154.3976,-507.8225 1171.4504,-502.8408"/>
<polygon fill="#888888" stroke="#888888" points="1172.7378,-506.1111 1181.3551,-499.9474 1170.7749,-499.3919 1172.7378,-506.1111"/>
</g>
<!-- src/analyzeFiles/findRequires/typescriptRequireFinder.ts&#45;&gt;src/analyzeFiles/types.ts -->
<g id="edge27" class="edge">
<title>src/analyzeFiles/findRequires/typescriptRequireFinder.ts&#45;&gt;src/analyzeFiles/types.ts</title>
<path fill="none" stroke="#888888" d="M1130.9669,-409.9157C1135.833,-408.6179 1140.6537,-407.3058 1145.3242,-406 1164.5665,-400.6203 1185.7844,-394.1538 1203.4968,-388.6041"/>
<polygon fill="#888888" stroke="#888888" points="1204.9938,-391.802 1213.479,-385.4576 1202.8894,-385.1258 1204.9938,-391.802"/>
</g>
<!-- src/analyzeFiles/findRequires/typescriptRequireFinder.ts&#45;&gt;src/analyzeFiles/findRequires/requirePathFilter.ts -->
<g id="edge26" class="edge">
<title>src/analyzeFiles/findRequires/typescriptRequireFinder.ts&#45;&gt;src/analyzeFiles/findRequires/requirePathFilter.ts</title>
<path fill="none" stroke="#888888" d="M1119.7511,-446.0563C1136.3332,-450.9004 1154.3976,-456.1775 1171.4504,-461.1592"/>
<polygon fill="#888888" stroke="#888888" points="1170.7749,-464.6081 1181.3551,-464.0526 1172.7378,-457.8889 1170.7749,-464.6081"/>
</g>
<!-- src/buildJob/index.ts&#45;&gt;src/types.ts -->
<g id="edge29" class="edge">
<title>src/buildJob/index.ts&#45;&gt;src/types.ts</title>
<path fill="none" stroke="#888888" d="M189.7727,-168.2157C206.3541,-264.211 297.2823,-707 563.7988,-707 563.7988,-707 563.7988,-707 904.5889,-707 1012.5455,-707 1139.8863,-707 1203.0794,-707"/>
<polygon fill="#888888" stroke="#888888" points="1203.3867,-710.5001 1213.3866,-707 1203.3866,-703.5001 1203.3867,-710.5001"/>
</g>
<!-- src/buildJob/readIgnores.ts -->
<g id="node15" class="node">
<title>src/buildJob/readIgnores.ts</title>
<polygon fill="#ffff99" stroke="#000000" points="405.6197,-168 310.7915,-168 310.7915,-132 405.6197,-132 405.6197,-168"/>
<text text-anchor="middle" x="358.2056" y="-145.8" font-family="Times,serif" font-size="14.00" fill="#000000">readIgnores.ts</text>
</g>
<!-- src/buildJob/index.ts&#45;&gt;src/buildJob/readIgnores.ts -->
<g id="edge28" class="edge">
<title>src/buildJob/index.ts&#45;&gt;src/buildJob/readIgnores.ts</title>
<path fill="none" stroke="#888888" d="M217.0821,-150C240.1021,-150 272.4784,-150 300.4146,-150"/>
<polygon fill="#888888" stroke="#888888" points="300.4805,-153.5001 310.4804,-150 300.4804,-146.5001 300.4805,-153.5001"/>
</g>
<!-- src/findChangedRequires/changedRequiresForSingleFile.ts -->
<g id="node16" class="node">
<title>src/findChangedRequires/changedRequiresForSingleFile.ts</title>
<polygon fill="#ffff99" stroke="#000000" points="665.0509,-802 462.5467,-802 462.5467,-766 665.0509,-766 665.0509,-802"/>
<text text-anchor="middle" x="563.7988" y="-779.8" font-family="Times,serif" font-size="14.00" fill="#000000">changedRequiresForSingleFile.ts</text>
</g>
<!-- src/findChangedRequires/changedRequiresForSingleFile.ts&#45;&gt;src/types.ts -->
<g id="edge32" class="edge">
<title>src/findChangedRequires/changedRequiresForSingleFile.ts&#45;&gt;src/types.ts</title>
<path fill="none" stroke="#888888" d="M665.1903,-778.6598C830.2929,-769.9313 1139.5748,-753.4299 1145.3242,-752 1165.6211,-746.9522 1186.8523,-737.6829 1204.2986,-728.8631"/>
<polygon fill="#888888" stroke="#888888" points="1206.3155,-731.7592 1213.5716,-724.0391 1203.0849,-725.5492 1206.3155,-731.7592"/>
</g>
<!-- src/findChangedRequires/fileInfo.ts -->
<g id="node17" class="node">
<title>src/findChangedRequires/fileInfo.ts</title>
<polygon fill="#ffff99" stroke="#000000" points="804.8233,-876 734.7197,-876 734.7197,-840 804.8233,-840 804.8233,-876"/>
<text text-anchor="middle" x="769.7715" y="-853.8" font-family="Times,serif" font-size="14.00" fill="#000000">fileInfo.ts</text>
</g>
<!-- src/findChangedRequires/changedRequiresForSingleFile.ts&#45;&gt;src/findChangedRequires/fileInfo.ts -->
<g id="edge30" class="edge">
<title>src/findChangedRequires/changedRequiresForSingleFile.ts&#45;&gt;src/findChangedRequires/fileInfo.ts</title>
<path fill="none" stroke="#888888" d="M613.922,-802.0078C647.8074,-814.1819 692.1684,-830.1195 724.8934,-841.8766"/>
<polygon fill="#888888" stroke="#888888" points="724.0569,-845.2951 734.6514,-845.3824 726.4238,-838.7073 724.0569,-845.2951"/>
</g>
<!-- src/findChangedRequires/types.ts -->
<g id="node21" class="node">
<title>src/findChangedRequires/types.ts</title>
<polygon fill="#ffff99" stroke="#000000" points="799.1624,-822 740.3805,-822 740.3805,-786 799.1624,-786 799.1624,-822"/>
<text text-anchor="middle" x="769.7715" y="-799.8" font-family="Times,serif" font-size="14.00" fill="#000000">types.ts</text>
</g>
<!-- src/findChangedRequires/changedRequiresForSingleFile.ts&#45;&gt;src/findChangedRequires/types.ts -->
<g id="edge31" class="edge">
<title>src/findChangedRequires/changedRequiresForSingleFile.ts&#45;&gt;src/findChangedRequires/types.ts</title>
<path fill="none" stroke="#888888" d="M664.9749,-793.8242C688.2155,-796.0809 711.5791,-798.3495 730.3295,-800.1702"/>
<polygon fill="#888888" stroke="#888888" points="730.2288,-803.6768 740.5203,-801.1597 730.9054,-796.7095 730.2288,-803.6768"/>
</g>
<!-- src/findChangedRequires/fileLocationCalculator.ts -->
<g id="node18" class="node">
<title>src/findChangedRequires/fileLocationCalculator.ts</title>
<polygon fill="#ffff99" stroke="#000000" points="640.8301,-876 486.7676,-876 486.7676,-840 640.8301,-840 640.8301,-876"/>
<text text-anchor="middle" x="563.7988" y="-853.8" font-family="Times,serif" font-size="14.00" fill="#000000">fileLocationCalculator.ts</text>
</g>
<!-- src/findChangedRequires/fileLocationCalculator.ts&#45;&gt;src/findChangedRequires/fileInfo.ts -->
<g id="edge33" class="edge">
<title>src/findChangedRequires/fileLocationCalculator.ts&#45;&gt;src/findChangedRequires/fileInfo.ts</title>
<path fill="none" stroke="#888888" d="M641.0815,-858C669.2483,-858 700.1556,-858 724.6199,-858"/>
<polygon fill="#888888" stroke="#888888" points="724.6834,-861.5001 734.6834,-858 724.6833,-854.5001 724.6834,-861.5001"/>
</g>
<!-- src/findChangedRequires/fileLocationCalculator.ts&#45;&gt;src/findChangedRequires/types.ts -->
<g id="edge34" class="edge">
<title>src/findChangedRequires/fileLocationCalculator.ts&#45;&gt;src/findChangedRequires/types.ts</title>
<path fill="none" stroke="#888888" d="M632.6711,-839.9437C665.2724,-831.3966 703.0154,-821.5015 730.6368,-814.26"/>
<polygon fill="#888888" stroke="#888888" points="731.5414,-817.6412 740.3269,-811.7195 729.7662,-810.87 731.5414,-817.6412"/>
</g>
<!-- src/findChangedRequires/fileMoveCalculator.ts -->
<g id="node19" class="node">
<title>src/findChangedRequires/fileMoveCalculator.ts</title>
<polygon fill="#ffff99" stroke="#000000" points="426.6402,-802 289.771,-802 289.771,-766 426.6402,-766 426.6402,-802"/>
<text text-anchor="middle" x="358.2056" y="-779.8" font-family="Times,serif" font-size="14.00" fill="#000000">fileMoveCalculator.ts</text>
</g>
<!-- src/findChangedRequires/fileMoveCalculator.ts&#45;&gt;src/types.ts -->
<g id="edge38" class="edge">
<title>src/findChangedRequires/fileMoveCalculator.ts&#45;&gt;src/types.ts</title>
<path fill="none" stroke="#888888" d="M418.7876,-765.9374C433.059,-762.3544 448.3027,-759.0652 462.6729,-757 597.8447,-737.5741 633.2109,-747 769.7715,-747 769.7715,-747 769.7715,-747 904.5889,-747 1011.7899,-747 1039.436,-748.7251 1145.3242,-732 1164.6528,-728.947 1185.7276,-723.7793 1203.3197,-718.932"/>
<polygon fill="#888888" stroke="#888888" points="1204.5624,-722.2181 1213.2358,-716.1334 1202.6611,-715.4812 1204.5624,-722.2181"/>
</g>
<!-- src/findChangedRequires/fileMoveCalculator.ts&#45;&gt;src/analyzeFiles/types.ts -->
<g id="edge37" class="edge">
<title>src/findChangedRequires/fileMoveCalculator.ts&#45;&gt;src/analyzeFiles/types.ts</title>
<path fill="none" stroke="#888888" d="M360.792,-765.9551C374.6587,-669.7735 440.3984,-221.0679 462.6729,-202 566.3859,-113.2175 633.2478,-195 769.7715,-195 769.7715,-195 769.7715,-195 904.5889,-195 1011.6054,-195 1053.6955,-144.7124 1145.3242,-200 1199.521,-232.7017 1225.8293,-307.3034 1236.5742,-348.0945"/>
<polygon fill="#888888" stroke="#888888" points="1233.212,-349.0769 1239.0345,-357.9284 1240.0027,-347.3779 1233.212,-349.0769"/>
</g>
<!-- src/findChangedRequires/fileMoveCalculator.ts&#45;&gt;src/findChangedRequires/changedRequiresForSingleFile.ts -->
<g id="edge35" class="edge">
<title>src/findChangedRequires/fileMoveCalculator.ts&#45;&gt;src/findChangedRequires/changedRequiresForSingleFile.ts</title>
<path fill="none" stroke="#888888" d="M426.6651,-784C434.977,-784 443.6272,-784 452.3612,-784"/>
<polygon fill="#888888" stroke="#888888" points="452.6374,-787.5001 462.6374,-784 452.6373,-780.5001 452.6374,-787.5001"/>
</g>
<!-- src/findChangedRequires/fileMoveCalculator.ts&#45;&gt;src/findChangedRequires/types.ts -->
<g id="edge36" class="edge">
<title>src/findChangedRequires/fileMoveCalculator.ts&#45;&gt;src/findChangedRequires/types.ts</title>
<path fill="none" stroke="#888888" d="M417.3632,-802.0577C432.0296,-805.7644 447.8064,-809.1099 462.6729,-811 558.2452,-823.1509 671.8601,-814.6667 730.46,-808.62"/>
<polygon fill="#888888" stroke="#888888" points="730.8308,-812.1003 740.4045,-807.5621 730.0904,-805.1396 730.8308,-812.1003"/>
</g>
<!-- src/findChangedRequires/index.ts&#45;&gt;src/types.ts -->
<g id="edge42" class="edge">
<title>src/findChangedRequires/index.ts&#45;&gt;src/types.ts</title>
<path fill="none" stroke="#888888" d="M217.1907,-774.7741C237.542,-768.9012 265.0389,-761.5665 289.7383,-757 410.2285,-734.7232 441.2665,-727 563.7988,-727 563.7988,-727 563.7988,-727 904.5889,-727 1012.7341,-727 1139.9926,-716.6833 1203.1244,-710.8692"/>
<polygon fill="#888888" stroke="#888888" points="1203.7897,-714.3224 1213.4212,-709.9082 1203.1392,-707.3527 1203.7897,-714.3224"/>
</g>
<!-- src/findChangedRequires/index.ts&#45;&gt;src/findChangedRequires/fileLocationCalculator.ts -->
<g id="edge39" class="edge">
<title>src/findChangedRequires/index.ts&#45;&gt;src/findChangedRequires/fileLocationCalculator.ts</title>
<path fill="none" stroke="#888888" d="M216.841,-792.6076C237.2782,-798.2895 265.0087,-805.6456 289.7383,-811 351.9218,-824.4638 422.7174,-836.5219 476.7757,-845.053"/>
<polygon fill="#888888" stroke="#888888" points="476.2474,-848.5128 486.6689,-846.6044 477.332,-841.5974 476.2474,-848.5128"/>
</g>
<!-- src/findChangedRequires/index.ts&#45;&gt;src/findChangedRequires/fileMoveCalculator.ts -->
<g id="edge41" class="edge">
<title>src/findChangedRequires/index.ts&#45;&gt;src/findChangedRequires/fileMoveCalculator.ts</title>
<path fill="none" stroke="#888888" d="M217.0821,-784C234.4968,-784 257.2662,-784 279.4171,-784"/>
<polygon fill="#888888" stroke="#888888" points="279.5296,-787.5001 289.5295,-784 279.5295,-780.5001 279.5296,-787.5001"/>
</g>
<!-- src/findChangedRequires/index.ts&#45;&gt;src/findSourceFiles/index.ts -->
<g id="edge40" class="edge">
<title>src/findChangedRequires/index.ts&#45;&gt;src/findSourceFiles/index.ts</title>
<path fill="none" stroke="#888888" d="M217.1161,-781.4623C230.4172,-778.7132 244.9746,-773.1507 253.7383,-762 316.2761,-682.4287 226.9297,-387.3578 289.7383,-308 296.7385,-299.1554 307.3249,-293.8134 318.0946,-290.6035"/>
<polygon fill="#888888" stroke="#888888" points="319.0458,-293.9743 327.939,-288.2157 317.3957,-287.1716 319.0458,-293.9743"/>
</g>
<!-- src/findSourceFiles/excludedPathFilter.ts -->
<g id="node22" class="node">
<title>src/findSourceFiles/excludedPathFilter.ts</title>
<polygon fill="#ffff99" stroke="#000000" points="836.5958,-250 702.9472,-250 702.9472,-214 836.5958,-214 836.5958,-250"/>
<text text-anchor="middle" x="769.7715" y="-227.8" font-family="Times,serif" font-size="14.00" fill="#000000">excludedPathFilter.ts</text>
</g>
<!-- src/findSourceFiles/filterExcludedFiles.ts -->
<g id="node23" class="node">
<title>src/findSourceFiles/filterExcludedFiles.ts</title>
<polygon fill="#ffff99" stroke="#000000" points="631.6753,-250 495.9223,-250 495.9223,-214 631.6753,-214 631.6753,-250"/>
<text text-anchor="middle" x="563.7988" y="-227.8" font-family="Times,serif" font-size="14.00" fill="#000000">filterExcludedFiles.ts</text>
</g>
<!-- src/findSourceFiles/filterExcludedFiles.ts&#45;&gt;src/types.ts -->
<g id="edge44" class="edge">
<title>src/findSourceFiles/filterExcludedFiles.ts&#45;&gt;src/types.ts</title>
<path fill="none" stroke="#888888" d="M631.6719,-247.1528C777.4422,-280.2889 1110.1291,-359.3153 1145.3242,-398 1203.1628,-461.5733 1153.3096,-506.747 1181.3242,-588 1192.7661,-621.1859 1212.088,-656.6134 1226.0176,-680.099"/>
<polygon fill="#888888" stroke="#888888" points="1223.0921,-682.0255 1231.2487,-688.7872 1229.089,-678.4148 1223.0921,-682.0255"/>
</g>
<!-- src/findSourceFiles/filterExcludedFiles.ts&#45;&gt;src/findSourceFiles/excludedPathFilter.ts -->
<g id="edge43" class="edge">
<title>src/findSourceFiles/filterExcludedFiles.ts&#45;&gt;src/findSourceFiles/excludedPathFilter.ts</title>
<path fill="none" stroke="#888888" d="M631.5273,-232C651.0869,-232 672.5761,-232 692.6613,-232"/>
<polygon fill="#888888" stroke="#888888" points="692.7052,-235.5001 702.7051,-232 692.7051,-228.5001 692.7052,-235.5001"/>
</g>
<!-- src/findSourceFiles/findFiles.ts -->
<g id="node24" class="node">
<title>src/findSourceFiles/findFiles.ts</title>
<polygon fill="#ffff99" stroke="#000000" points="602.6505,-304 524.9471,-304 524.9471,-268 602.6505,-268 602.6505,-304"/>
<text text-anchor="middle" x="563.7988" y="-281.8" font-family="Times,serif" font-size="14.00" fill="#000000">findFiles.ts</text>
</g>
<!-- src/findSourceFiles/index.ts&#45;&gt;src/types.ts -->
<g id="edge48" class="edge">
<title>src/findSourceFiles/index.ts&#45;&gt;src/types.ts</title>
<path fill="none" stroke="#888888" d="M388.3608,-288.3048C402.1309,-290.9814 417.402,-296.5501 426.6729,-308 476.4312,-369.4537 406.2006,-606.6526 462.6729,-662 511.5729,-709.9261 701.3016,-687 769.7715,-687 769.7715,-687 769.7715,-687 904.5889,-687 1012.7341,-687 1139.9926,-697.3167 1203.1244,-703.1308"/>
<polygon fill="#888888" stroke="#888888" points="1203.1392,-706.6473 1213.4212,-704.0918 1203.7897,-699.6776 1203.1392,-706.6473"/>
</g>
<!-- src/findSourceFiles/index.ts&#45;&gt;src/analyzeFiles/index.ts -->
<g id="edge45" class="edge">
<title>src/findSourceFiles/index.ts&#45;&gt;src/analyzeFiles/index.ts</title>
<path fill="none" stroke="#888888" d="M388.2101,-292.9441C400.5659,-296.48 414.7483,-301.4419 426.6729,-308 444.9223,-318.0367 445.663,-325.9815 462.6729,-338 482.5352,-352.034 505.8112,-365.9999 525.0223,-376.9219"/>
<polygon fill="#888888" stroke="#888888" points="523.383,-380.0155 533.8142,-381.8702 526.8163,-373.9153 523.383,-380.0155"/>
</g>
<!-- src/findSourceFiles/index.ts&#45;&gt;src/findSourceFiles/filterExcludedFiles.ts -->
<g id="edge47" class="edge">
<title>src/findSourceFiles/index.ts&#45;&gt;src/findSourceFiles/filterExcludedFiles.ts</title>
<path fill="none" stroke="#888888" d="M388.5416,-278.0321C414.1605,-271.3032 451.9962,-261.3655 485.9623,-252.4441"/>
<polygon fill="#888888" stroke="#888888" points="487.1095,-255.7616 495.8923,-249.836 485.3312,-248.9912 487.1095,-255.7616"/>
</g>
<!-- src/findSourceFiles/index.ts&#45;&gt;src/findSourceFiles/findFiles.ts -->
<g id="edge46" class="edge">
<title>src/findSourceFiles/index.ts&#45;&gt;src/findSourceFiles/findFiles.ts</title>
<path fill="none" stroke="#888888" d="M388.5416,-286C421.7629,-286 475.5276,-286 514.7579,-286"/>
<polygon fill="#888888" stroke="#888888" points="514.9018,-289.5001 524.9017,-286 514.9017,-282.5001 514.9018,-289.5001"/>
</g>
<!-- src/handleFileChanges/applyChanges.ts -->
<g id="node26" class="node">
<title>src/handleFileChanges/applyChanges.ts</title>
<polygon fill="#ffff99" stroke="#000000" points="1112.0973,-896 1003.7865,-896 1003.7865,-860 1112.0973,-860 1112.0973,-896"/>
<text text-anchor="middle" x="1057.9419" y="-873.8" font-family="Times,serif" font-size="14.00" fill="#000000">applyChanges.ts</text>
</g>
<!-- src/handleFileChanges/applyChanges.ts&#45;&gt;src/types.ts -->
<g id="edge51" class="edge">
<title>src/handleFileChanges/applyChanges.ts&#45;&gt;src/types.ts</title>
<path fill="none" stroke="#888888" d="M1112.4438,-868.8562C1124.2803,-864.8818 1136.0249,-859.18 1145.3242,-851 1174.2956,-825.5158 1159.7762,-804.0074 1181.3242,-772 1190.9296,-757.7322 1203.7271,-743.645 1215.1575,-732.2521"/>
<polygon fill="#888888" stroke="#888888" points="1217.6992,-734.6624 1222.4242,-725.1796 1212.8169,-729.6461 1217.6992,-734.6624"/>
</g>
<!-- src/handleFileChanges/applyToFile.ts -->
<g id="node27" class="node">
<title>src/handleFileChanges/applyToFile.ts</title>
<polygon fill="#ffff99" stroke="#000000" points="1291.0869,-874 1194.4961,-874 1194.4961,-838 1291.0869,-838 1291.0869,-874"/>
<text text-anchor="middle" x="1242.7915" y="-851.8" font-family="Times,serif" font-size="14.00" fill="#000000">applyToFile.ts</text>
</g>
<!-- src/handleFileChanges/applyChanges.ts&#45;&gt;src/handleFileChanges/applyToFile.ts -->
<g id="edge49" class="edge">
<title>src/handleFileChanges/applyChanges.ts&#45;&gt;src/handleFileChanges/applyToFile.ts</title>
<path fill="none" stroke="#888888" d="M1112.4031,-871.5183C1135.0385,-868.8243 1161.3509,-865.6927 1184.3866,-862.9511"/>
<polygon fill="#888888" stroke="#888888" points="1184.8591,-866.4197 1194.3754,-861.7623 1184.0318,-859.4687 1184.8591,-866.4197"/>
</g>
<!-- src/handleFileChanges/printChanges.ts -->
<g id="node32" class="node">
<title>src/handleFileChanges/printChanges.ts</title>
<polygon fill="#ffff99" stroke="#000000" points="1294.7858,-928 1190.7972,-928 1190.7972,-892 1294.7858,-892 1294.7858,-928"/>
<text text-anchor="middle" x="1242.7915" y="-905.8" font-family="Times,serif" font-size="14.00" fill="#000000">printChanges.ts</text>
</g>
<!-- src/handleFileChanges/applyChanges.ts&#45;&gt;src/handleFileChanges/printChanges.ts -->
<g id="edge50" class="edge">
<title>src/handleFileChanges/applyChanges.ts&#45;&gt;src/handleFileChanges/printChanges.ts</title>
<path fill="none" stroke="#888888" d="M1112.4031,-887.428C1133.9211,-891.153 1158.7621,-895.4534 1180.9521,-899.2947"/>
<polygon fill="#888888" stroke="#888888" points="1180.489,-902.7666 1190.9395,-901.0237 1181.6831,-895.8691 1180.489,-902.7666"/>
</g>
<!-- src/handleFileChanges/editLine.ts -->
<g id="node29" class="node">
<title>src/handleFileChanges/editLine.ts</title>
<polygon fill="#ffff99" stroke="#000000" points="1428.4347,-928 1352.4589,-928 1352.4589,-892 1428.4347,-892 1428.4347,-928"/>
<text text-anchor="middle" x="1390.4468" y="-905.8" font-family="Times,serif" font-size="14.00" fill="#000000">editLine.ts</text>
</g>
<!-- src/handleFileChanges/applyToFile.ts&#45;&gt;src/handleFileChanges/editLine.ts -->
<g id="edge53" class="edge">
<title>src/handleFileChanges/applyToFile.ts&#45;&gt;src/handleFileChanges/editLine.ts</title>
<path fill="none" stroke="#888888" d="M1291.2253,-872.6145C1300.8641,-875.9959 1310.8978,-879.5692 1320.2588,-883 1327.6714,-885.7167 1335.4982,-888.6565 1343.13,-891.5623"/>
<polygon fill="#888888" stroke="#888888" points="1342.0563,-894.8989 1352.6467,-895.2055 1344.559,-888.3616 1342.0563,-894.8989"/>
</g>
<!-- src/handleFileChanges/getLineEdits.ts -->
<g id="node30" class="node">
<title>src/handleFileChanges/getLineEdits.ts</title>
<polygon fill="#ffff99" stroke="#000000" points="1440.8235,-874 1340.0701,-874 1340.0701,-838 1440.8235,-838 1440.8235,-874"/>
<text text-anchor="middle" x="1390.4468" y="-851.8" font-family="Times,serif" font-size="14.00" fill="#000000">getLineEdits.ts</text>
</g>
<!-- src/handleFileChanges/applyToFile.ts&#45;&gt;src/handleFileChanges/getLineEdits.ts -->
<g id="edge52" class="edge">
<title>src/handleFileChanges/applyToFile.ts&#45;&gt;src/handleFileChanges/getLineEdits.ts</title>
<path fill="none" stroke="#888888" d="M1291.1394,-856C1303.5497,-856 1317.0548,-856 1329.9931,-856"/>
<polygon fill="#888888" stroke="#888888" points="1330.216,-859.5001 1340.216,-856 1330.2159,-852.5001 1330.216,-859.5001"/>
</g>
<!-- src/handleFileChanges/applyToFile.ts&#45;&gt;src/handleFileChanges/sourceFile.ts -->
<g id="edge54" class="edge">
<title>src/handleFileChanges/applyToFile.ts&#45;&gt;src/handleFileChanges/sourceFile.ts</title>
<path fill="none" stroke="#888888" d="M1291.0908,-843.5034C1300.834,-840.6419 1310.9417,-837.4246 1320.2588,-834 1328.2092,-831.0777 1336.5156,-827.646 1344.5166,-824.1351"/>
<polygon fill="#888888" stroke="#888888" points="1346.0375,-827.2889 1353.7293,-820.0029 1343.1727,-820.902 1346.0375,-827.2889"/>
</g>
<!-- src/handleFileChanges/checkForErrors.ts -->
<g id="node28" class="node">
<title>src/handleFileChanges/checkForErrors.ts</title>
<polygon fill="#ffff99" stroke="#000000" points="1115.856,-842 1000.0278,-842 1000.0278,-806 1115.856,-806 1115.856,-842"/>
<text text-anchor="middle" x="1057.9419" y="-819.8" font-family="Times,serif" font-size="14.00" fill="#000000">checkForErrors.ts</text>
</g>
<!-- src/handleFileChanges/checkForErrors.ts&#45;&gt;src/types.ts -->
<g id="edge55" class="edge">
<title>src/handleFileChanges/checkForErrors.ts&#45;&gt;src/types.ts</title>
<path fill="none" stroke="#888888" d="M1116.0005,-813.9565C1126.1374,-810.939 1136.3112,-807.0369 1145.3242,-802 1161.8895,-792.7425 1196.0358,-757.7053 1219.1812,-732.8815"/>
<polygon fill="#888888" stroke="#888888" points="1222.0446,-734.9407 1226.2731,-725.2263 1216.9095,-730.1835 1222.0446,-734.9407"/>
</g>
<!-- src/handleFileChanges/index.ts&#45;&gt;src/types.ts -->
<g id="edge59" class="edge">
<title>src/handleFileChanges/index.ts&#45;&gt;src/types.ts</title>
<path fill="none" stroke="#888888" d="M930.6538,-859.9C932.0239,-858.6346 933.3373,-857.3313 934.5596,-856 955.3341,-833.3721 944.9073,-813.8987 970.5596,-797 1036.0836,-753.8354 1072.0327,-800.0165 1145.3242,-772 1170.3664,-762.4273 1195.4605,-745.48 1213.914,-731.2902"/>
<polygon fill="#888888" stroke="#888888" points="1216.2098,-733.9373 1221.9013,-725.001 1211.8793,-728.4376 1216.2098,-733.9373"/>
</g>
<!-- src/handleFileChanges/index.ts&#45;&gt;src/handleFileChanges/applyChanges.ts -->
<g id="edge58" class="edge">
<title>src/handleFileChanges/index.ts&#45;&gt;src/handleFileChanges/applyChanges.ts</title>
<path fill="none" stroke="#888888" d="M934.8865,-878C951.6878,-878 973.248,-878 993.6145,-878"/>
<polygon fill="#888888" stroke="#888888" points="993.8063,-881.5001 1003.8062,-878 993.8062,-874.5001 993.8063,-881.5001"/>
</g>
<!-- src/handleFileChanges/index.ts&#45;&gt;src/handleFileChanges/checkForErrors.ts -->
<g id="edge56" class="edge">
<title>src/handleFileChanges/index.ts&#45;&gt;src/handleFileChanges/checkForErrors.ts</title>
<path fill="none" stroke="#888888" d="M934.5856,-865.066C945.7898,-860.4093 958.6766,-855.2581 970.5596,-851 976.8866,-848.7328 983.5103,-846.4772 990.1595,-844.2914"/>
<polygon fill="#888888" stroke="#888888" points="991.4501,-847.5526 999.8881,-841.1455 989.2963,-840.8921 991.4501,-847.5526"/>
</g>
<!-- src/handleFileChanges/index.ts&#45;&gt;src/handleFileChanges/printChanges.ts -->
<g id="edge57" class="edge">
<title>src/handleFileChanges/index.ts&#45;&gt;src/handleFileChanges/printChanges.ts</title>
<path fill="none" stroke="#888888" d="M934.7228,-893.0739C945.7217,-897.8332 958.4394,-902.4999 970.5596,-905 1041.6001,-919.6537 1125.2869,-918.5367 1180.9349,-915.2903"/>
<polygon fill="#888888" stroke="#888888" points="1181.2274,-918.7789 1190.9899,-914.6626 1180.7913,-911.7925 1181.2274,-918.7789"/>
</g>
<!-- src/handleFileChanges/printChanges.ts&#45;&gt;src/handleFileChanges/editLine.ts -->
<g id="edge61" class="edge">
<title>src/handleFileChanges/printChanges.ts&#45;&gt;src/handleFileChanges/editLine.ts</title>
<path fill="none" stroke="#888888" d="M1294.8492,-910C1310.2303,-910 1326.996,-910 1342.1307,-910"/>
<polygon fill="#888888" stroke="#888888" points="1342.3109,-913.5001 1352.3109,-910 1342.3109,-906.5001 1342.3109,-913.5001"/>
</g>
<!-- src/handleFileChanges/printChanges.ts&#45;&gt;src/handleFileChanges/getLineEdits.ts -->
<g id="edge62" class="edge">
<title>src/handleFileChanges/printChanges.ts&#45;&gt;src/handleFileChanges/getLineEdits.ts</title>
<path fill="none" stroke="#888888" d="M1294.5439,-892.2192C1303.1487,-889.1892 1311.9677,-886.0387 1320.2588,-883 1324.9649,-881.2752 1329.838,-879.4605 1334.7222,-877.6217"/>
<polygon fill="#888888" stroke="#888888" points="1335.9763,-880.8894 1344.0873,-874.073 1333.4959,-874.3435 1335.9763,-880.8894"/>
</g>
<!-- src/handleFileChanges/printChanges.ts&#45;&gt;src/handleFileChanges/sourceFile.ts -->
<g id="edge60" class="edge">
<title>src/handleFileChanges/printChanges.ts&#45;&gt;src/handleFileChanges/sourceFile.ts</title>
<path fill="none" stroke="#888888" d="M1294.7781,-899.0083C1304.124,-895.1634 1313.1412,-889.9813 1320.2588,-883 1338.53,-865.0787 1323.4607,-848.309 1340.2588,-829 1340.8838,-828.2815 1341.5328,-827.5789 1342.2031,-826.892"/>
<polygon fill="#888888" stroke="#888888" points="1344.7742,-829.2972 1350.0756,-820.124 1340.2109,-823.9891 1344.7742,-829.2972"/>
</g>
</g>
</svg>
